<mxfile host="app.diagrams.net" modified="2023-07-02T09:10:33.607Z" agent="Mozilla/5.0 (X11; Linux x86_64; rv:109.0) Gecko/20100101 Firefox/114.0" etag="8Kez9CWurS928OQi2eSI" version="21.5.1" type="device">
  <diagram name="Page-1" id="mwUdjfDwQPrf7hgfFsb_">
    <mxGraphModel dx="2222" dy="1188" grid="1" gridSize="10" guides="1" tooltips="1" connect="1" arrows="1" fold="1" page="1" pageScale="1" pageWidth="850" pageHeight="1100" math="0" shadow="0">
      <root>
        <mxCell id="0" />
        <mxCell id="1" parent="0" />
        <mxCell id="M2eptHuo7hKowYvyBb7Z-1" value="" style="shape=image;verticalLabelPosition=bottom;labelBackgroundColor=default;verticalAlign=top;aspect=fixed;imageAspect=0;image=data:image/png,iVBORw0KGgoAAAANSUhEUgAAB3wAAAPMCAYAAACpB8jVAAAAOXRFWHRTb2Z0d2FyZQBNYXRwbG90bGliIHZlcnNpb24zLjcuMSwgaHR0cHM6Ly9tYXRwbG90bGliLm9yZy/bCgiHAAAACXBIWXMAAA9hAAAPYQGoP6dpAAEAAElEQVR4nOzdd3wUdf7H8femQiAJEELvndBLCnBKU+TEhqJnuVOx3p1ydkXvTsWOnp7tdxZUkLMXRD0bKIKI9N57DTWUhEACKfv7Y5LdncwmpGx2djev5+ORx858ZzL7yWZ39jvz+RaH0+l0CgAAAAAAAAAAAAAQdMLsDgAAAAAAAAAAAAAAUDkkfAEAAAAAAAAAAAAgSJHwBQAAAAAAAAAAAIAgRcIXAAAAAAAAAAAAAIIUCV8AAAAAAAAAAAAACFIkfAEAAAAAAAAAAAAgSJHwBQAAAAAAAAAAAIAgRcIXAAAAAAAAAAAAAIIUCV8AAAAAAW///v0aP368+vbtq/j4eIWFhcnhcLh+VqxYYXeIQcPzdXM4HGrTpk2lj7Vjxw7L8YYMGeKzWIFQtWXLFo0bN07du3dXbGys5XN07Ngxu0MMCr4+B82ePdtyvOuvv95n8drJ299W8ofvUvjDJZdcUub7kHoEAACVQ8IXAAAEnUcffdTrzYGIiAjVrl1bDRo0UIcOHXT22Wfrxhtv1FtvvaWjR4/aHbbtfvjhB9drNXz4cJ8eOz8/X8uWLdNrr72m66+/Xl27drUk5BwOh3bs2OHT50XNsHbtWnXv3l0TJ07U8uXLlZWVJafTaXdYsNkbb7zhOrfceOONPj12bm6u5s+frxdffFFXXXWV2rVr5/V7B6iMn3/+WT179tSrr76qtWvXKjs72+6QYIPCwkKtXbtW77zzjm699Vb16tVLERERlvPM7Nmz7Q5VkjR37lzdfPPNSkpKUr169RQdHa0WLVro3HPP1auvvqoTJ06U+1jbtm3T+PHjlZqaqoYNGyoqKkqNGzdWSkqKHnnkEe3atavcxzp27Jief/55jRgxQk2bNlV0dLTq16+vpKQk3X777Vq4cGFl/txy/Q0TJkzQsGHD1Lx5c8XExCgiIkL16tVTt27ddPXVV+ujjz5Sfn5+tTw/AABASRF2BwAAAOArBQUFKigoUG5uro4ePaqtW7dq7ty5euedd3TnnXfq2muv1eOPP66EhAS/xPPoo49qwoQJprLJkyfb1lPkq6++ci1fdNFFPj32k08+qUcffdSnxwSK3XrrrTp8+LDdYVRKyaRg69atafjgI9V5TvvLX/6iKVOm+PSYgGQ0kBo7dqxycnLsDqXCduzYobZt25rKBg8eHDAJyWDz3//+Nyh6Dx8+fFhjx47V119/bdmWnp6u9PR0/fjjj5o4caKmTJlSZqPCgoICPfzww3rmmWdUWFho2nbw4EEdPHhQixcv1nPPPacnn3xSd911V5mxffLJJ7rllluUmZlpKj99+rSOHTum9evX6z//+Y+uu+46vf7664qOjq7AX166CRMm6Mknn1ReXp5lW2ZmpjIzM7Vu3Tp9+OGHeuSRRzRt2jR169bNJ88NAABQGhK+AACgRjhx4oRee+01fffdd5o2bZr69Oljd0h+97///c+17OvkCL0tUV0OHDigefPmWcpHjBihTp06KTw8XJKUmJjo79Bgo5MnT2rWrFmSpNq1a+vcc8/16fE5p6G6LF26VDt37jSVhYeH68ILL1SrVq1cjUR8lZhC4AqE88y5556rpKQk13rJ79KsrCwNGzZMq1atOuOx9uzZo1GjRunrr78u9Zx88803a/LkyWc8Vk5Oju6++24dP35cDz/8sNd9pkyZorFjx57xWE6nU1OmTNHevXv1zTffKCKiardCn3/++Qo1cty0aZPOOeccrV27Vg0aNKjSc4eKCy+80DSdxDvvvKPjx4/bFxAAACGChC8AAAgJzZs315gxY+R0OnXs2DFt3rxZixcvtgyjtmPHDg0ePFgLFy5U165dbYrW/1asWOEaHq979+6WHjq+1rJlSx0/fpw5CFFl27dvt5QNGzZMP/zwgw3RIFDMmDFDubm5kqThw4crJiamWp+vQ4cO2rNnj+s5gcrydk677rrr9Pbbb9sQDQJJ48aNJRkNnfzl6quvLrOX8fjx4y3J3sjISJ133nlq1KiR5s+fr/Xr17u2nTp1Stdee63WrVun+vXrm37vk08+8ZrsHThwoJKSkrR582bNmTPHtO3RRx/V8OHDNWjQIFP5rl279Je//MVyrE6dOmnQoEE6evSovvvuO506dcq1bcaMGXruuef04IMPlvr3nkleXp6eeuopS3lsbKzOP/98xcbG6rffftO6detM2/fv369JkybpgQceqPRzh5KS0zBMnz6dhC8AAD7AHL4AACAkdOjQQS+++KJeeuklvfvuu/rtt9+Unp6uv/71r5Z9jx8/rksuucR0EyjUVefQp5LUuXNn3X///Zo2bZr27t2rXbt2qVevXj5/HtQ83hJsLVu2tCESBJLqPqf169dP//znP/XNN98oIyNDmzdvdiVjgKrgnIZiLVq00B133KEPP/xQ27dv1/79+zVy5Ei7w3I5cuSIJk2aZCpzOBz66aef9PXXX+vtt9/WqlWrNGbMGNM++/fv17PPPms53sSJEy1ljz/+uObNm6dJkyZp9uzZ+ve//23a7nQ6de+991p+76WXXrJ8ln7/+99r9erVeuedd/TFF1/o119/tfTmffzxx6vUGHHDhg06cuSIqaxevXpavXq1PvroI02aNEmrV6+2vCaSqm0uYQAAgGIkfAEAQMhq1KiR/u///k/PP/+8ZdumTZssN7EkY56yzz77TOPHj3cNc9e0aVPVqlVLMTExatq0qYYMGaKHHnpImzZt8vq8bdq0kcPhsMzfK0ljx46Vw+Ew/XjOE+mL5/fGc961Cy+80LJ95cqVuvPOO5WSkqKGDRsqKipKderUUevWrdW/f3/98Y9/1AsvvKBly5Z5Pf5VV12liRMnavTo0WratGm54/KlgoICffTRR7r88svVuXNnxcbGKiIiQgkJCercubOGDBmicePG6f3339f+/fvLPNa6det03333KTU1VY0bN1ZUVJQaNGigPn366N5779XmzZvL/P0hQ4ZY/s87duxQQUGB3nzzTZ199tlKSEhQ7dq11blzZ40fP/6MNyC/+eYbXXvtterevbvi4+MVGRmpevXqqUOHDho0aJBuvfVWvfPOO5ahQkvaunWrHnroIQ0aNMj1t8XHx6tjx4665ppr9Omnn6qgoKDU358yZYrlbyse2nDGjBkaPXq0mjdvroiICNNwfRV1/fXXy+FwaOjQoZZt7777run5hwwZ4trm68/Q3Llzdeutt6pPnz6qX7++IiMjFRcXp3bt2iktLU1jx47Vf/7zH23YsMHra1TSzp07La9fVV6nkgoKCvSf//xHaWlpio+PV1xcnPr166d//etflWrkkpOTo6efflq9e/dWnTp11KBBAw0aNEiTJk2yzL94JgcOHNATTzyhIUOGqFmzZqpdu7aio6PVrFkz9ezZU5dccokeffRR/fTTTzp9+nSpxyksLNQ333wjyUg+XHDBBZZ9KvN/8zRu3Dg99thjOv/88/0273tJp06d0qRJk3TRRRepXbt2qlu3riIjI5WYmKiuXbvq3HPP1T333KPPP/9cR48eLfNYCxcu1Lhx49SnTx8lJiYqKipKiYmJSktL08MPP6y9e/eW+fvF32ueP5Lx/vjXv/6l5ORkxcfHq06dOurVq5eefvrpMueo9eX5euXKlbrrrrvUv39/199Wv359JSUl6cYbbzzjaACPPvpoqd/Ln3zyic477zw1adJE4eHhpnNNRRV/L3gbgnbChAmm5/fscZmenq4PPvhAd911l4YMGaIuXbq4zt116tRRixYtNGLECD3xxBPas2fPGeOozHdJ8WvkbXSQOXPmWF6/qrxOJfnyHCRJR48e1UMPPaSuXbuqdu3aSkxM1LnnnqtPP/20wsfatm2b6fs0OjpatWvXVsuWLdWnTx9dccUVevrppzVv3jyvsZ5zzjl68cUXdeWVV/r0e8BXZs2aZRkpZ8iQITrrrLNc6xEREfrHP/5h+d0pU6aYfvfQoUOWOmTt2rV13333mcrGjRtnOecuWLBAa9euNZV5+1yPHz9eUVFRrvX+/ftbvh9ycnL0/vvvW363vLx9jw4dOlStW7d2rYeFhemPf/yjZb+y6lZnUtVzZnGdyvNn9uzZcjqd+u9//6thw4YpMTFRtWvXVqdOnXTfffcpIyOjzJiqeu0AAACqgRMAACDIPPLII05Jpp/BgweX+TtDhgyx/E779u0t+73yyiuW/Ur7CQsLcz700EOWY7Ru3brcx5DknDx5sk+fv6T09HSnw+FwSnI2btzYWVhYaNo+YcIE1/Yz/YSHh5/x+YoNHjzY8vvbt28v9+9XREZGhjMlJaXcr92NN97o9TgnTpxwjh079oyvR0REhPOhhx5yFhQUlPtvnz9/vrN///6lHrNTp07O/fv3W46Vk5PjHDVqVLn/tuHDh3uN6fTp08477rjDGR4efsZjdOnSxblixQqvx5k8ebJl/0ceecR5xx13WMpbt25dvn+gF9ddd125/2bPz7+vPkOFhYXOm266qdzH8jyfeHuNyvqpyuvkKTMz0zlo0KBSn6dbt27O3bt3l/v59+zZ4+zSpUupxzvrrLOcK1euLPP/Uezbb7911q1bt9yvydy5c0v9O3/77TfXfsnJyaZtVfm/nYm3c3t12bZtm7NDhw7l/jsef/xxr8c5dOiQ84ILLjjj79euXdv5yiuvlBqPt799w4YNzvbt25d6zAEDBjhPnDhhOZavztdZWVnOq666qlzHSEtLc+7YscPrcbzVKSZNmuQcM2ZMud7b5eXte6G0n+uuu871e/fcc0+5f69WrVrOV1991evzV+W7xNtrVNZPVV4nT748BzmdTufq1audTZs2LfV4Y8aMcc6YMaPM/0ext99+2xkZGVnu12T37t3l+pu9fff9/PPPlX8RPfz888+WY3vWQUv617/+Zdn/5ptvtux34sQJr3/z0qVLXfssWbLEsr1jx45enzc5Odmy7/PPP2/ax9v3SXp6uuVY9913n2W/Cy+8sJyvmNXRo0ctdcSBAwda9nvjjTcsz/vAAw9U6jl9cc709r765ptvnOedd16px2nYsKFzyZIlXmPy9bVDye8YX51DAACoaejhCwAAaoS//e1vlrKtW7d6nUuvvAoLC/XUU0/pX//6V1VCq/bn/9///ien0ylJuuCCC0y9Dn/++Wc98sgjru3B6u6779aiRYuqdIzc3FwNHz5ckydPPuPrkZ+fr6eeeko333xzuY9/8cUXa8mSJaVu37Rpk+666y5L+dNPP+3qzVhZhYWFGj16tF566aVy9TDZsGGDBg4cWGa8nt5++2299NJLVYrRDmV9hqZMmaK33nrLhqgqx+l0asyYMZo3b16p+6xdu7bcw4WeOnVK5513Xqk9YCWjF+3VV199xmMdOXJEV199tbKzs8v13GfiOWJByeGcg+3/Vprrr79eW7ZsqdIxDh8+rAEDBuh///vfGffNycnRuHHj9Pjjj5f7+Geffba2bt1a6vb58+friSeesJT74nx98uRJDR06VB9++GG59l+wYIFSUlLOOAJCsQkTJuizzz6rSoi2yM3N1e233+41dl98l/iTL89BkpSRkaFzzz1X+/btK3Wfzz77zOv3cEmbNm3Sn//8Z+Xl5ZXruYNVyd69knTixAlLWWlzr3rWIcp7rNKOV7I+UpXYylu38aZevXq66qqrTGW//fabHnnkER04cEAnTpzQDz/84Br5pFitWrW8TjNTHr44Z3rzl7/8pcwREDIyMjRixAjLCBChcu0AAEAoijjzLgAAAMFv8ODBXssXLVrkdYjCBg0aqEePHkpISFBCQoKioqJ05MgRLVmyxDKc7xNPPKFbbrlFcXFxkqQbbrhBR44c0YIFCyzzdRUPMeup5HpVn7+ksua69DasXa9evdSvXz/VqlVLx44d08aNG7V69eoyh1i1U15enmUoxujoaA0fPlytWrVSQUGB9u/frzVr1pSZ4L/vvvu0YMECU1lERITOOecctW7dWnv27NEPP/xgusn4zjvvaNiwYbrmmmvOGOfBgwcVFham8847T61atdKMGTMs8Xz66ad68cUX1ahRI1dZyf9R8bCiHTp0kGQMk7hu3Tpt3Lix1JtvEydO9Hqjv2/fvkpJSVFGRoa+/fZbnTx50rXt5MmTuuyyy7Rx40bVqlWrzL+teBjRuLg4jRgxQgkJCdqxY0eVGlSMGDFC9erV0549e/T555+btnXt2lUjRoxwrRe/Fp6q+hny9tkYOHCgkpKSFBkZqcOHD2v9+vVat26dJYmelJSkO+64Q5IsifDY2FjdcMMNllir6r333tPMmTMt5e3bt9fw4cOVlZWlb775xjIsZmmeffZZr/v27NlTAwcO1IEDB/Ttt9+W63jffvutZcjy5s2ba8iQIapXr56ys7O1bds2rVq1SpmZmWc8XkXPaeX9vwWKPXv26JdffjGVxcbG6pxzzlHTpk116tQppaena/Xq1UpPTy/1ON6SxrVr19aIESPUpEkTbdmyRbNmzTKdNx555BHLkK2lOXjwoKKjozVq1CglJCToyy+/1MGDB037vPHGG5owYYIiIyMl+e58fdddd2np0qWW8rPPPlvdunXTnj179P3335sScgcPHtQf/vAHy3nem+JzWvFwv3Xq1NGmTZsUHh5+xt8tzZgxY9S7d2+tW7fO8llNTU1VWlqaaz0lJcXy+02bNlWXLl3UsGFDJSQkKCwsTIcOHdL8+fMtQzmPHz9el156qcLC3G38q/JdkpaWpjvuuENZWVmaPHmyaVvz5s0t85V6OydXlC/PQZL0wAMPeB3qduDAgerZs6d27typH374oVzH++STTyzJ3o4dO2rgwIGqW7eusrKytHnzZq1evbrUpGYw8Da39G+//ab8/HzT3Lhz5szx+vueDSy8HWvfvn3avHmzOnbs6Crbs2eP14YkJRtrtGzZ0vJdPmfOHNOxnE6n5s6d6/V58/LyXOelinrppZe0bds207nkscce02OPPeZ1/7i4OH388cdq1apVhZ/LV+dMb3bt2iWHw6ERI0aoXbt2WrduneV/eeTIEd111136+OOPXWWhcO0AAEDIsq1vMQAAQCVVZkhnp9PpjIuLs/xeySEs165d61y0aFGpQ/UWFhZ6Hbp2+vTp5YqzrKHzfP38TqcxzF6tWrWckjFk58mTJ03bzz33XMtwht6cPHnS+cMPP3gdyq80/hrSOT093fI8//vf/7zuu2fPHucbb7zh/M9//mMq3717t2VoxmbNmjk3btxo2m/FihXO2NhY034dOnSw/L+8/e3h4eHOb7/91rXP4cOHnR07drTs98UXX5iOVTKu0obrPHTokPO9995zPvHEE6by7OxsZ/369S3P88gjj5j227RpkzMxMdGy3//93/+Z9ittuOKUlBTnwYMHTfseP37ca6wV4W0ISm/Daxbz1Weo5P/m3nvv9Xq8zMxM57Rp00rdXvJ5fDV8c0n9+vWzPNfFF1/sPH36tGuf7du3ex3OtGRMeXl5ziZNmlj2u+2220xDwi9dutRZp06dM56Pn3zySdP2Vq1aeR3qt6CgwLl48WLn+PHjnatXr/b6d27durXM19JX/zdv/DWk87x58yzPs2bNGq/7btmyxfnCCy84P/74Y1P5ggULLMfo1q2bZdj4H374wRkREWHab+jQoZbn8fa3161b1zRk6/bt250JCQmW/ZYvX+7axxfn6x07dlhi9vb9+ttvv7m+/zx/vvnmG9N+pQ1XfOGFF1rOYb44p5U2LH5pFi1aVOrnwek0huu/7LLLLMcsOSx/Vb9LnE7jf3ymz7sv+PoclJGR4YyOjrbsN3HiRNN+3377rTMsLOyM3zk333yzaXtqaqozPz/f8necPn3a+csvvzjHjRtn+X4sTSAN6bxv3z6v00Bce+21zm3btjmPHz/u/O6775zNmzf3+hm67bbbTMfr1q2bZZ/k5GTnkiVLnCdOnHCuWLHC+bvf/c7rsbp162Y61m233WbZp1GjRs4vv/zSmZWV5dy5c6fzz3/+s9djSXIeOnSoSq9lbm6u8/XXX3c2bty41OeQjOGVDxw4UOnn8cU50+n0/r5yOBzOr776yrSft6Gow8PDnbt27XLtUx3XDgzpDACAb9DDFwAA1BixsbHKysoylZVcL+5tW1BQoN9++01r165Venq6Tpw44erNsXv3bsuxly1bposvvrjKMfr6+WfOnKnc3FxJ0vDhw1W7dm3T9tjYWNP60aNHdfLkScXExJjKi3uFefaqDBQl/wZJpfZ6a968uW655RZL+VdffWXprfOPf/xDnTp1MpX16tVLV155pSZNmuQq27Jli1asWKG+ffuWGecll1yi3//+9671Bg0a6IorrtCTTz5p2q9kD43Y2FgdOXLEtb5v3z4VFhaaem5JUsOGDb32NP7555919OhRU1mHDh308MMPm8o6duyov//977rzzjtN5dOnTz/jMITh4eH68MMPlZiYaCqvW7dumb9XHXz1GSr5vjp06JDXHkFxcXEaPXq0Ro8e7es/pdwOHTpk6e0YFhamV1991RRvmzZt9I9//EO33XZbmcdbvny5pSdcvXr19Nxzz5mGhO/bt6/++te/6rnnnivzeCVfy9zcXB0+fNhyngkLC1P//v3Vv3//Uo/lOZzzhRdeeMbnCuT/W2lKO6d169bNUt6+fXuvQ9CW7BUvSc8995waN25sKhsxYoSGDh1q6nE6e/ZsHT58WAkJCWXGeeutt5rOe23atNHIkSMtvb+2b9+u3r17l/m3eVPa+frrr7+2DOc6dOhQXX/99aayAQMG6M9//rNefPFFU/n06dN1/vnnl/ZnSZLq16+vqVOnWs5hdpzTkpOTJRlDHP/2229av369a+jY4tfBW8/4ZcuWqVevXq71qn6X+JOvz0GzZs3SqVOnTGWdO3fWfffdZyr7/e9/r8suu8zSo7Kkku/j7OxsZWVlqX79+qbyyMhInXXWWeXqMR+ImjRpohtuuMFU55GkqVOnaurUqWf8/ZK9Ox966CHLe2vx4sVlnvNLO9bdd9+tt956y/R/PXjwYLnr4lXteTp79my9++67OnDgQJn7TZ48WYcPH9Ybb7xhGr2lvHxxzizNpZdeavkeveWWW/TWW29p8eLFrrKCggLNmDFDN954o9eYgvHaAQCAUEXCFwAA1Bje5vGKj483refn52vixIn697//rcOHD5f72BkZGVWOrzqev6yhTyUjCTxt2jTX+k8//aTExER1795dnTt3VufOndW9e3cNGjRIDRs2rMBf4j+xsbFKTk423Zy69dZbNWHCBHXr1k2dOnVSly5d1LdvX/Xv319RUVGWY5QceluS/vrXv5Z7vrX58+efMeHrbZ7Bpk2bWspKvk+HDx9uuvn85JNP6o033lD37t1df1vv3r2VmppqudkmyfS6FBs5cqTlJr8kjRo1ypLw9fb7JZ111llq167dGffzB199hoYPH65ly5a51t99911Nnz7d9Nno0aOHBg4caDmP+NuKFSssZd26dVOLFi0s5eWZw9fb8c466yxLg5Hi450p2TJs2DDT+sGDB9W2bVt17drV9Vp27dpVAwYMUPv27cs8VnnOacHyfytNUlKSmjRpYkp4nXfeeWrTpo2SkpJcn/vk5GT16tXL6zDD3s5pZ0pyFnM6nVqwYIFGjRpV5n6VOaf54nzt7ZxUWqyjRo2yJHzLc067+OKLVa9evTPu5w/Z2dl65JFH9Oabb1ZoHmxv57SqfJf4k6/PQd6ON2LECFPy2PN4Z0r4Dh8+XC+88IJrfe3atWrSpIm6devmOs8kJSVp0KBBat68eZnHCnQvvPCCli9fXql5b0smwK+++mrNnTtXr7/+epWP1a5dO73zzjv605/+pMLCwiofryJefvll3XXXXabnbdiwoYYOHaq4uDgtX77c9T1UWFio6dOna+XKlZo7d26F3w++OGeWxrMRoqeRI0dazpOen6FQuHYAACBUkfAFAAA1QkZGhqU3ryRLj8Qrr7zSa8+oM/Gc+7QqfPn8hYWFrnlbHQ6H195wN9xwg6ZOnWpKDpw8eVKLFi3SokWLXGUOh0NDhw7Vk08+aZpnMFC8+OKLOuecc5STk+Mq27t3r/bu3WvquRYfH6/rrrtOjz76qOlm36FDh6r0/N7mBSypdevWljJvc+OWvHH55JNP6ueffzbdvM/IyNDs2bM1e/ZsV1nt2rV1+eWX66mnnjLdUPT2t3mbS6+08mPHjun06dNl3kTs2bNnqdv8zVefofvvv1/Tpk0zzSWYmZmpefPmad68ea6yiIgIXXDBBXrqqafUtWvXygdeBd4S296SvWWVV+fxunXrpjvuuMM0n3FBQYHWrFmjNWvWmPZNSkrSAw88oGuvvdZynGPHjrnmY4yLi9OQIUMs+wTT/6004eHheuWVV3TllVea5hnesWOHduzYoW+//dZV1qhRI91666168MEHTcmwQD6nVcf5uiLntJLzDHsTKOe0vLw8nXvuueWad7ikkue0qn6X+FOgn9POP/98XXLJJZo+fbqr7PTp01q+fLmWL19u2jclJUUPP/zwGRtQBKq6detqzpw5euCBBzRp0iRLT2nJ+LwkJSXpo48+MpV7S/a99tpr6t69uyZMmOD1s9yoUSNdffXVloYa3o519dVXq2nTpho3bpzXuZdr1aqlcePG6dVXXzWdb2JiYrw2HiiP5cuXW5K9/fr108yZM03nqWeffVYPPPCAa3379u0aP368/vvf/1b4Oat6zixNaedNb58Bz/NGqFw7AAAQiqzN+gEAAEKQ581MTykpKa7lb775plKJIsnoEVVVvn7+RYsWuYaaS05OVpMmTSz71KpVS7Nnz9Yzzzyjjh07lnn8WbNmafDgwaakSaAYOHCgVqxYoWuvvVZxcXGl7peZmamXX35Zw4YNswzhXBXl6XXlbXhUbz3zSurYsaNWrVql2267zdJAwVNOTo6mTp2qAQMGmIbt9IdA6Qnny89Qw4YNtXTpUj344INlJgDy8/M1ffp0DRgwQFu2bKnUc9cEL774oj7++GMNHDjQa+/yYuvWrdN1113ntcfe999/7/rcjhw50jJMsxQ6/7cxY8Zo/vz5Gj16dJmJiYMHD+rxxx/XmDFjfPr81XlOs/t8XR6Bck578803K5XslazntGD4Lgkmn3/+uV5//XXXcOWlWbRokS688EJ98skn/gmsGsTExOiVV17R7t279eGHH+rRRx/Vvffeq4kTJ+rXX3/VypUrvZ6nShv55LbbbtPOnTv13Xff6amnntK9996rCRMm6KuvvtKuXbvUp0+fch9r6NChWr16tebPn68XXnhBDzzwgB566CFNnTpVu3fv1u23325KlJZ1rPKYMmWKpRGLtwTrfffdZxnC+YsvvjA14imvQDtnhsq1AwAAoYgevgAAoEZ4+eWXLWUdOnRQmzZtXOtffvmlZZ+0tDRNnDhRvXr1cg3/+cMPP5RrWNSK8vXzn2no02K1atXSAw88oAceeEB79uzR6tWrtXnzZm3cuFFz5swx9Zo4ffq0HnvsMf3www8V+dP8olOnTnr33XddPQfXr1+vrVu3au3atfruu+907Ngx174rVqzQZ599pquuukqSvM6rNmbMmHL3bjr77LN98jeUpmnTpnr11Vf1yiuvaMOGDVq3bp22bNmi9evX6/vvvzfNIbd792698cYbevDBByVZe7EX7+ONt/J69eqdcYhAb8Ni2sHXn6H4+Hg99dRTeuqpp7Rt2zatWbPG9br/9NNPpvmWMzMz9dxzz+mNN97w3R9UTt4Sb3v27PG6b2nl1Xm8YldccYWuuOIKHTt2TCtXrtTGjRu1ZcsWLV68WHPmzDElqB577DHdcccdpvdeec9pwfJ/O5Pk5GRNmzZNp06d0urVq13ntFWrVun77783JTG+/fZbzZ8/XwMGDJBknNPWr19vOt4NN9zgdT5Ib86UxKqqqpyvq3pOK888moF8Ths1apQeffRRde7c2fX/fOONN/TnP//5jMeryneJPwXDOS0sLEy33nqrbr31Vh06dEgrV67Upk2btHnzZv3222+mno5Op1P//Oc/dcUVV5Tr2IEqMTFRV155paX89OnT+u6770xlkZGRSk1NLfVYtWvX1siRI71+F3t73//ud78r9VgOh0NpaWlee5G+8sorFTrWmWzcuNFS5m1KC4fDodatW5tGFDhx4oQOHjzodej7M6nKObM0pZ03vX0GSvawDpVrBwAAQg0JXwAAEPKee+451zCgnu644w7T+q5duyz7vPrqq+rXr5+pzNvciN546+lUVst+Xz//119/7Vr2NpyzNy1atFCLFi1c83o5nU6dffbZ+vXXXyv8/HYJDw9Xr1691KtXL1fZli1bLL0QFi5c6LoZlpycrHfffde0vXfv3vr73/9+xucrKCgoV682X3A4HOratatpCNpjx46pRYsWOnHihKvM83+UnJxsOc7333+vwsJCS09Lz6Fiy/r9QOXrz5Cndu3amW7qnj59Wl26dDElD70dNywszNQbqDK9e87EW3Ju7dq1Sk9PtzRaKM8NV2/Hmzt3rnJyciy9uCpzA7devXoaPHiwBg8e7Cr7xz/+oSeffNK1np2drXXr1rliyc/PdyUUIiIiSp17sKTK/t8CSXR0tPr376/+/fu7yn788Uede+65pv0WLlzoSvgmJydrzpw5pu3Dhg3TNddcc8bn8+c5rbLn66lTp5q2f/vtt7rnnnssxw/Fc9q7775rSWBW9D1cme8SqeL1msry9TnI2/Fmzpwpp9NpSe5X5pyWmJioc845R+ecc46r7I9//KPef/991/qmTZt07NixgOk97ksvv/yyZRj4yy+/XHXr1q3wsRYuXGgaKluSWrVqZXpty+vo0aN69tlnTWUOh0PXX399hY9VzNvIEtu3b1dSUpKprLCwUDt37rTsW9mhpItV5pxZmu+//1433nijpdzbZ6CsRkChcO0AAECoYEhnAAAQsg4cOKC//vWvuv/++y3bOnXqpJtvvtlU5q0X48qVK03rc+bM0cSJE8v1/N5udK1bt67U/X35/Nu3b3fNjdmmTZtS5yOcNGmSnn76aW3evNnr9lOnTikzM9NSFmjGjh2rTz75xBJrMc9eS8U8/44LL7xQERHmtpBPPPGEKWnuqbCwUAsWLNA999xTZg8WX7jnnns0efLkUufkPHbsmOV/4rk+dOhQy1CDW7Zs0eOPP24q27x5s5544gnL8S+55JJKRu5/vvwMPfXUU64hLL3Jzs42JUYk75+NkueBAwcO+HyY1MTEREtSu7CwUOPGjTMN67hr1y6v/+OS+vTpo8aNG5vKjh07pvHjx5t64a5YsUL/+c9/zni8hQsX6m9/+5sWLlxoGQqz2Jk+o3PnznX1YBo0aJAaNGjg9Ti++r/ZqaCgQJdffrm++eYby1Ckxc70el166aWW7XfccYfmz5/v9Xh5eXn6+eefdcstt1T7Z746ztezZs3SlClTTGULFizQ66+/bjlWqJ3TPv74Y0uDJW+q+l0iea/XbNmyxefDx/r6HDR06FDLa7lhwwa98MILprIZM2bos88+O+PxvvzyS/3973/XqlWrvG4vLCw0zXlaLNDONeWxZ88eTZw40eu83gUFBXrllVcsvcDDwsK8NsCQpEceecQyd3uxH3/8URdffLHle+Luu+/22tjgzTff1I8//ui10cHWrVs1cuRIS2/Viy++WJ07d7bsP3v2bDkcDtOPt8Rwhw4dLGUTJkywnM+ee+45y3zhiYmJlUr4V/WcWZrPP/9c//vf/0xlb7/9tql3umQkmUeMGOFaD5VrBwAAQhE9fAEAQEjYsmWL7rzzTjmdTmVmZmrTpk1avHix8vPzLfvGxsZq+vTpio6ONpX369fPkuC75ZZb9Pnnn6tly5batGmTZs+eXe75er3Na/Xyyy9r69atatWqlcLCwhQdHe1KPvny+T2HPi2rd+/OnTv15JNP6qGHHlKLFi3UrVs3NW/eXDExMTp69KjmzJljuVnWqVMny3EWLVqkDz74wFTmbV7Mxx57zDT/WIcOHXT77bef8e85k5kzZ2rKlCmKiIhQUlKSOnXqpISEBIWFhWnnzp2aNWuW5Xc8/45WrVrp5ptv1muvveYqy83N1UUXXaSuXbuqV69eSkhIUHZ2tnbs2KFVq1bp6NGjkqTWrVtXOf6yLFy4UC+88IIcDoc6d+6srl27qmHDhoqMjNS+ffv0448/Wt7nnn9bnTp1dN999+mhhx4y7fPoo4/qq6++UkpKig4fPqxvvvlGJ0+eNO3TqlUr3XDDDdX3x/mYLz9D69at0/vvv6+//e1vateunZKSktSkSRNFR0crIyNDP/30k+WGvrfPRseOHbV06VLXel5enlJTUzVkyBDVqVNHknEDeujQoZX5k13+9re/6brrrjOVffHFF0pKStKwYcN0/PhxffPNN8rKyjrjsSIiIvTXv/5VjzzyiKn85Zdf1pw5czRgwAAdPHhQ33zzTblu4h4/flyvvPKKXnnlFdWrV089evRQ27ZtFRsbq5ycHC1btkwrVqww/U5YWJjat2/vWi/vcM6++r99//33+v77701l3hL1d955p2k9JSVFV199danxlYfT6dRnn32mzz77TNHR0erevbs6duyo+vXrq7CwUFu2bLH03i35dwwYMEC///3vTcOsHj58WAMHDlS/fv3UpUsX1atXT5mZmdq2bZtWrVrlmrfXs+d1dajq+bp169a64YYb9Oabb5r2GTt2rCZPnqxu3bopPT1d3333nSURmZKSovPPP796/rBq0K9fP61evdpUNmrUKJ1//vlKSEjQqlWryt1zrqrfJZJUv359JSQk6PDhw66y/fv3Kzk5WWlpaapVq5Yk43/h2QOxonx9DmrYsKGuueYaTZ482VR+77336osvvlDPnj21c+dO1+gXZ3Lo0CHXsPGJiYnq0aOHWrVqpbp16+r48eOaP3++Nm3aZPqdevXqWYYj37Jli1599VVTWclkm2SMVOHZ67VBgwZ6+OGHzxinL2RnZ2v8+PF66KGH1KtXL3Xv3l1xcXE6fPiw5s6dq/T0dMvvjB8/vtR5ct944w099thjateunfr166fExESdPHlSS5Ys8ZoIPuusszRu3Divx5o1a5ZuvfVWNWzYUKmpqWrZsqUKCwu1YcMGzZs3z5IIbtiwYbkaCJTl0ksv1YsvvmgqW7x4sTp27KihQ4cqNjZWK1asMH3vF6vsXOtVPWeWxul06qKLLtJ5552ntm3bav369Zo9e7Zlv9GjR6tly5audV9dOwAAgGrgBAAACDKPPPKIU1Klftq2betctmyZ1+Pu3r3bWbt27TMe47zzzrOUXXfddZbjZWVlOWNiYso8Vp06darl+YcPH+7aNnPmzFJfy7///e8Vfg1fe+01y3EmT55cqf/H4MGDy/U/P5PmzZtX6Hnj4+Od+/btMx3j5MmTztTU1Ar/Da1bt7bEM3jwYMt+27dvL9fr9sgjj5j2GTRoUIXiiYyMdK5atcp0jPz8fOeoUaMqdJyYmBjn4sWLKxWzL/3888/l+rw5nb79DF1zzTUVfi989913lpj++c9/nvH3nnvuuSq/ToWFhc5hw4ad8blatmxZrvdwTk6Os2vXrpU6XsnP9cyZMyv8Wv7hD38wHaN9+/aubZs3by71dfDV/62y3zOlvTcrIi8vr8LP26ZNG+fJkydNxzl48KDpdSvvj7fzcuvWrS37eePtdZs8ebJpH1+cr0+cOOHs27dvhY7TqFEjr+fh8sTsSxU5hy5evNgZFhZ2xr9txIgRZzymL75LnE6n809/+tMZf/fTTz+t8uvky3OQ02l8Hho1alSp45X8XE+aNKnCn6sHHnjAEpO377fy/Hg7Z5eHt+c703t9/fr1FYrt6quvdubl5ZV6vMaNG5f7WD179rR89j394Q9/KPex6tev75w3b16FXpvSzucVed7inyZNmpT5t5TFF+fM6667zrJfUlJSuV633bt3m47lq2sHTyW/Y3x1fQAAQE3DkM4AAKBGiI2N1d/+9jctXbpUffr08bpPixYt9N5771l6/nr6y1/+ovHjx5f7OcszfKqvnz8zM1O//PKLJCkuLq7M3lol564ri8Ph0N13361bb7213L/jLxX5Oxo2bKgvvvhCTZo0MZXXrl1bP/30k2666SbL3LaliYyM1LBhwyoUa0VV5G+rU6eOpk6dqh49epjKw8PDNW3aNN1xxx3lmpuzS5cu+u2330xzhgYDX36GK/K6R0ZG6vnnn9fIkSMt2+688061adOm3MeqLIfDoc8//1xpaWml7tO6dWvNnDmzXMerVauWfvjhhzJ75fTq1atcw59W5LWUpOHDh5uG4l23bp22bt0qyXhvehtSszLPVdb/zU4Vfb3atGmjr776yjI3ZGJiohYsWKCLL7643MeKiYnRWWedVaHnryhfnK9jYmI0e/bsM85RWSwtLU0LFy70y2fRl/r3768XX3yx1O8kh8Ohp556qlyvgy++SyRjSN6S0wRUB1+egyTj8zBjxgzLUNGeSp57SlPRz+jVV1+tCRMmVOh3gk3dunX11FNP6b333rMMuV5RYWFhuu666/TLL79YPvuVMWjQIP36668aOHBglY8lSVOnTtVNN91U7vdBnz59NHv27Er/Lb44Z3rz4osveh3+v1hCQoK+//57tWjRotLxBPK1AwAAoYghnQEAQMgICwtTZGSkYmJi1KBBAzVv3lydOnXSwIEDddlll5mGEi7NpZdeqiVLluiZZ57RrFmzlJGRoQYNGqhv377685//rIsuusjrcGelueuuu9ShQwe9/vrrWrJkiY4cOeJ1mGlfPv/333/vGsZy5MiRioyMLHXfRx55RCNGjNDs2bO1ZMkSbdq0Sfv27VN2drbCw8MVHx+v9u3ba9CgQbruuuu83vwNBCtXrtTMmTP122+/acWKFdqxY4cOHTqkU6dOqVatWmrUqJGSkpI0cuRIXXfddaW+F+rUqaNJkybpgQce0JQpUzR37lxt2rRJR48eldPpVHx8vNq2basePXpo6NChGjlypBISEqr1b/vuu+80a9YszZ07V8uXL9e2bdt08OBB5eTkKDo6WgkJCerSpYvOOeccXX/99aXezI6KitKLL76ocePG6e2339bs2bO1ZcsWHTt2zPUapaSk6JJLLtFll11WrsRwIPLVZ3jSpEn605/+pF9++UVLly7V1q1btX//fp04cUKRkZGqX7++OnXqpMGDB2vs2LFq27at1+M0aNBAixYt0nPPPafvvvtO27dvt8wh6yv16tXT3Llz9cYbb+jdd9/V+vXrJUlt27bVpZdeqnvuuUexsbHlPl7Lli21YsUK/fvf/9ZHH32krVu3KiIiQp06ddJVV12l22+/XXv37j3jcYYPH641a9boxx9/1KJFi7R+/Xrt3r1bmZmZcjqdqlu3rlq1aqV+/frpiiuusCRgPYfpLms4Z8l3/zc7hYeHa+/evZoxY4bmz5+vVatWaefOnTpy5IhOnz6tmJgYNW3aVN27d9cFF1yga665ptRGDg0bNtT06dO1YsUK/fe//9W8efO0fft2HTt2TGFhYapXr57at2+vXr16afjw4RoxYoTXeVp9yVfn69jYWH3wwQe6//77XefrnTt3KjMzU3Xq1FHTpk01YMAAr++pYDJu3Dj17dtX//rXvzRv3jwdO3ZMjRo10oABAzRu3DidffbZlvmLvfHVd0n79u21bNkyPfvss/rxxx+1Z8+eUuearipfnYOK9erVS+vWrdOzzz6rL774Qrt27VJMTIy6deum6667TjfccIPX4dJLuuGGG9SrVy/NmjVLixcv1oYNG5Senq7jx4/L4XAoNjZWbdu2VWpqqq6++moNGjSoKi+Drdq3b6+vv/5as2bN0vz587V//35lZGQoPz9fiYmJ6ty5s0aOHKk//vGPZSbTi02fPl0zZ87UL7/8op07dyojI0PZ2dlq0KCBWrVqpXPOOUdXXXVVueqbTz75pAYNGqSff/5ZGzduVEZGho4eParY2Fg1bdpUv/vd7zR69Gidd955vngpXKKiojRp0iTdcccd+uCDDzRv3jxt3LhRmZmZys/Pd32n9enTR5deeqlGjRpVpTqVr86ZJUVGRurzzz/Xhx9+qLffflsrV67U8ePH1bJlS1100UUaP368ZRhyKXSuHQAACEUOp7Ock9ABAAAgKFxzzTWu+XTfe+89XXPNNTZHBACVN2jQIP3222+SpF9//TWokycAYJfZs2db5os/99xzlZSU5Fq/77771Lx5c3+Hhmp2/fXX69133zWV/fzzzxoyZIgt8bz99tum+cnfeecdHT9+3LU+ePDgCjWwBQAABnr4AgAAhJD8/Hx99913kqSIiAidf/75NkcEAJV36NAhLViwQJIxJOuAAQNsjggAQsfMmTNNQ/1ff/31JHxR7b7++mt9+eWXdocBAEDIIeELAAAQQo4cOaK//e1vkqTGjRv7ZZ49AKguR48e1T//+U9JUufOncs9vzYAAAAAADUJCV8AAIAQ0qhRIz366KN2hwEAPtGpUyfOaQAAAAAAnAEJXwAAANjuiy++0IMPPljh37v99tt1++23V0NE8JUuXbpU+HeaN2+un376qRqiCVyvvvqqXn311Qr/3tNPP63Ro0dXQ0SoCv6foSk9PV3Dhw+v8O+lpKRo6tSp1RBR4HrwwQf1xRdfVPj3pk6dqpSUlGqICEOGDJHT6bQ7DEDTp0+3OwQAAEISCV8AAADYLjMzUxs3bqzw72VkZFRDNPClyvxfc3NzqyGSwJaRkVGp1yozM7MaokFV8f8MTXl5eZX6vzZp0qQaogls+/btq9RrdfLkyWqIBgAAAAh9TIAEAAAAAAAAACFoypQpcjqdpp8hQ4bYHRYAAPAxh5PxXEJCYWGh9u7dq9jYWDkcDrvDAQAAAAAAAAAAAOCF0+nU8ePH1axZM4WFVb1/LkM6h4i9e/eqZcuWdocBAAAAAAAAAAAAoBx2796tFi1aVPk4JHxDRGxsrCTjjREXF1etz5WXl6cZM2ZoxIgRioyMrNbnAlBxfEaBwMXnEwhcfD6BwMZnFAhcfD6BwMXnEwhsfEZrtqysLLVs2dKV36sqEr4hongY57i4OL8kfGNiYhQXF8dJCAhAfEaBwMXnEwhcfD6BwMZnFAhcfD6BwMXnEwhsfEYhyWfTtFZ9UGgAAAAAAAAAAAAAgC1I+AIAAAAAAAAAAABAkCLhCwAAAAAAAAAAAABBioQvAAAAAAAAAAAAAAQpEr4AAAAAAAAAAAAAEKRI+AIAAAAAAAAAAABAkCLhCwAAAAAAAAAAAABBioQvAAAAAAAAAAAAAAQpEr4AAAAAAAAAAAAAEKRI+AIAAAAAAAAAAABAkCLhCwAAAAAAAAAAAABBioQvAABB5PRp6dQpu6MAAAA4s9OnjR8AAAAAQPUi4QsAQBDYt0/63e+k6GipVi2pTx9pyxa7owIAIECdfbY0Zoz06qt2R1Ij7dwpJScb9ZboaCktTdq92+6oAAAAACB0kfAFACAIPPWUNG+ee33FCunvf7ctHAAAAtehQ9LcudLnn0sff2x3NDXSww9LS5a41xculB5/3L54AAAAACDUkfAFACAIrFtXvjIAAGq8hQvdy6mp9sVRg1FvAQAAAAD/irA7AABA8Jo7V7rjDunIEekvf5Huv19yOCp2jIIC6YEHpA8/lPbuPfP+8fGVizXYHT9uLVuzRnI6K/6aAwAQ0oI44TttmvSPf0jr15vLf/1V2rzZGPFj8+bSf79WLaNulZfnLmvVSsrJMTo+lyY+XsrMLH1bWU6dknJz3euxsVJ2tnW/efOotwAAgMBy+LB0ww1GXaugQGrZUnruOWnkSLsjA4CKI+ELACib0yllZEiJiZbiq6+W9uwx1sePl4YOlVJSKnb4L76Qnn++/PuXdjOyppo3z5jbFwAAFAnShG92tlG3OnXKuq283/Weiddiu3ad+ffKql9VtO7lrZFasQULpAEDKnY8AACA6vLww9JXX7nXMzOlK6+UDh6UoqLsiwsAKoMhnQEAZdu9W2rUSGrXTnr6aVdxRoY72Vvs558rfvjly6sYXw3H6wcAgIfCQmnRImO5SROjm0aQ2LDBe7I3lCxbZncEAAAEmCuukEaPlp55xqjHwK+83VPJzJS2b/d/LABQVfTwBQCUrbiXzPbt0okTkqT0dOnii627TpggTZ5cscMfPFjF+Gq49HS7IwAAIIBs2uTukpqaKjkcysqS7rzT6F0ayPdRT560O4LqR70PAAAP+fnSN98YlYAVK6Tx47VokTG9w65d0saN7l1btpTCw6UdO4z1bt2kLVvcjcVq1ZJat7Y+hdMZoRMnhqlOnQimVfCi+PUsad06qXNnv4YCAFVGwhcAUDYvwyLedJO0dKl115wc8wVJdWjc2Jjfrqa67TbjOrDYxIlGQ2CX7Gypbl1/hwUAQGAo7t0rueot48dXvEEazG66SRo71vu2QYOsZfPmGY8l6y2PP240EAQAAJLWrHG3+EpNVUGBdNFF0oED1l137zavr11rXs/NLe1+jENSrA+CrVkuuyywGwoCgDckfAEAZfOS8F2wwKZYJLVtKw0caN/z261JE/O6q8Xp888bd7PXrTOuBJs393tsAADYLsDqLcGiTh3XQC5epaaWXv+66CLz3Hf33efet1498779+1cpTAAAQkuJesuOHd6TvfA/ekMDCEbM4QsAKF1enrsrb5s2UqNGcjqlY8fsCScsTLrrLnueO1AMG2Zed7Xgzcgwmvg6nebeTQAA1CTFN04dDld2kfnuyxYXJ82ZU/r29u2lSy4pffsTT0gNGxrL7dqZ62oDBpj3Xby40mECABB6SiR8f/rJvlBgVlgonT5dorCgwJZYAKC86OELACjd2rXGOM2Sq5fMRx9Zd7vlFum886r2VIcPS9HRxk3H/Hzp//5PevhhY5jABQuM7X36GHnnmqzo32By+LCUkJLiLli0SBo92n9BAQAQCHJypJUrjeWuXaW4OP3yi3W3hx+WevXyb2gVkZNjjO544oS0c6eRNI0ounIPDzdG+zh0yJjL78MPjXpAaqrUoIExf9+AAdKePcb8f716Sb17Gz1tBwyQ0tON/ZOTjWrezp3G7yYmGjc1J00yhoTMzpbi46WkJOP3ypotokcPY4CRLVuM+QTj4tzbSiZ8JaM9YWRk0crJk1JMjI9eOQAAgkzxMCQREcru2Ee3epkmoSK6d7dOnZCfn69ly5apb9++ioggFVCavDzpyivNZZ9/Ll112WnpL38xkvNNmkg//mhPgABQDpzlAQCl8zIs4ty51t2eeUaqX9+3Tz1mjHv57LN9e+xg1qiRtWzhQun8kglfAABqmuXLjVZjkqveMnu2dbfRo40kaCgoLXFdv7705ZfW8g4djB/JSNT26OHeFhkp/fWvlYsjMdH4KclbvWXtWqn3t08Z2eoNG4wMtGeWGACAmiAz0/gelKTevbV0Xe0qH/Lss6VLLzWX5eU5FR29T+ef73Q3uIJFcV8HT0uXSlddFSXNmGG0ptu1y+jlGx7u/wABoBwY0hkAUDrPhG9RQnH6dOtuvk72onSuOXs9vPmmjDl7i+ftXbzYGH8IAICaxEtDtfXrrbv17OmneOB1zt41a2TcNF2zxkjQF08fAgBATbJ4sTElkySlpurgwdJ3dTik556TmjUrfZ+wMGnsWN+GWJPU9pJvd/1PihvYHz/uTtIDQAAi4QsAKF3xjdOICKlvXy1cKO3bZ97loYf8H1ZN5nCYe+NIRg+eTz4RFyEAgJqtRMLX6bRORXHddcYNUfhHeLgxnLSnP/1JKkz2mKPC8/8GAEBNUaLecs011l2ys6UvvpCWLJHuvdcYzGTqVOmJJ4wE8EsvSddfLz3/vLR5s/eGVii/O+80r//3v0ULjKgGIEgwpDMAwLusLHe3mJ49pdq19cMP1t2aNPFvWDDm7Fu92lz27bfSFSkpxtWgZFyEJCX5PzgAAOxSfOM0Jkbq3l3bt1t3KR4MA/7TurV07Ji5bGfjFLUtXuHGKQCgJiqR8C05SFeXLlKdOtIll7jLGjUyGk6hengb8trplBypHg3VFi2iKzWAgEXbZgCAdyWGF5K8zwV3wQV+jAmSpKuvtpZt3izX/0kSN08BADXLwYPSjh3Gcr9+UkSEdu2y7jZmjF+jguS1x9LB+p3d8/ZSZwEA1DROp7RggbFcv74ON+ioggLzLsOG+T+smu7ss61ly5fLqFs6HEYBI5MACGAkfAEA3pVobTpjhrRsmXmXESOktm0FP7vmGunCC81lv/0mFfbhIgQAUEN5mb/X243SPn38FA9c7r3XWvbc82FScrKxkp5u/AAAUFPs2CEdOiRJcqamashQh2WXu+/2c0xwVU089esn7cuOdY+gtmqVlJPj38AAoJxI+AIAvPPsbZGaqmnTrLt4TmMC/7r0UmvZuj1xUteuxgoXIQCAmqREvWX/fvdAJcVatPBvSDA4HFKDBuayDRvEfHgAgJrLo6FaZudUrVlj3SU+3o/xQJIx+IjDmnvXjz/KPaJaQUFRt18ACDwkfAEAVk6n+wIkPl7q1Elbt1p3GzXKv2HBbfhwa9mbb0qF/YtunubnSytW+DUmAABs49nDNyVFhw9bd/GcAw/+FR1tXl+7Vvop22MqCkYmAQDUJB7fexntUy2bf/c7qWFDfwYESapdWxo50lo+YYJ0oA0N1QAEPhK+AACr3bul/fuN5eRk5RWEGS0aPZx/vpSW5v/QYGjZ0lr2yivSuxuYxxcAUMMUFrq/85o0kVq21N/+Zt3t3//2b1hwe/lla9kfX+HGKQCghvJI+L6/2Tp02pdf+jMYePr4Y2vZ1q3SpU97/J9oqAYgQJHwBQBYlZgHb/Fi6y4XXOC/cOBd69bWslcWcRECAKhhNm2SMjON5dRUyeHQrFnmXerUkSIi/B8aDPXrW8v2q6l2qagF2+LFxhCJAACEutOnpWXLjOUOHTRjaYJpc0KCdSoE+E9srHT11dbyRTndlRdRq2iFhmoAAhMJXwCAVYmE76FD1l2GDvVfOPBu505r2Wr1kLMWFyEAgBqkRL2l5Ny9ktS+vf/CgVWKtfOSJGmRijZkZxdN7AsAQIhbuVI6dcpYTkuzzBnrbVoK+NeIEdayfEVqd2I/Y2XbNikjw79BAUA5kPAFAFiVuHH64ovWXbp08Vs0KMVzz1nL8hWprA59jZWtW7laBACEvhL1luxs6y7vvee/cGAVG+u9fKGYxxcAUMOUqLfMm2fe/Oqr/g0HVtdeK02aZC2fvo/pKAAENhK+AACz/Hxp6VJjuU0bqVEjywVIcrLfo4IXCQney9fV4SIEAFCDFN84dTik/v29fvU1buzfkGDVsaO1zNXDV6LOAgCoGTwSvgfapFo2Jyb6Mxh443BIN90k3X+/uZx6C4BAR8IXAGC2Zo2Uk2MspxoXH3l55l28DZUI/xs4UJbhnyRpTzMuQgAANUROjrRqlbGclCTFxSkry7obN0/td/nl1rKl6qdCR9FtCXr4AgBqguLvu+ho7W7Qy7J5wAA/x4NSRUaa15dFeCToudcCIACR8AUAmHnebEtJ0ZdfWnfxNpQw/K9zZ+mzz6zlT84k4QsAqCGWLTNGJ5FcDdVKfvXVquW9gRT86+GHpfvuM5edUF2tVTdjZfVq6eRJ/wcGAIC/HD4sbd5sLPfpow3boiy7tGzp55hQqtGjzeub89uooH5DY2XRInpDAAg4JHwBAGYl5pOZONG6S2lDCcP/Lr1Uuu02c9nK7HbufxIXIQCAUFai3iJJv/xi3qVPHz/Gg1JFR0vPPitNmGAuX+As6i1TUGAk8AEACFWerdLS0vTjj+bNJHsDS926JUsc2tygqIH94cPStm3+DgkAykTCFwBgVnzjNCJC6ttXu3ZZd+nUyb8hoWzh4eb16GiHlFJ0EZKRIW3f7v+gAADwB88bp6mpKigw7r95WrrUvyGhbMUzhxRbX5eRSQAANUSJhmqxsebNu3f7NxyUrV07axn1FgCBjIQvAMAtK0tav95Y7tlTOw7UVnq6eZd//tPooYHAcfPN5vVTp6T8vlyEAABqgOIbpzEx2h7TTR06SBs3mnd58EH/h4XSXXyxef3HbI/58JjHFwAQykokfCdPNm+++mr/hoOyRUZKgweby95YyTy+AAIXCV8AgNvixe7hf1NT9dpr1l0uusi/IeHM4uOtZUsjuAgBAIS4gwelHTuM5X799J83I1yrnpo29WdQOJOSvZnWKUnOmBhjhToLACBUOZ3uhG9iotSmjU6cMO/Svr3/w0LZRo0yry9WsnuFhmoAAgwJXwCAW4lhEbdsse7SubP/wkH5eLuRvaCAixAAQIgr0UumtGnUevb0Tzgon5IN1QoUobye/Y2VHTuMRD4AAKFm82bp6FFjOTVVTjksu0RE+DkmnFGPHub1I0rQyWZFmflly6S8PP8HBQClIOELAHDzuHE6JydF06aZN/fqZe2VAft5uyi884mG2h5WNOEMFyEAgFDkUW9xpqRa6i3F0tL8FA/KJSHBWpadxFQUAIAQ59lQLS1N995r3eUPf/BfOCifESOsZetii0ZUO3VKWr3avwEBQBlI+AIADJ7DC8XH66bnrF15S84Vi8BxwQXWsgWFRTdPc3OlNWv8GxAAANXN48bppvqppe7msHaggY1q1ZLCStyJWBLOPL4AgBDn8f22t2WqXnjBuou36Zpgr7Awo/ODp/9upKEagMBEwhcAYNi9W9q/X5Lk7J+sLdusXxFduvg7KJSXt6G2F4p5fAEAIaqw0P3d1rSp1hxr4XW3iy7yY0woF4fD+Pd52t+KG6cAgBBXnPB1OLSmdrJlc4MGUsOGfo4J5VJQYF5fGeVRb6GhGoAAQsIXAGDwqKTm9rb2kjn3XGnIED/Ggwq55x4pJcVctkhchAAAQtTGjVJWlrGcmqpf5lq78bZtKz35pJ/jQrlERprX12S2lJo0MVYWLbJmhAEACGY5OdKKFcZyly56Zaq1K+///R9z+Aaqxx4zry883VuF4UX/LBqqAQggJHwBAAaPhODcU9aE74cfSuHh/gwIFdG0qfEvXLfOXbZcfZQnLkIAACHIsyFTaqpeftm8uVcvaetWqXt3/4aF8inZ8/qttx3ulmvHjklbtvg9JgAAqs3y5VJ+viTpdJ9U/e9/5s19+khXXmlDXCiXvn3N67mqrdWOonGe1693N0IEAJuR8AUAGDwSguvjrAnfevX8GAsqrX1793KuamuVehor69ZJx4/bExQAAL5WIuEbFWXeXKcOc/cGsp07zet9+khKZR5fAECI8vheS2+ZZtncoYM/g0FFNW5sLZuXX9RQzemUlizxb0AAUAoSvgAAo6Xp0qXGcps2WrG3kWUXevcGh5I3vF3DOnMRAgAIJcUN1RwOHWrdX6dPmzfffbf/Q0L5/f735vVZs6QlYczjCwAIUR4J39Ux1gb2Dz3kz2BQUbVqSfffby4zTaFFvQVAgCDhCwCQ1qyRTp40llNSNGWKefMNN/g9IlTBLbe4l7kIAQCEnJwcadUqYzkpSeMeirXsUnJeewSWrl2tZZc8mexeoYcvACCUFH+vxcToD4+b55to0ULq3dv/IaFiSiblF8ojcc+9FgABgoQvAMAyLGKLFubNjAQcXIqmBpLERQgAIAQtW+b+sktN1aZN1l0aNvRvSKiYVq2sZenZ8cpt28VYWbFCOnXKrzEBAFAtDhyQduwwlvv1U3xChGlzyVFKEJjq1jWPfLdRnZWlokaH3GsBECBI+AIATAnfuz9O1Z495s0XXujneFAll17qXuYiBAAQcko0VFu+3Lw5KUmqXdu/IaFiUlOlc8+1lh/vUtQ1Oy/PSPoCABDsStRbDhwwb775Zv+Gg8oJD5cefdS97lSYFqtodJL0dOMHAGxGwhcA4LoAyVOEXlvU17I5KcnfAaEqunRxLxcqXEvU31jZs0fau9eeoAAA8JUzzIP3/PP+DAaVEREhff+9tXxGJiOTAABCjEe9ZUeTNMvmK67wZzCoir//3bzOFFoAAg0JXwCo6bKypPXrJUmr1FO5snaJadLE30GhKhITzetchAAAQorHPHg/7e9m2dy0qZ/jQaWEebkbsbMxdRYAQIjxSPj+csraUK1xY38Gg6pwOMzrTKEFINCQ8AWAmm7JEsnplFSisuqheXN/BoSqioszr3MRAgAIGQcOSDt3Gsv9+2v56gjLLj17+jkmVFrJuZYf/aKnTodFGyueQ2ACABCMCgulxYuN5WbNtCKjhWUXEr7BpVMn97KpcT31FgABgIQvANR0HpVSU2W1SF/rCM8IAvfe6172/L8e/4mLEABAEPOotzhTUjV1qnnzFVdYe18gcN1+u3k9T1FaWtjHWNm8WTpyxP9BAQDgKxs2GKOqSVJqqv79b/Pmiy/2f0ioGs95fPepmfaoqIfEkiVSQYEtMQFAMRK+AFDTedw49dbDl2ERg5NnK+G9aq50NZMkRa1cbLQyBgAgGHnUWw62tdZbmIYiuJSchkIqUR8t7hUFAEAwWrDAtXiqt7XeUreuP4OBL5Ssu7jqLcePSxs3+j8gAPBAwhcAajKn03XjNDsiXhvV2bTZ4ZDGjrUjMFTVpZdK9eq514svQqJPcRECAAhiHlMTfHfEeuP0j3/0ZzCoqosusg7rbBpxhqkoAADBzKOh2tRNaZbNf/iDP4OBL/zud1KYR0aFeguAQELCFwBqst27pf37JUnz85Pl9PhaaNzYuDa57DK7gkNVtGsnrVjhXve8CDk1l4sQAEAQKix03UjLS2ymsf+0zoOXnOzvoFAVLVpIy5dLr7/uLvPs4Zszm6koAABBrCjhW+gI013v97NsHjHC3wGhqmrVklatcq8zjy+AQELCFwBqMtP8veZeMnfeyU3TYNe6tfS3vxnLnhchh/7HRQgAIAht3OiaB297Yoplc5s2fo4HPtGihXTrrdIttxjr29ROGUowVhYvMkakAQAg2Jw4Ia1eLUnaFNldJ2QevzkmRoqKsiMwVFXbtu7lpeqnQjkkSU56+AKwGQlfAKjJPCqjC0okfJOS/B0MqsOYMcbjEvV3XYTErOUiBAAQhDwaqm2qbx3O+Yor/BkMfO3yy4uXHK6GarWPH5J27LArJAAAKm/pUmN0EklzT1vrLX/4gzGNFoJPTIzUp4+xfFxxWqeiG2irVkk5OfYFBqDGI+ELADWZqYevuadM167+DgbV4ayzjMfjitN6Gf/U2G0rpdxcG6MCAKASPOotz88z3ziNiZGeftrfAcGXzjlHqlfPWGY+PABA0POot5RsYH/TTebpDBB8vvzSvVxcb3Hk5xtzVQCATUj4AkBNlZ9vtDiVdLJRax1UY9Pm+Hg7gkJ1KB6au/giJFJchAAAglDRjVOnw6El6m/aNHasFMbVbdAbPNh49JzHl/nwAABBacEC96LSTJvuvpvhnINdo0buZRqqAQgUXBIDQE21Zo108qQk6bd86/BCnpVXBLfevY1Hz4uQgvlchAAAgsjJk8YweZIOJXZTtmJNm4tHtEBwK55SZLGSXWXMhwcACEpFDZbyY2K1QV1Mmzp3tiMg+FJ0tHvZ1FCNegsAG5HwBYCayqO3xLdHzAnfdu38HQyq0z//aTx6XoSsfpuLEABAEFm2TCookCR9ddDaUG3UKH8HhOpwww3G42E11Ba1lyQVLl4q5eXZGBUAABWUnm78SNqWkKxChbs21arFqCSh4rHHjMc16q4c1ZIkFS7gXgsA+/D1AgA1lUfCd2GJ+WTat/d3MKhOcXHG42r1UK6MZqjxGxkeEQAQRMqot0jGHL4IfsV1Fsk9Mkn46VxjZBoAAIKFR71lSRgN7ENVy5bGY74itUx9JUlh27dKGRk2RgWgJiPhCwA1lLPoAiRPEa6KabFhw+yICNWleD5mz4uQtgVbpcOHbYwKAIAKOEPCl54yoSEx0b3MPL4AgKDl8b318U5zvWXDBn8Hg+riOaWIaR7fxYv9HwwAiIQvANRMWVnS+vWSpFXqqVzVliR17Cg99ZR03312Bofq8PXXxqPnRci+r7gIAQAEiaL50LJVR2vVzbRpzBg7AkJ1cDik6683lj3rLBnfMjwiACCILFjgWizZUO2ZZ/wdDKqL5+h4nv/nnDnUWwDYg4QvANRES5bI4XRKMt9M+/VX6cEHpfDw0n4RwaprV+PR8yJk/btchAAAgsCBA9LOnZKkJepvmgdPktq2tSMoVJfu3Y3H5eqjPEVIkk7/Sg9fAECQyM+XliyRJO1Qax1QE9PmBg3sCArV5aKLjEfPe2tHvqfeAsAeJHwBoCYqZVhEz2H0EFratDEePS9CErdzEQIACAIe9RbTcHlFBgzwZzCobgMHGo+nVEsr1UuS1OToemOEGgAAAt3atdLJk5K8T0ORlubvgFCdiust29VWh9RQklR/8yKpqJMFAPgTCV8AqIGyfrQmfG+80RhGD6EpPNyYm3mb2ilDCZKkJrsWKe80FyEAgABXSkO15GTp2WelSy6xISZUmwED3L18i//fYXLq4LdLbYwKAIByKqXeEhUlvfee1K2bt19CsLr77uIlh6thYszJwyrYst22mADUXCR8AaCmcTrlXGBcgBxTvDaqsyQp1drwFCFm8GDJ8yIkURla/OkOO0MCAODMvNw4rVvXmNb3vvtosBaK7rrLePTs0b3mnSU2RQMAQAWUkvBdtky65ho7AkJ1ioyUrrvOWPast2z7iCm0APgfCV8AqGl271b8yf2SpMVKlrPoq6BvXzuDgj8U/489L0LymBMPABDICgulxYslSelqpnS1kCRlZ9sZFKpbcZ3F80Z5w63cOAUABIEFCyRJeYrQMrlvtHToYFdAqG7e7rUUd7QAAH8i4QsANczRGe6bZcU30dq1k/r1sysi+Mv55xuPnhchS19fpPx8mwICAOAMTq3c4Jq71TP5N3KkXRHBH3r3luLipE3qpGOKlyQ12b3Y3qAAADiTrCw516+XJK1UL+WqtiRjtK3oaDsDQ3W69VbjcbGSXWXORTRUA+B/JHwBoIZZP9k6vNA//mFXNPCnsDDp9783X4SkaJHmzrUxKAAAyrDmbe/DIvbqZUc08Ke//11yKsxVb2muvQrbe8TmqAAAKMPixXI4nZLM9ZbLLrMrIPhDdLSR1D+shtqi9pKkVhnLpLw8myMDUNOQ8AWAGiZhi/vGaXFPz27d7IoG/tatm5ShRG1VO0lSXy3Tto1chAAAAlP4Uu8JX+ouoa+dUVUxjUwSvXKHPcEAAFAepczfS70l9J06ZTwW11tqK1davdrGiADURCR8AaAGycvJV4uDSyVJO9RaB9VYkpScXNZvIZQ88IDxWHwREqMcrf5wjY0RAQBQuuL5zwoUpiXqL0m69lrpiivsjAr+cMklxqNnwjdzxn57ggEAoBxO/GxN+NaqJQ0ZYlNA8Jt//tN49Ky3rH6bYZ0B+BcJXwCoQX57c43q6KQk98XHc89JDoedUcGfGjaULrrIfBGS8wsXIQCAwLNj3Un1kNEzYq266YTq6o9/lN59l3nwaoKICKlOHXOdpeH2TcrMtDEoAABK43Qq/9cFkqQjqq/N6ihJevNNY3olhLYOHYxHz57dayYvUtEI3wDgF3zdAEANkjvH2tq0Y0e7ooFdwsPNFyGp4iIEABB49n+7TBEqkORO+nXubGdE8LdOnaT9aqpdailJ6q8l2ra5wOaoAADwYudOxecelGTUW5xFt92551IztGhhPK5Qb+UpQpLUI2eRTp60MSgANQ4JXwCoQaKWWxO+v/+9XdHALnfeKS1XH+UrXJKUooU6dszWkAAAsNj1qbXecuutdkUDO/zrX8Zj8f8/Vtn67e2NNkYEAIB3+7+01ltiY6WUlNJ+A6EkJkZ65BEpV7W1Sj0lSUlap8zdWTZHBqAmIeELADVI4g5j6N58hWuZ+ur666WoKHtjgv917my9CHnz+eM2RwUAgFt+vqRF5hun/fpJiYn2xQT/GzZMatLEPKzzqreXGu8PAAACyPwXrQnfDz5gOOea5P77jcfiekuYnPpx4lIbIwJQ0/CVAwA1RVaWkrROkrRKPZWr2srJsTkm2KJBA+PR8yIkchUXIQCAwLF3r5Qq48ZptuporbqpUSObg4ItmjUrORXFQqWn2xgQAABetEh3J3yLr7XbtLEpGNiidm3j0bPe0mDLIpuiAVATkfAFgJpiyRKFyZiotbjyeeWVdgYEu0RGGj27PS9C9n+9SIWFNgYFAICHnQv3q7V2SZKWqL8KFa6HH7Y5KNjiySelZeqrgqLbFylapM8/tzkoAAA87Nh0Wj3yjEbUW9Reh9VQbdpI3brZGxf8y+GQoqPNI5NEekytBgDVjYQvANQQ+6Zbhxfq3NmuaGC3f/zDfBGSqoX66CMbAwIAwMPkP5vrLQ6HlJZmY0CwzciR0gnV1Rp1lyT10Gr9456TOs5sFACAAPH0VatUS6ckSQtkVFi++MJIAKJmufNOaaM6K0uxkqRuJxYxuh4AvyHhCwA1xOm51oRvkyZ2RQO7tWghbVAXHVddSUZvmUWMNAQACBC9cs31FqfTxmBguw4d3A3VIlSgvlqm1attDgoAgCIxq633W5o1sysa2KlFC6lQ4VqsZGNd6doyh7koAPgHCV8ACHEbNkhXXelU1ArjAuSY4rVRRtfe+vXtjAx2uvhi80VIS+3RJy/t1ebNNgcGAKjRcnKk++6Tup803zi94QYbg4LtHnjAOo/vJZdIW7bYFxMAAJJUUCD1yTPXWwYMkBo1sjEo2Obyy41HzxHV/n31Yq1ZY1NAAGoUEr4AEMKcTun886VfP96jptovSVqsZDkVplGjbA4OtmrQQLr7bvNFSIoW6cILRS8qAIBt/v536YV/FShZiyVJe9Rce9Vcd95pb1yw1003ScvCk13rKVqkQ4ekiy6i3gIAsNekSUZDJEk6pSitVC+9/77NQcE2jRsb91s877V0PLpQI0dKhYU2BgagRiDhCwAhbM8eaft298WHxHDOcGvTxprw3bhROnjQvpgAADXbnDlSZ21UnIwJWovrLfSSQd3UJGWrjiR33Xb9eunwYTujAgDUdOt+PaLO2iRJWq4+Oq1oJSbaHBRs1a6d9V5Lerq0bZuNQQGoEUj4AkAIy8oyHj0TvouUolq1xNCI0OjR0oZY80WIJGVm2hURAKCmW7bMWm8ZM8boLYGa7aZbHVqqfpKkNtqpRjogSTp+3M6oAAA1mdMpbXp/kWt9gdIkSXXr2hURAsFf/yrtVXPtUXNJUrIWy6FCHThgc2AAQh4JXwAIYc88Yzx63ji95qVUrV0rDRxoU1AIGC1aSLO3tFC6mklyX4Q8+KDNgQEAaqSFRdUVz3pLqzGp+uADmwJCQLnqKqfqDG3qWi9uqPb113ZFBACo6aZMsY6o9vjj9sWDwDB2rNGIsbiXb5yOq4s26I9/tDkwACGPhC8AhLBdu6Rw5auflkqSdqi1/vC3xmrXzubAEDAaNXJfhMQrS521UVu22BwUAKBGmjnTeCy+cVqgMA0Y11+RkTYGhYBSmNzatVyc8N282a5oAAA13fffWxO+TEMBSerTR1oZZR5Rbf9+GwMCUCOQ8AWAEFVYKP3yi9Rda1RHJyVJK6JSbY4KgWhjnPkiZNUqKT/fxoAAADXSL79ItXVSPbRakrRW3dRrEGMiwu1ox46u5eIb7Nw8BQDYYd8+6ZNPnK7vo0NqqO1qq/PPtzkwBIyC/u57cClapNxcptACUL1I+AJAiHr6aeMU79natMVlJHxhdfZ95osQSbr/fruiAQDURDt2GD18+2mpIlQgScpol6rwcHvjQmDJbdhQWTFNJLmnovjsM2MORQAA/KWgQBoyROqgLUrQEUlG797773eoRQt7Y0PguPalfiqUQ5L7XsuoUXZGBCDUkfAFgBA1fbpxii+uVErSqd4kfGEVluy+CCluIPD553ZGBACoaWbMMB49G6pldqHeghIcDu1tZYxMUl/H1FHGeM47d9oZFACgplm7Vtq0yVxvWaA09e5tX0wIPPVaxWm9ukqSemmlailH8+ZJR47YHBiAkEXCFwBC1MqV5gRevsLV/U997AwJAarPkHhtUBdJxkVItHK1a5fNQQEAapSlS41Hzxun7a8m4Qur2GH9XcvFDRsPH7YrGgBATXT0qPHoWW9ZWydVw4bZFBACUqNG0tYGRkO1SOWrt1ZIko4dsy8mAKGNhC8AhKAtW+pJkmKVpSStkyQda9VT8U1jbIwKgSo6Wqo73Lip7nkRsnGjjUEBAGqM3bulN980lotvnGY76qrnlUk2RoVA1fiiFNdy8fvlxhvtigYAUBO98Ybx6JnwfeanZDVubFNACFjDH7JOoXXnnTYFAyDkkfAFgBA0b14zSVJ/LVGYjEnNnMn0kkHp6gxx3zwtvgiZNs2uaAAANck33xiPTbRPrbRbkpTepL+YwBfeOPtZ58NbudLOiAAANc2qVVK0cl2NpbdEdlHn1Hq2xoTAVGeotaFa8VQmAOBrJHwBIATt2BEnydzatP7vSfiidA1GWi9CmFcGAOAP+/YZj8XJO0lSKvUWlCI+XrtijKkoemuFopUrScrLszMoAEBNkpcn9dFyRcn48lkSRr0FpejRQ7mOWpLcdd1Tp+wMCEAoI+ELACFm40Zp+XJjHCHPhG/EQC5AUDpHzx46HRYtyX0R8q9/2RkRAKCmeOwx49Gz3tL5Tyml7A1IDc4z3h9RylMvGd17t22zMyIAQE1x6pS0aZO53tL+mjQbI0JAi4xUXo++kqQO2qoGOixJ+uEHO4MCEKpI+AJAiPnkk+JTu9N1AZJbK17q3Nm+oBD4oqKU3ti4COmoLaovo3tvYaGdQQEAQt3+/e5lzxun9PBFWSIHWUcmKR4aHACA6vTrr8ajZ73ldB/qLShDsrvekqzFkqTXX7crGAChjIQvAISY4mERW2iPmsq4i5rbI1kK45SPsmV1sc7je/KkXdEAAGqCgweNxzAVuG6AnazfXGre3MaoEOhqD3HfWC+us+Tk2BUNAKAmOXDAeCxO+J5UbSX9oYeNESHQ1R1mbaiWkWFXNABCGXf/ASCEOJ3SW2+FSzK3Nq13LsMi4szaXmFN+P70k13RAABqgmnTjMcu2qA4HZck1R5KLxmcQY8eOuUwpqIorvM++6ydAQEAaopnnpESdVDttF2StFT9VD8xwuaoEMgcqdZ7Lb/+atzDAwBfIuELACFk7Vr3MsMioqKizrL2lnntNbuiAQDUBO+9Zzx61lsc1FtwJlFR2p1onooiK8vmmAAANcLq1eZ6y76W1FtwBu3a6VRsgqTiey1GpnfzZhtjAhCSSPgCQAhJT3cvk/BFRdVKaqfDaiCp+P3j1OnT9sYEAAhttWoZj9RbUFF7mlnnw6OnDACgOhUWGo+e9ZbtTdJsigZBw+FQQT+j3pKoDLUt6h3ueQ8PAHyBhC8AhJDi1oHhylc/LZUkOVu3lho3tjEqBA2HQ4fauC9C2miHfv5ZysuzOS4AQEjKzXWPTlJ847TQESb162djVAgWnf7obhhQ/P7ZudOuaAAANUHxCFieCd/RT9NQDWcWM9g6rPOSJXZFAyBUkfAFgBAyc6bx2F1rVEcnJTEsIiomv5/1IuSXX+yKBgAQyorrLTE6oR5aLUk60ba7VLeujVEhWEQOstZZ3nrLrmgAADXB+PGSQ4Wu7529aqp63VvYHBWCQqp1Cq2PP7YrGAChioQvAISQ4o68xZVHSQyLiAqJP9d6EbJjh03BAABCWvH3S18tU7iMMRIjBlJvQfkkJLdThoz58IqnojhyxN6YAAChKy9Pys6WOmuj4mVMHL9QqWqY6LA5MgSF5GTXYvG9lsREu4IBEKpI+AJACPn+e+PRNA9eSor3nQEvWl7qvggpfh/ddJN09KhdEQEAQtW8ecajZ72l9hASviifsHCHNsaZp6IoHmoTAABf++wz4zFNC1xlrS9PVRh311EeDRvqSL12kqR+WqoI5en77yWn0+a4AIQUvpIAIITs3m08uubBCwuX+va1MSIEncRE7Y9pK8nocRUhYwLfyZPtDAoAEIqKh7GjoRoqK6+vdR7frVvtigYAEMrGjTMePestHf+UZlM0CEaZXYx6bm3lqrvWSJLWrrUzIgChhoQvAISQhAQpVllK0jpJ0r7EnlJMjM1RIdjsb2XcPI1RjrrJuPrYvNnOiAAAoahLF+Ox+MbpyfC6UlKSjREh2ISlWefxpc4CAPA1p9M96lVxvaVAYaozuL+NUSHYhA+wTqFFvQWAL5HwBYAQcviw1F9LFCZjTJiwAQyLiIprf5X75mnxxezrr0uFhXZFBAAIRRs2SE20T61kDFGS1am/FB5uc1QIJqnjrHWWxYvtigYAEKoyM43r4do6qR5aLUk60rSbwuLq2hwZgknLy6z1lvfftysaAKGIhC8AhIj9+41Hz+GFnMkkfFFxscOtvWUkac4cO6IBAISi/Hzj0bPecroP9RZUTHSzBO2Obi/JPRXFww/bHBQAIOQUT3FkzL1aIEmqM5R6CyrG0beP8h0Rktz3Wj7/3F0vBoCqIuELACFi0ybj0TNBFz+CCxBUQp8+xvzPMr+fmFsGAOAr+/YZj54J33BGJkElLIs03je1laseWq1WrWwOCAAQcvbuNR7TtMBVFnU29RZUUO3a2hnfU5KUpHWqq+OSpIMH7QwKQCgh4QsAIeDIEem88yTJ6bpxmqk41enb2da4EKRiYqQexkVIN611XYSsXGlnUACAUHLihPHomfBtfBE3TlFx9c41j0yya5f00082BgQACDnz5xuPnvWWiEFpNkWDYBZfVG8Jk1P9tFSStGePnREBCCUkfAEgBDz8sJSbK7XQHjWT0WVmbUyyFMZpHpUTlma9CHnrLTsjAgCEkt9+k8JUoGQZE67uUQtFtGpmc1QIRo0udDcUKL4R/4c/MDwiAMB35s0zHou/Z05F1pW6drUxIgSrhJHWeXwffNCuaACEGjIBABACli0zHj1bm+5onFLK3kA5pFjn8a1Xz6ZYAAAhp7BQ6qr1ilW2JGmB6N2LymkwrLdOK1KSu85y+LC0e7edUQEAQkVhofHYVHvVUkZXzD1Nk6XwcBujQrBypFrvtdBIDYCvkPAFgBDgbXihpOuTbYoGISHVfeO9+CLk2DGbYgEAhJwDB8zzxC8k4YtKaty6lvYl9pJU3IggS5K0caOdUQEAQsUPPxiPnvdbYoZSb0EldemiE+Gxktx14V9+sTMgAKGEhC8ABLm5c93Lnhcg3W4g4Ysq6NJFhTF1JZnfVytW2BQPACCk/OMfJebBG8DIJKi8VmPcU1H01xJJ0pgxdkYEAAgFOTnS+ecby2la4Con4YtKCw/XiS79JUkttUdNtVeStH+/nUEBCBUkfAEgyBX37g1Xvmuu1cz6jaXGjW2MCkEvPFwFfa0XIYsX2xkUACBU9OrlTvgWKExLnP1sjgjBzJFmncc3L8+uaAAAoWLtWveyZ0O12kNI+KLyTve2DuvMvRYAvkDCFwCC3Pr1xmM3rVUdnZQkHe/awcaIECoiB7ovQpJlXH1kZdkVDQAgVHzwgbR55Qn10GpJ0hp1V/LQujZHhaCWYr1xevq0VFBgV0AAgFCwY4fxGKYC1wgSR+NaKap1U/uCQtBreol1Ci3utQDwBRK+ABDkpkwxHj1bmx7r1NGeYBBavMzj+9hjdgUDAAgFP/8sXXON1E9LFa5CScb8vWefbXNgCG6dOqkwNl5ScZ3YKUnautXGmAAAQe/yy43HblqrujohSap3Hr17UTXhA6wN1Z5+2q5oAIQSEr4AEMQyM93Lngnfo5062RANQo5Hb5ni91fXrnYFAwAIBT//bDx61lsWKlWNGtkUEEJDWJgK+ydLkpppn5orXZK0fLmdQQEAgpnT6V72rLc4Ukn4ooqaN9eBiGaSjNHUHCqkLgzAJ0j4AkAQ8xzypfgCpDAsXJnt29sUEUJK8+Y6FmMMVVV8EXLokM0xAQCC2r59xqPnjdMT3VLVu7c98SB0RAy0zuObk2NXNACAYJeb615O0wL3Cglf+MDWBkYD+3hlqbM2uurIAFAVJHwBIIi9+KLxGKssJWmdsdKjhwqio22LCSHE4dCJbsbFbLyy1EmbtG2bzTEBAILaW28Zj8UJuWxHXb01r6vCuDJFVXmZx/eVV+wKBgAQ7NascS8X11ucERFS3742RYRQUmuweQqtDRtsDAZAyOCyGgCC2IoVxmN/LVFY0VxlztSU0n8BqKDMLtZhnT1bOgMAUFFNtVcttUeStLd5surGh9scEUKCl6ko4uPtCgYAEOwWGW2HTA3snd17SjExNkaFUJGdZK23HDliVzQAQgUJXwAIYsUtTot7MUiSM4WEL3ynwXnW3jLZ2XZFAwAIZqdPG4+ewzkX9mdYRPhIkybaH91KUnFjyAJunAIAKu3gQePRs4F92ADqLfCNztf0V6Ecktz3WjIz7YwIQCgg4QsAQSo93X0B4nnj1JmcbFNECEV1BlsvQjZtsjMiAECw8tZQLfECbpzCd3K6Gw3V6uqEkrROK1dKTqfNQQEAgtJjjxmPnvdbmL8XvpLYPk7r1VWS1EsrFa1cvfaazUEBCHokfAEgSM2YUbzkdF2A5MXESZ072xYTQk+dZvHaoC6S3BchixfbHBQAICjNmmU8et44jT6LkUngO8eTzPPhSdL27XZFAwAIVhkZ7uU0LXCvkPCFj4SFSYtk1IMjla/eWqFff7U5KABBj4QvAASpw4eNxxbao2baZ6z0TzZqjYCPeF6ERClPvbVCBQU2BwUACErbtklhKlCyjJZDu9VCdTs1szkqhJJWY6xTURSPiAMAQHm5pwRwN7A/Xaee1KmTXSEhBBXfa5GMBpHz50v5+TYGBCDokRUAgCA1frzx6NlLJvJ3tDaF7x3vYr55+vjjNgYDAAhKBw9Kr70mddV6xcqYDH5nE+ot8K16w/upoOg2R3Ed+Zpr7IwIABCM7r3XeGylXWqiA5KkyEEpNLCHT533T+vIJH/5i13RAAgFfEsBQJAq7mXJfDKobnuamy9CcnJsDAYAEJS++8549Ky3HGxDvQU+VqeONkZ0lyR11xrF6IS2bZNOnbI5LgBAUPn2W+PRs97i4H4LfCyiTw/lKlqSO+H73/9KeXl2RgUgmJHwBYAgR8IX1e1QE/dFSKoWctMUAFBhO3YYj571loTzqbfA93Y3M95XESpQXy2TJGVl2RkRACDY0MAe/jDg7EgtU19JUkdtUQMd1qlT0vHjNgcGIGiR8AWAIFR80zRc+eqnpZKk081aS40b2xcUQtZNf43ScvWRZFyE1NcRTZpkc1AAgKCRkyM9+qixXHzjNF/hGnx3P/uCQsgaeKd1Ht+FC0vbGwAAs3373MumhG9KinVnoAoSEqTml7jfV8laLEn65Re7IgIQ7Ej4AkAQ+uAD47Gb1qqOTkqS8npz8YHqERcnLZS7NXOyFuull2wMCAAQVObMMR7rKFvdtUaSlF6/u1Snjo1RIVTVGeausxTfqP/0U7uiAQAEm2nTjMcI5bka2Oe3bi8lJtoYFUJVi8us8/h++KFd0QAIdiR8ASAIZWQYj56tTWsPZXghVI/OnaVFMveWSU+3MSAAQFAp7inTT0sVrkJJ0snu1FtQPcK6JylbRmOC4hunzIUHACivAweMx55apdrKlSSFD6LeguoRPsA6Msnp03ZFAyDYkfAFgCD0738bj54J37A0LkBQPSIjpVGPui9CUrVQx4655zUCAKAst9xiPHrWWzpfS70F1SQ8XOlN+kuS2minGumAPvyQm6cAgDM7elR6/HFj2bPe4mD+XlSXdu2UXStBUvF7zqnp02msBqBySPgCQJDJzXUvF1+AFDjCpb59bYoINUG/K9rrsBpIKm516mQ+PADAGR09KuXnG8vFvRYkKWwAN05RfbK6WHvLzJ1rVzQAgGDxxRfuZdP8vSR8UV0cDh1ub9RbEpWhNtohSfr1VxtjAhC0SPgCQJApHs45VllK0jpJ0tGWPaWYGBujQqhr38HhGta5kQ6ptXZqzx6bgwIABLy9e93LxTdOT0XVlbp0sSki1ATe5vHdvduuaAAAwWLXLveyq4F9RJTUu7c9AaFGiPAyrDP1FgCVQcK3yHfffafrr79e3bt3V3x8vCIiIhQTE6NWrVpp5MiReumll5SVlVXp419//fVyOBzl/snOzvbhXwcglCxebDz201KFySlJqn8erU1RvSIjzfP4pmqhNmywMSAAQFD46ivjsan2qqWMlkIRaclSeLiNUSHUdb3OeuN07FgpM9OuiAAAwWDiROOxno6qizZKksL69pGio22MCqGu+WjzvRZJuu46qbDQrogABKsan/DNysrSeeedp/PPP1/vvvuu1q5dq6ysLBUUFCgnJ0e7d+/WDz/8oDvvvFMdOnTQr4ynAMBmL7xgPHoOLxQ+kIQvql9uD/PN0+++szEYAEBQeOYZ45F6C/zJ0bKFDkc3lWTUWRwy7ph+/LGdUQEAAtnp0+4ptDynoXCkUW9BNUtOdi16vveWLbMjGADBrMYnfO+66y7NmDGjXPseOnRIo0eP1rFjx6o3KAAog8NhPJrmk0lJ8b4z4EMfbTMnfGNi3PMyAgDgTe3axiPz4MGvHA7tb2nUW+opUx21WZK0bZudQQEAAlnx9FkS9Rb4WWKiDse3kyT11TJFKE8S9RYAFVejE76nT5/W+++/byqLj4/XO++8o3Xr1mn27Nk6++yzTdszMjL0v//9r8rPPXfuXG3fvr3Unzp16lT5OQCEngMHpLlzJcnpugDJiYpjHjz4xehbErVNbSUZQ4rPmZWvhARp6lSbAwMABKTcXKPuInHjFP7X9krrPL6zZ9sUDAAg4JHwhZ3qDjMaqsUoR920VpL0hz9I69fbGRWAYFOjE75HjhzRqVOnTGX33HOPxo4dq65du2rw4MF67733LL+Xnp5e5edu0aKF2rRpU+qPo7gLHwB4ePFF47GF9qiZ9kmSsjonS2E1+nQOP2nb1j2Pb4xy1F1rlJUljRtnDH8FAICnadOMxzAVqL+WSJJON2kpNW1qY1SoKWKGWOfxXbiwtL0BADXdp58WL7kb2DsbNpTatbMtJtQc0WdZ5/GVpIcftiMaAMGqRmcIGjVqpJiYGFNZrVq1ylyXpNatW1f5uS+++GLVq1dPUVFRatSokYYMGaJnnnlGR44cqfKxAYSuDRuMR8/Kn4PWpvCTzp3dCV/JffM0K0vav9+uqAAAgWrjRuMxSesUq2xJ1FvgR/37q1BGQ+riujNtDQAApXE6jcf22qqGOiypqN5Cpxz4g0cd2XMe3+L6NACUR41O+IaFhekvf/mLqeyll17SL7/8opycHO3atUu33XabaXvz5s114YUXVvm5V61apczMTOXl5enQoUOaM2eOHnzwQXXu3LnccwoDqDny8qRbbpGmTzfWPRO+iRdw4xT+MWyY1OD33i9Chg+XmOIeACBJ2dnSFVdIjz1mrHvWWyJ/R70FfhIfr5OtjGlPemmlopWrffukunWl22+X8vNtjg8AEFCKe/gynDNs0aePnOHhksz3Wlavln77za6gAASbCLsDsNtTTz2l48ePa9KkSXI6nUpPT9fgwYO97tuxY0dNmzatWufXzcjI0MUXX6xff/1V/fr1K3W/U6dOmYajzsrKkiTl5eUpLy+v2uIrfg7PRwDV74MPHJo0yX3K9qz85fftY2SEi/AZRXV64MPuciaEy1FQYLoQ3rJFmjixQI89VmhjdIGPzycQuPh8+s4rr4Tp00/DXeumeku/fnLyGqMSKvMZze2ZrLq71itKeeqtFVqoNJ04If3f/0lnn52v0aOd1RUuUKPwHYpgl58vbdoUKcmc8A2FegufzyAREaGIHj2kFSvUTWtVV8eVrVhJ0tixTq1ZQ0u1UMVntGbz9f+9xid8o6Ki9Nprr6lHjx666667lF9KM98rrrhCb7/9turWrVvp5+rcubMuvfRSnXXWWWrbtq2OHz+uJUuW6PHHH9e+fftc++Xm5uruu+/WnDlzSj3W008/rQkTJljKZ8yYYRmmurrMnDnTL88DQPrqqyRJHSVJ4cp3zYN3LL6x5ixb5vV3+Iyiugxu1Ur1tm+3XIT89NNBpaUtOsNvQ+LzCQQyPp9V98MPfSW1dK0X3zgtcITr+4MHVfDttzZFhlBQkc9o04Z11bBoOUWLtFBprm3Tpm1RdDTjJAK+xHcogtWhQ7UknSfJnPD94ehR5YdIvYXPZ+Dr2bix2koKk1P9tFRzNESStGmTQ19++Z0iI2moFsr4jNZMJ0+e9OnxHE6ns0afKXbs2KHRo0drxYoVZ9y3YcOGeu+993TeeedV+HnS09PVvHnzUrf16NFDR48etZQ3a9bM6+946+HbsmVLZWRkKC4ursLxVUReXp5mzpypc889V5GRkdX6XACMeWSio92ftZ5aqZXqLUnKH32ZnB9/aNqfzyiqW9httyl80iRJ0mDN1i8yRsZo3dqpzZtpdVoWPp9A4OLz6Rsl6y11lK1MxStchcpL6imtWGJjdAhmlfqMLlumyDQjyfu+rtYf9b5r0/XXF+rNNwuqI1SgxuE7FMHq5EnpzjvDNWWKMethlE4pS3GK1mnlte8krV9jc4RVx+czeDjefVcRN98sSbpfE/Wc7ndtW7YsT9272xUZqhOf0ZotKytLDRs2VGZmpk/yejW6h29BQYFGjRqldevWucpatWqlp59+Wr1799bhw4f10ksv6fPPP5dkDLc8atQoLV26VL169arQc5WW7C3eNnbsWL3wwgum8hUrVpSa8I2OjlZ0dLSlPDIy0m8nBn8+F1CTff21ed2ztWnEoAFSKZ9DPqOoNmlpUlHCN1ULXQnfnTsdvOfKic8nELj4fFbNjz+a1/tpqcJlDPcf+bu0UustQHlV6DPat69OOaIV7TxlGlpckqZMCdPkyWHVECFQc/EdimDz/PPSlCnu9T5armidliRF/q70+y3BiM9nEBgwwLVYst5yww2RWr7c3wHBn/iM1ky+/p/X6Kub77//3pTslaT33ntPV199tZKSknTWWWfp448/VufOnV3bCwoKNHHiRJ/H0q5dO0vZsWPHfP48AILPkhIdYTwTvkpN9W8wgCSlpLgXPS5CoqLsCAYAEEiotyCgREbqUMu+kqSO2qIGOuzaRC8ZAAD1FgSULl2koukkTe9FSR6zQQJAqWp0wnfDhg2Wsr59+5rWw8PD1aNHD1PZmjW+H85j27ZtlrIGDRr4/HkABJeDB6XHHjOXuSp94eFSiXMW4Bddu7ouQjwTvqdPS2PGSFu32hUYAMBui0pM5c6NU9gt/lz3+y5Zi13L1XBZDwAIMt99Z16n3gJbhYdLycmSpJbao6ba69p04ICUnW1XYACCRY1O+HrrLr28xNgIBQUFWr16taksPDzctbxjxw45HA7Tz+zZs037//DDD3rooYeUmZnpNY69e/dq8uTJpjKHw2FJPgOoeW680bxeV8eVpKKRCXr2lGJi/B8UEB4u9e8vSWql3Woid1PTzz+XLrvMrsAAAHZyOqUvvjCXDY0punEaG2v0WgD8LHa4e2SSkr1lTp/2dzQAgEBx4IC1bHjdou+JWrWkEh2AAL/wGFHNs6GaJN1/f8mdAcCsRid8k4tazHj605/+pI8++kjr16/Xr7/+qquuukobN2484++VJScnR08//bRatGihm2++WdOmTdPatWu1dOlSvf7660pOTtbRo0dNv3P++eerUaNGFf+jAISUuXPN6/21RGFyGiu0NoWdShnWWZJWrpSOH/d3QAAAu6Wnm9ebKV0NThYVJicbDYYAf/OoM5ess6xf7+9gAACBYqG5DZAa6pAaZxeNwNivX0jN34sgklJ6Q7WS9wgBoKQIuwOwU1pams4++2z98ssvrrIdO3boqquuKvV3oqKidOedd1bq+bKzs/XWW2/prbfeKnO/hIQEvfjii5V6DgChw+mUSg4MYKrseVQCAb8rkfD9ShebNmdnG525AAA1x5Ej5nWGRURAaNtWathQysgoek86JTkkSQ89JE2fzj19AKiJ1q0zr1NvQUDwuNeSFrZIKnRvYjoKAGdSo3v4OhwOffbZZxo4cGC59q9fv74+//xzJSUlVeh56tSpo7Cw8r3USUlJmjVrljp06FCh5wAQerxM7a37zuYCBAGijN4ykrRkiT+DAQAEgrvvNq9z4xQBweFw3TxtqMNqq+2uTd9+Kz38sF2BAQDs9OCD5vWLGnnUW9LS/BsMUKxFC6lZM0nSWbUWy+GZ8ZX06ad2BAUgWNTohK8kJSYm6tdff9WXX36pP/3pT+rWrZvi4uIUHh6u2rVrq0WLFhoxYoSef/55bdmyRRdccEGFn+Pcc8/V7t279dprr+mqq65Sjx49VK9ePYWHhysmJkZt27bVmDFj9MEHH2jFihXq2bNnNfylAILN/PklS5yqv6noAiQujnnwYK/mzaWmTSUZCd+SFyGbN9sRFADATiWHdDY1CCLhCzuVMRXFzJn+DgYAYDdv8/f2y6ehGgJEUb0l8mSWOmmTaRP1FgBlqdFDOhdzOBy66KKLdNFFF1X4d9u0aSOn03nG/Zo1a6Y///nP+vOf/1yZEAHUQFlZ5vUW2qOw/fuMleRkqZwjBwDVori3zJdfKl7GRchGuRsh5OXZGBsAwO82b5Y2bHCvh6lAKWFLjGHoWrWSmjSxLTbA88Z9qhbqY13pWl+61I6AAAB2+vxz87pDheqRW9QgqEkTqWVL/wcFFEtJMeackFFv8bzX8tVX0ptv2hQXgIBHtgAAAlTJ6cLHdqW1KQJMGb1l3n/f38EAAOySnS0NGmQuS9I61SnMNlY8vi8AWyQnuxZHN7dORZGZ6c9gAAB2mjVLuu02c1knbVLUyaIvg9RUo4EzYBePe35/6Wuutxw44G1EQAAwkPAFgAAVH29eT8pmWEQEmDLm8W3Vyt/BAADsMn++dOiQuYz5exFQEhKkDh0kSa0ylilC5qFI5s61IygAgB2+/tpadm7dBe4V6i2wW79+rkYH7Q5bG6r973/+DghAsCDhCwABKiPDvN7Xcz4ZesogEPTv71o03dgXI44DQE1y9Ki17NxYEr4IMEX157BTueqh1aZNe/faERAAwA67dlnLLm/lUW9JS/NfMIA38fFSF2MY58S9KxWtXNPmLVvsCApAMOB2LAAEoFOnzOvhylf7o0uMFebBQ6DwuAjpJfNFiLdW0wCA0DR1qrXs0hZFN07Dw41eCoDdPBoejEowN1S79VZ/BwMAsMu0aeb15s2ls6KKvhccDlPDZsA2RQ3VHHl5+kvaCtOmTz6RCgpsiAlAwCPhCwABaMEC83o3rVV47kljhV4yCCRF78co5amXVrqKExPtCggA4G8lh3M+q0+2IjeuNVZ69JBiYvwfFFCSxwg5v4u2Do94+LA/gwEA2CE93Vp2719PyrF6lbHSrZsUG+vfoABvPO79jWxgrbcsX+7PYAAECxK+ABCAZs0yrzMPHgKWx81Tz/dpZKQdwQAA7FA0xZhLywNLpMJCY4V6CwJF796uCkr/goWWzXv2+DkeAIDfeWvcc0GzZe7uktRbECg87rX0L6ShGoDyIeELAAFm2jTpscfMZWdHkfBFgPK4CEmR+yKEufAAoOZYWCJ3ducA6i0IQLVqSb16SZIaHNygOGWaNv/ud5LTaUdgAAB/mTnTWtYhw2OINeotCBQ9ekjR0ZKkhC3Whmr/+Ie/AwIQDEj4AkCAmTTJWjYwoiiRFh4u9e3r34CAsvTs6boI8Uz4StKRI3YEBADwp507rWXNdpPwRYAqej86nE4NqbPEtCk7W1q3zo6gAAD+UnI0tfr1ZW65lpbm13iAUkVFue//bdmiAZ3NN1iWLPHyOwBqPBK+ABBAnE7phx/MZXV1XG1PFs2D17Mn8+AhsERFSX36SJI6abPqy30RUnJORwBA6Dl40FrWZFdRA6DYWKlLF/8GBJTFY2SSy9tYh0c8cMCfwQAA/C0qyrx+9KjcCd+6daWkJL/HBJTKo94yKGqxjYEACBYkfAEggDzwgHUouSvaLpFDRYUelT0gYHi8L5PlvgjZts2OYAAA/vTEE+b1ZkpX+P50YyU5WQrjkhMBxKPH+RWtrcMjLl/uz2AAAP42fbp5/V/37JN27zZW+vc3RlUDAoXHvZa7B1nrLenp/gwGQDDg6hsAAkRurvTyy9byB4YyLCICXCnz+JYcLgsAEHq++sq8PiqBegsCWMeOUny8JClq2UJ17WJuaTl3rh1BAQDs0i2begsCmMe9lnqbrCOTfPSRP4MBEAxI+AJAgDh6VDp1ylreej8XIAhwHu9Lz4RvQYEdwQAA/MXbXO1pDuotCGBhYe6bp/v36/iGPabN9evbEBMAwC+8XZ+22rvAvUK9BYGmfXupQQNJUq3ViySZG6p5q4sDqNlI+AJAgPA2/O3nnzkVvbzoxmlcHPPgITC1b++6Q5qqhSq+CPn3v6UlS2yMCwBQbT77TEpIsJaPaUXCFwHOo7fMhPPNvWWmTPFzLAAAv/E2/G3bQ9RbEMAcDle9xXHokEZ122na/MILdgQFIJCR8AWAAPHZZ+b18HBpdPIead8+o4B58BCoPC5CGumQWst9EcIFCACEpgkTrGVhKlDdDUUtfVq1kpo08W9QQHl43NDvdsI6H15enj+DAQD4y8cfm9fDVKDo1UX1lpYtpWbN/B8UcCYeDdUub2Wut+TmSk5nyV8AUJOROQCAAFVQIDkWe/Q6oLUpAlkp8/hu2mRHMACA6rZrl7VsWKO1Cjt5wlih3oJAlZzsWmxzwDof3rFjfowFAOA3u3eb15O0TmEnso0V6i0IVB7vzQ5HrfWW06f9GQyAQEfCFwACRMkh5IYNk7TQo/WeR0INCDilzOO7dKk0daodAQEAqovTKWVlmcvCw6X/XMewiAgCTZoYPdAlNdq9RGEyT+o4d64dQQEAqtM990ivvGIuu6gx9RYEAY+Gav0KrAnfQ4f8GQyAQEfCFwACRMneBGlpMid8uQBBIPO4CDHm8XW75x6psNDfAQEAqsuKFdayDRukjkeotyBIFL0/HSdOKEnrTJsee8yOgAAA1WXbNu9TDV2QsMC9Qr0FgSoxUWrbVpIUvWapImSee+Lzz+0ICkCgIuELAAHA2xAsMVH50hLmwUOQaNRIatNGktRPSxWufNemjAxrTzAAQPDyNpxzy5ZyN1QLD5f69vVrTECFeIycU7KhGo3UACC0bNnivbzTMY96S79+/gsIqKiieosjJ0fdtNa06fhxOwICEKhI+AJAAMjOtpZd13+tdPKksUJrUwSDovdpjKwXIUeP2hEQAKA6pKdby6JPH5fWFp37e/aUYmL8GxRQER5165t6mIdHXL2ahmoAEEr277eW/fHi42qwj3oLgoRHvWVYXXO95aef/B0MgEBGwhcAAsCcOdayBpsZFhFBpozeMtOm+TsYAEB1+fBD8/qAATImbXc6jQKP7wMgIPXta/ToktTtxELL5kmT/B0QAKC6fPKJeb1bN+m/dyyRo7jewv0WBDqPuvWlLcwJ39mz/RwLgIBGwhcAAsCRI9ay2qs9KnFcgCAYeFyEpMh8EXLqlL+DAQBUl6JpxFxWr5Z7OGeJegsCX506UvfukqS6O9YoRidMm9evtyMoAEB1aNHCvL52rai3ILj06eNqqNbmgLmhWmysHQEBCFQkfAEgAHibC8+xiHnwEGQ8esukOswJ340b7QgIAFAdFi82r194obhxiuBTPB9eYaH6aalpE71lACB0rFhhXj//fEkLFrgLqLcg0MXEGEOPS2p+bK3qyj1x7/Hj7kF2AICELwAEgH//27z+h/M95sHr0YP5ZBAcYmKM96ukblqrOnJPTj11ql1BAQB8bcMG83q/fnInfOPipC5d/B4TUGEeN/gfGWluqLZ1q7+DAQBUl4UlRu5PS3W6C+Pjpc6d/R8UUFHFDdWcTvXVMtMmGqoBKEbCFwACQO/e5vX4zUvcTfRobYpgUnQREuY095bp1MmugAAAvlanjnm9VsYeae9eYyU5WQrjMhNBwGMqihZ7F1k2nz7tz2AAANUlMdG8Hrl/t7R/v7GSkkK9BcHBo96SKnMrhpKNMQHUXHyjAUAAWGZunKdLmzMsIoJUKfP4btpkRzAAAF8rLJROmKc71blx1FsQhJKSXK0X2mUstGwu+T4HAASnQ4fM6+cnUG9BECrlXovkbncJACR8ASAAlLyh1P0kFyAIUh7v15IXIStX+jsYAICv7dljLWu0g3oLglB4uNS/vyQpcu8uNdZ+0+ZVq+wICgDgS8eOWcua76HegiDUtatUt64kaXBt872WJ56wIyAAgYiELwDYLDe3ZIlTCZuZBw9BqmtXV2+ZksMMlZw7CQAQfNavt5bFruXGKYJUGQ3V0tP9HQwAwNdWr7aWxa1f4F6h3oJg4dFQLTFnt5pon2tTt252BQUg0JDwBQCbZWeb15srXbWOFlXcmAcPwcbjIqSVzBchBw7YFRQAwFdKjkoSrnyFL19irLRuLTVu7P+ggMoqY3jEknV0AEDwKXkuj1CeIlcuNVbatbNO8AsEslLqLWvX2hEMgEBEFgEAbFayp4ypV6RHZQ4IGh6tpJO12LX88MN2BAMA8KWpU83rozutk06eNFboJYNg4/Ge/X1981AkEyf6OxgAgK+98455fVTL1e5h1qi3INiUMTJJXp6/gwEQiEj4AoDNtm83r5sSvlyAIBh5NFTwfD+3amVHMAAAX0pIMK+3OUBDNQSx5s2lpk0lSZ0yF8uhQtemdu3sCgoA4CtFsw25tD/M/RYEsTJGJlm3zt/BAAhEJHwBwGanTpnXSfgi6JVyEbJrlx3BAAB86cgR83qyk3oLgpjD4XrfxhZmqpM2uTbt3m1XUAAAXyk5rdAAB/UWBDGPhmopWmRqqHb8uF1BAQgkJHwBwGb//a97OVz5SgkrmgevVSupSRN7ggKqokUL13s3WebeMqdP2xUUAMAXpk83rw+pVXTjNDxc6tvX7/EAVVZKQ7WNG+0IBgDgS99/b14fWnuBsRAZKfXu7fd4gCpxOFz1lnhlmRqqffmlXUEBCCQkfAHAZo0bu5e7aa1qFzIPHoKcR2+ZespUR212bVq+3K6gAAC+VlfHlXhorbHSs6cUE2NvQEBleNS5TSPtSDp61N/BAAB8peScpvV0VAkZRa15+vSRatXyf1BAVZUyj29Wlh3BAAg0JHwBwGb5+e5l0xwcJHwRzEqZx5eLEAAIXgUF5vX+WiKH02msUG9BsOrf32isJut8eNRbACB4nThhXk/WYvcK9RYEq1JGJik5XRyAmomELwDYzHNoRObvRcgo5SLkq6/sCAYA4Avbt5vXqbcgJMTFSV27SpJ6aaWilevaNGuWXUEBAKpq9WrzOvUWhASPhmqe7+l337UrIACBhIQvANjMcxQhV2WNefAQ7JKTXYueCd+DB+0IBgDgC7/8Yl7nxilCRlFDtSjlqbdWuIqXLrUpHgBAlS1YYF6n3oKQEB8vdekiydpQDQBI+AKAzXKL6mZ1dVzdVDQPXo8ezIOH4OZxEdJbK1wXIRERdgYFAKiKnBzPNaf7xml8vNS5sx0hAb5Ryjy+JYcxBwAED/Mcvk6lqSgDnJAgtW9vR0iAb3g0VOulla5izynjANRMJHwBwEYr3fUy9dcShYl58BBCvFyEfPCBnQEBAKri5Zfdy82VrmbaZ6wkJ0thXFoiiJUyFcXrr9sRDADAF95/373cTtvUUIeNldRU15C4QFDyqLd4NlRbtcqOYAAEEq7KAcBGH33kXmZ4IYScUm6eAgCC08mT7mXqLQgpPXq45lkxvbcBAEErOtq9TL0FIaWUey3ffGNHMAACCQlfALDRnj3uZS5AEHI83sckfAEg+EVFuZdN9RaPm05AUIqMlPr2lSR10FY1KO4FJqmw0K6gAABVUWq9hfstCHY9e7paNHjeazlxwq6AAAQKEr4AYJO8POm999zrrkpabKxr7lMgqPXsqcJI4yrb8wL76FG7AgIAVJbTKW3b5l7nxilCTim9ZTzf9wCA4OB0Sgs9qyo0VEMoiYqS+vSRJHXSZtXXEUnSxIl2BgUgEJDwBQCbLFjgXm6uPWquvcYK8+AhVERFKa+79SLk22/tDAoAUBkbN7qXw5Wv/lpirLRuLTVubE9QgC+VMjLJF1/YEQwAoCrWr3cvR+mU+mi5sdKpk1S/vj1BAb7k0XAhWYtdy9nZdgQDIFCQUQAAm+zf716mlwxCVdTv3O/n4uQAPXwBIPh41lu6aa3qqGhCX+otCBUeN0496+bcOAWA4ONZb+mtFYrWaWMlLc2egABfK6Wh2uHD3nYGUFOQ8AUAm8ya5V4m4YtQ5Ui13jx98UWbggEAVNqSJe5l6i0ISW3bSg0bSiq+ceqUJL31lo0xAQAq5dVX3cvUWxCSSpmKwrN3O4Cah4QvANhkzhz3MhcgCFleLkK2brUrGABAZc2Y4V6m3oKQ5HC46i0NdVjtZEzeu3evnUEBACrDczh+6i0ISe3bu4YnN97jRkO16dPtCwmA/Uj4AoBNiqe7M82D16qV1KSJfUEBvtahg7KjjIuQ4t4y4eH2hgQAqLh69dzLrhunERFS3762xANUCy/DIyYk2BUMAKCyatVyL7vqLbVqST172hMQ4GseDdUa6ZBaa6ckcb8FqOFI+AKATWbPNh6TtI558BC6HA45+xsXIY11UK20SwUF0s6dNscFAKiQTz81HmOVpSStM1Z69pRq17YvKMDXvMzje/iwdOKEXQEBACpq1y4pN9dYbqhD6qCiIab69pUiI+0LDPA1Lw3V/vMfu4IBEAhI+AKADbZvdy8zvBBCnTPZevP0//7PrmgAABW1f797uZ+WKqxoyDjqLQg5pcyH9+WXdgQDAKiMV15xL3uey5WW5v9ggOpUSr2FhmpAzUXCFwBssGOHe9mU8PWorAGhos5Q60XIoUN2RQMAqCjPURloqIaQ1qCBCtt3kCT11TJFKE8SI5MAQDDxnHudegtCmpeRSSRzY00ANQsJXwCwwZIl7mVXpSw8XOrXz56AgGoUPsCa8J0yRXI6bQoIAFAhM2e6l2mohlAXlmYkBGrplHpqlSTpgw/sjAgAUBGe52wSvghpiYlytm0ryRiFJ1z5kqT/Z+++w+Qu6/3/P2drsruppPdAEkJ6290AUgQpIlJUUMCCHkXRo19BUY8//Z6v59gVjnrEjugRjhVUQIoUaUJ2k00jjUB6773v7vz++GR2ZrKbkLI79+zM83Fde92fWWZ2Xl4yw33f78993/PmhQwlKSQLvpIUwPe+F7UV7GI086MHY8dCWVmwTFKb6dWL7d2GAOmDkIULA2aSJB23//iPxFU8OXHapQuceWaoSFLbaWF7xHnzvFFNktqDQ4eS1zEak9vc9u4NgwaFCSW1odjhfksZ+5rmF7/73ZCJJIVkwVeSAujVK2qnMMNz8JQX9oyKBiHl7G0ahCxeHDKRJOl4desWtQNYTT/WRQ8qK6HA4aRyUEqfPHVl2MGDIcJIkk7Exo3J6+G8Rje2Rw+qqyEWC5JJalMtbOtcUhIqjKTQHKFLUoY1NMDs2dG12wspX/S5qvlqmVmzQqWRJB2vhobk5Kn9FuWF8eOJFxUDyT4LwObNoQJJko7Xjh3J66lMS3kwNfNhpExoYWeSZ54JFUZSaBZ8JSnDUs/BS51EcuJUuazwnOS/34l/75NbhEqSstVjjyWvLfgqL3ToQOO4CQCMZBGdiaoHP/1pwEySpOPy0EPJa/styguTJtFYUAikzzGuWBEqkKSQLPhKUobNm5e8TgxAGss7eQ6ectvEidQTDUIS/94PHRoykCTpeMyfn7x24lT5omBqtFqmgDhTmAHA1q0hE0mSjkfqeetN/ZZYDKZMCRNIamtlZewbNhaA0cynnN1Aeh9eUv6w4CtJGfbww1Hbn9X0Zy0ABdWVUFgYMJXUxsrL2dZ/DJAchCxbBo2NgXNJko5p2bKoLaSeydRFD4YMgV69gmWS2lpsavNzfO++O72QIEnKPosWRW0H9jGOudGDUaOgc+dwoaQ2VnZBdKNaIY1N/fUlS0ImkhSKBV9JyqBDh+D556NrV8ko3zROif49L6SRScwE4K9/DZlIkvRGEtvYjmEe5eyNHthvUa5r4Tw8gH/8I0QYSdLx+p//idpJzKSY+uiB/RbluNQb1RL9ls9+NlQaSSFZ8JWkDFq+PHltwVf5puRNycnTxL//dXWh0kiSjseoUVGbWvSy36KcN3w4B8q6Aok+S7S0136LJGW3AQOidirTkr+cOjVMGClTWrhRbciQQFkkBWXBV5IyKHVLFQu+yjfdLms+CPna19weUZKy2YIFUZvWb0mZVJJyUkEBBVWVAPRlPQNYDcD994cMJUl6I6ujr2vnW5RfzjqLA8XlQPLf/cWLPUJLykcWfCUpg268MWoLqWcKM6IHgwZBnz7hQkmZMmpU0yAkdaXYI4+ECiRJOpZdu5LXicmjxsIimDQpUCIpc4rf1Pwc3zlzYOXKUIkkSccyf37yOvG93dCxHEaPDpRIypDCQvaNngLAIFbRh3UA/OIXIUNJCsGCryRlUEND1I5igefgKf8UFrJhQDQIGcxKerMegJdeChlKknQ0s2ZFbSd2Mopoqe/BM8dBx44BU0kZcpRzfGtqWnqyJCm0l1+O2t6sZzDR3Tn1E6ZAYWHAVFJmxCuTc4uVTAeca5HykQVfScqQxkbYuTO6dltE5asulzSfPJ0+PVQaSdKx/O1vUTuFGRQcPsO09HxvVFOeSOmjp/bdN2wIEUaS9Eb+9KeoTf3OLj3PfovyQ9dLm8+1PP54qDSSQrHgK0kZ8p3vJK89T0b5qqWC79NPQ319qESSpJasXg3f/nZ0ndpviU2136I80bs3DB4MRDc9FBJ1Vj75yZChJEktWbQInngiup7KtOQ/mDo1TCApw2LVzW9U27DBG9WkfGPBV5Iy5B//SF4nOl/xwkKYPDlQIimAlBscUrdHXLQoRBhJ0tG8+GLy2hvVlLcOr/ItZ2/TtuY9eoQMJElqyXPPJa/ttygvDRjA3q59gWhL5xiNgNs6S/nGgq8kZUii4FvBLkYzH4DY2LFQVhYwlZRhAwZQ37MPEBV8E4OQxHbnkqTsMH9+4ireNHF6sKwLjBgRLJOUcS3cqLZ5c6gwkqSjSaxiLKCh6fzSAz0HQL9+AVNJGRSLUTg1ulGtKzsYzmuA/RYp31jwlaQMWLYMDh6MrlPPwfNuU+WdWIyis5sPQlK3PJckhdXYCF/9anQ9kFX0ZT0AJedWQYFDSOWRo5zjO2tWiDCSpKP593+P2rNYSCd2A1B6vvMtyi+l5zXvt9xyS6g0kkJwtC5JGfD008nr1G1sLfgqL7WwWmb9+lBhJElHWrgwee22iMprkyZFR7CQ3od/7LFQgSRJx2K/RXkt5Ua1RL+ltDRUGEkhWPCVpAxI3UIlbQCS0hmT8kYLg5Dp00OFkSQdKbEtInijmvJceTmMGQPAGOZRfnjVWOpnRJIUVkND8noq01IeTM18GCmkysqmy0Qf/sCBUGEkhWDBV5Iy4N/+LXndVPDt1AlGjgwTSAppypSmy8TnoaEBpk072gskSZl0/fXJa29UU76LHb7RoZBGJjETgB/8IGQiSVKqRx5JXif6LfHCQpg8OVAiKZAuXThwejTPOIHZlBBVe5ctCxlKUiZZ8JWkDOrPavqzNnpQWQmHt4iT8krXruwecCaQPgh58MGQoSRJAPX1sGVLdF1IPZOpix4MGQK9egXLJQVzlHN89+8PEUaSdKS//jVqy9nNaOYD0DhqLJSVBUwlhdEwKeq3lHCICcwG4G9/CxhIUkZZ8JWkNpa6vZDnyUiRkjdF//6XcIjxzAFg9uyAgSRJAOzenbyOtrDdGz2w36J8lfLvfuoW5zt3hggjSTrSnGg4yRRmUEgjAIXn2G9Rfip7c/N+y9atodJIyjQLvpLUxlK3qbXgK0VK3tR8tcyTT7rVkCSFdvvtyWv7LRJw1lnEKyqA9M/Ef/1XqECSpISZM6MfsN8iAWk7kyQKvv/+76HCSMo0C76S1Mb+8IfkdeqqAAcgymstDEIAHnggRBhJUsL//m/y2olTiegIlilTABjEKvqwDoDf/z5kKEkSwG9/m7yeSurd9vZblKfGjeNQQQmQ3pfftStUIEmZZMFXktrY9u1RW0ADU5gRPRg0CPr0CZZJCm78eBqLo0FIasF3w4ZQgSRJ8TgcOJB83DRJVFQEEyeGCSVlgVjKjWqVTAfcHlGSssHatYmreFO/paGiM4wcGSyTFFRJCdsGR/32EbxGN6IOi/0WKT9Y8JWkNhSPw//8T3Q9mvlUsCd6kDJpJOWlkhIKJkWDkDNZTFe2AfDd74YMJUn5LfWmm07s5CwWRg/Gj4eOHcOEkrJBykqxREFhxw5Yty5UIEkSJHcmGcBq+h3egaFwahUUOOWt/NXjymS/JbHw5KmnQqWRlEn+10+S2tDixclrt0WUjtDCahlwqyFJCuWRR5LXlUyngHj0wH6L8p1HUUhS1lm2LHntfIuUVFDdvN/iURRSfrDgK0ltKLm9kAMQqZmjTJ5u2hQijCRpx47kder3sv0W5b0BA4j37QdEn40YjYArfCUppNTvYOdbpBQpcy1pnw1JOc+CryS1oXvuSV43dbIKC2Hy5DCBpGySMhBPLSyk3qktScqcBx9MXjtxKqWLHV4t04WdjCDaxufee0MmkqT8NmNG8noq05IP7Lco3w0bxt4O3YDEXEucJ5+EQ4fCxpLU9iz4SlIbuv/+qK1gF6OZHz0YOxbKysKFkrLFsGHQtSuQKCxEW4c+/HC4SJKUz15+OXEVTxZ8u3SB4cNDRZKyRwvn+LrCV5LC+fOfo7aIQ0ymLnowdCj06hUulJQNYjG2DY9uVOvNRgaxEoB//jNkKEmZYMFXktpQRUXUTqbOc/CkI8ViTVsNpQ5CiopChpKk/DV0aNQOZBV9WR89qKqCAoeNUktHURy+b02SFECXLlE7hnmUsS964HyLBEDJuc23dV65MlQaSZniyF2S2khDA+zeHV2nbYuYMlkk5b0WtnV+7rlQYSQpvy1dGrVu5yy1YMoU4rEYkPyMbN8eMI8k5bm//jVq7bdIzfV8W/Mb1RKfGUm5y4KvJLWRF15IXjsAkY6iqvldp6lnMUmSMmPt2uS1/RapBZ07c/CMswAYzxxK2Q/AkiUhQ0lSfmpsTF7bb5Fa0MLOJA8+GCqMpEyx4CtJbWT16uR1YgAS79QJRo4MlEjKQpWVTZeJQcjYsaHCSFL+WrYsee3EqdSywnOiz0Mx9UxkFuD2iJIUwp49yeupTAOgsbAYJk4MlEjKMr16sa50CBAdM1dIPT16hI0kqe1Z8JWkNjJvXtT2ZzX9iZbNxCorobAwYCopy/TuzZ6eg4HkIOSVVwJnkqQ8tGhR1BZxiMnURQ+GDoWePcOFkrJM0dnNV8usXx8qjSTlr61bo7YL2zmLqBPTOG4CdOgQLpSUbQ6v8i1nL6OZz+bNUF8fOJOkNmXBV5LayM9/HrWukpGObfeo6HNRzl5GsQCAfftCJpKk/PODH0TtGOZRxuEvYfstUrqUz0Sij//AA6HCSFL+SpxFWsn0pt/FptpvkVKlfiYSN6o9/XSoNJIywYKvJLWRM8+M2kSnCnDiVGpB4dnNz/FdsyZUGknKT4mFvN6oJh3DmDHsI1o9lujj9+0bMpAk5ae9e6M2td9ScLb9FilV57c035nktddCpZGUCRZ8JamNvPxy1KZNnFZVtfxkKY+d9tbmg5Bdu0KlkaT8lLjb3xvVpGMoLmZp10kADGMJp7GZ554LnEmS8tCcOVGbOt/iCl8pXdmbJlFPdKxc4rMye3bAQJLanAVfSWoD8XjUFtDAFGYAsLfHQJcASC2ITU4OQhKFhmefDRhIkvLMgQPJ68RkUGNhEUycGCiRlL12nJksKFQynVdeCRhGkvLU734HEGcq0wDYXdodhg0LmknKOmVlrOo6FoDRzKec3dxzT+BMktqUBV9JagN79kTtaOZTQfRg11nebSq1qLyceYwBorMjy9lNSUngTJKUR1asiNpO7OQsFgKwd9h46NAhYCopO63pn34URSyWvNlTkpQZAwfCUJbRk80ALO5WDbFY4FRS9lnUKeq3FNLIJGYyYEDgQJLalAVfSWoDu3dHber2QuUXWfCVjqaW9EHI3LmBA0lSHtmxI2ormU4BUeXKfovUsrNuTn42qqglHod9+wIGkqQ8tGpV+nxL8bn2W6SWdL00/Qit1asDhpHU5iz4SlIbmBHt4pw+AHmTAxDpaBompw9CfvazgGEkKc/cfXfUeg6e9MZ6TBnCJnoAiaMo4jz2WNhMkpRPliyJ2tR+S4cL7LdILelySfrOJJA8A1tS7rHgK0ltYHO0q1BTZ6qeQkrOnhwwkZTdXuuWvlqmuDhgGEnKMwWHR4WpE6dUO3EqtaRb9xg1RJ+PHmzhdJaydGngUJKUR6ZPj9rUfkuni6uO8mwpv5123ih2Uw4kblRLfoYk5R4LvpLUBrZtgwp2MZr5ALzCWGLlZYFTSdnrvI8mByHV1HDoEOzaFTiUJOWJV18FiDdNnO4o6ArDh4eMJGWt0tLkURQQ9Vs+9zlYsCBgKEnKI1u3QgkHmMRMABYznD6jugdOJWWn3v0KmcEUAAazkt6sZ/36wKEktRkLvpLUBr70JZhMXdM5eOsGeLepdCxTqgupI1oFnxiE/J//EziUJOWJl16CQaykDxsA2HJGVXLZr6RmKi5K35kE4G1vg3g8VCJJyh//7//BeOZQykEAlveeGjaQlOW2npF+hNaXvxwwjKQ25ShektrAWWelby80s9htEaVj6d6dpu0RASqZzsyZAQNJUp44GM2VpvVbNgy23yIdy55RlU3Xic/O8uWwenWgQJKUR4YNS++31BXZb5GOZW7H9BvVhgwJl0VS27LgK0mtbOFCqKvzHDzpRJSXw4KK9O0R58wJGEiS8sTu3VGb2m/pc7X9FulY3nVLd16LRdueT2QWxYdXmXkchSS1vdmz0/stByfab5GOpdtl6St8ly8Pl0VS27LgK0mt6OBBuPDC6DoxANlJJya8Z2S4UFI78b4fpA9CAF5/PVQaScoPzz4btYnvXYAeV3gUhXQsY8dCv2uiz0kHDjCOuQD88pchU0lS7jt4EPbtS8637KeUsTeNC5xKym5TrhnAOvoA0W5qMRqbdvmRlFss+EpSK5ozBzZuhP6spj9rAZhOJT16FwZOJmW/LmMGNhuEJAoRkqS2MWcOFHGIydQBsJShlA3uGTiVlP3K39z8HF+3dJaktjV3LpzGZoYT3Rk8k0mc1rckcCopu/XoGaOW6Ea1bmxnOK8xe3bYTJLahgVfSWpFO3ZEbeoqmSWnVTNlSqBAUjsycVL6IGQYr7NkSeBQkpTjtmyBMcyjjH1AdJ56ofepSW+sKv0oCoDt2wNlkaQ8sWNH+nzLNKYydWrAQFI7MGJE1MdPqKKW6dMDBpLUZiz4SlIr+sEPojb1PJkbvldNUVGgQFI7UlgIm4amT55+85sQjwcMJUk57u670/stsWrPwZOOy4QJNBQWA8niwxNPhAwkSbnv979P77e80rGa0tKAgaR2IBaDxV3Sj9D613+FrVsDhpLUJiz4SlIr2rgxalMHIJ0u9hw86XhtG978HN+VK0OlkaTctn9/1Kb2W9YOtOArHZfSUjb1nwDAWSyiM9FWP4nPlSSp9W3cmN5vWdTFfot0PDYPSW49mPgMPf98qDSS2ooFX0lqRXv3QgENTGEGAGsKB0LfvoFTSe3HuA9VNl0nCr7btoVKI0m5befOqE1M+hykmBHvnhgwkdS+pK6IryTaG3HXrlBpJCn3bd3c2DRO3EAv5mwfHDiR1D689YauLGQkABOYTQkHnGuRcpAFX0lqRa+8AqOZTwV7AKif5N2m0om47N1dWcSZQHIQ8uc/Bw4lSTnq4YehMzsYySIA5jCeN7+1Q+BUUvvR9dLmO5M4eSpJbePAAdjwz9foTvRFW0M1//GfscCppPbhc5+DWqJ+SwmHGM8cvvrVwKEktToLvpLUSlavjtrU7YV2j7bgK52o2cXRIKSUg4xnDtOnBw4kSTnq8cejVYkFRIel11BNx46BQ0ntSPGbkn39xBjg1VdDpZGk3DZtWvp8yzSm0qVLwEBSOxKLwfYjjtDavj1cHkltw4KvJLWSLVuiNnUAMvBdFnylE/XCoeTnpopaCgsDhpGkHLZ7d3q/pYZqChwhSsetYMQwttEVSHyW4jQ2Bo0kSTlr5crm/ZaLLgoYSGpnVvRJFnyrqaGhIWAYSW3C4bwktZLEKsTEdm71FNL5wkkBE0ntU9Un0u86feSRgGEkKUfF49EK39SJ06p/9UY16YQUFPBKh6jf0ocNDGQVM2YEziRJOaihAd7//mS/pZEY06nkjDMCB5PakWv+73gOUAJEcy07dkRbpUvKHRZ8JamVvPAClLOb0cwHYFHhGCgvD5xKan8OnDmuaRCSGNDX14dMJEm55/XXAeLJc0fpSsdxw4Nmktqj17ql36i2ZEnAMJKUo2bNgg7sYzxzAFjIWUw8v3PgVFL70um0EmYxEYAzWUxXtvHPfwYOJalVWfCVpFbSoQNMYQaFRPu4/bPBVTLSyThjVCmzmQAkByF79oTNJEm5ZsMGGMRK+rABgFqqeNN5scCppPbnz+vSz/Ht2jVcFknKVRs2wCRmUkx0J3AN1VxwQeBQUjszenTU50+oZDobNwYMJKnVWfCVpFbys5+lb4tYdqEFX+lkTJwYDeATpjCDzZsDBpKkHPSrXzU/B2/kyHB5pPZqwkfSV/jed1/AMJKUo3772/R+yzSm8uUvBwwktUMlJVBXmJxrqaKW554LGEhSq7PgK0mtKHUAsnu0BV/pZFRUpN91Wk0NL70UMJAk5aA//jG937K6n/0W6WQU9u3FMoYA0U1qB/Z4DoUktbbHHkvvt+w6q5ri4oCBpHaqYXL6jWo1Ncd4sqR2x4KvJLWCxPmiiQHITjrRMNxlMtLJKClJL/hWUesZvpLUyvbvT584fam+6hjPlnQ027Yl+y3l7OUt/RYETiRJuee005L9lj2UUbtndOBEUvv0+OvD2EZXIJpr6dM7HjaQpFZlwVeSWsHq1dCPNfRnLQDTqeSqawsDp5Larz19h6cNQj71SQchktRa7roLGg8eYjJ1ACzhdL76056BU0nt09vfnn6jWr/VLpWRpNa0dy/sfG09Q1gBwAym8M3vFgVOJbVPX/i3WFO/pQ8bmP/4SuJOt0g5w4KvJLWC3/+++Tl4FRUBA0nt3MRJ6YOQ7ntWsn172EySlAsOHYL/9/9gLK/Qkf1A1G8ZMCBsLqm9qqiIPkMJVdRy6FDAQJKUY47czrmGavr0CRhIasd69mzeb5kzJ2AgSa3Kgq8ktYKdO9MHILVU0a1bwEBSOzd+fPNtndesCRhIknLEtm2wa1fzidORnkQhnZSePWEmk6gn2t2nmhq2bQscSpJyyIoV6f2WaUxlzJiAgaR2bMKE5nMtK1aEyyOpdVnwlaRW8PWvpw9Atg6rJhYLGEhq577wheaDkB/+MGAgScoRixZFbWq/5fL/684k0snq1w/2UcYrjAVgNPPZsWZ34FSSlDs+85nmN6p5g710co68ub6aGv77vwMGktSqLPhK0inatQsKaGAKMwBYyUAmva1v4FRS+9apEyw9Lb3g+5OfQH19wFCSlAO+//2oTUycHqSYy78wIVwgqZ3r2BFiseTkaSGNLLyvLnAqScoNS5dG8y2VTAdgNf256L39A6eS2rdhZ/diGUMAmEwdzz5d73EUUo6w4CtJp2jlyuhO/gr2ANHdpmeeGTiUlAMK+/VmOYMBmMIMCqlny5bAoSSpnWtogM7s4Cyipb6zmUCsY4fAqaT2KxaDeDz9PLyey2oDJpKk3PHaazCSRXRmFxB9144aFTiU1M7165e8Ua2cvYxiAZs3Bw4lqVVY8JWkU/Tqq823F/rABwIGknLET37SfBCyfn3gUJLUzv31rzStkgHYNLTqGM+WdDw6dkzfHrF0ds0xni1JOl5//CNMZVrT4xqqufXWgIGkHPCNbzQ/QmvNmoCBJLUaC76SdIr+8z+jzlHCq12qKSsLGEjKEWefDbWx5GqZKmr56U8DBpKkdq6hIWpTb1Qru7D6KM+WdLyuuAIWcha7iA7D7uEKX0k6ZY2NcM896f2WrcOn0rVruExSLhg2DOoK0s/x/d73wuWR1Hos+ErSKSovTw5A6inkmR2TAieSckMsBjXx9EFIolghSTpxGzdGberEaf1kC77SqdqwARopZAZTABjEKli3LnAqSWrfduyI2tT5ljV9JgdMJOWGWAymN06inkIgurm+sTFwKEmtwoKvJJ2CxkaY/c/djGY+APMYw3s+VB44lZQ79o2cRMPh7koVtdx3X+BAktSOrVoFEG+aON1KN875wPCgmaRccOONUZt6ju9d76llz55AgSQpB6xbB+XsZgzzgGi+5Ytfc75Fag3jppYzjzEAjGEef/2tnRYpF1jwlaRT8NBDMIUZFBLdCldDNVdeGTiUlEOuuSl9EMLePU6eStJJ+uIXYTAr6E201Hd6rIqy8ljgVFL7d+aZUZt6Ht7+52u4665AgSQpB/y//weTqUubb5k6NWwmKVe85z3JfkshjUymjldfDRxK0imz4CtJp2DmzPRtEWuoZtCggIGkHDN4cHK1TCGNTGImCxcGDiVJ7VR9fXq/ZVq8mpj1XumUDR4ctakrfKuoZdasQIEkKQfs3t18vqW4OGAgKYekzrWA/RYpV1jwlaRT8OijzQcgEycGDCTlmKuvTl8tU00N998fMJAktVONjfDcc+n9lv3jPL9Xag1nnAEf+ACspT9r6AdAJdN5+Z8eiCdJJ2PHDnjsMZjKtOTvRrq8V2otl12WPtdSRS1PPBEwkKRWYcFXkk7S/v1QVxd1igB20omLbh1Jgd+sUqvp3BmW90wfhHzve7B2bbhMktQe/e//Rm1qwXfqp6qO8mxJJ+ree+GOO5KrZbqwk64bXyUeDxxMktqhsWOjNtFv2UFnrvrcyICJpNzSsSP0umAUu4nOxa6ill/9Cg4eDJtL0qmxLCFJJ2nBAujHGgawBoDpVNJvYGHgVFLu2Tt0dNogBGDGjJCJJKn9mTYNijjEJGYC8Dpn0GNkj8CppNwRi8GkSc1Xy2zcGDCUJLVTq1ZBf1bTn+hO3+lU0m+A09hSa+o3sJA6JgMwhBX0YgOLFwcOJemU+F9KSTpJq1alr5KppYobbwwYSMpRn/5M80GIBV9JOjHTpsFYXqEj+4FoFWK1OzpLreqSS9LPw6umht27AwaSpHbotdei9sjjs84/P1AgKUd9/OPNz/FdsSJgIEmnzIKvJJ2kG25IH4DM7VDN4MEBA0k56vrrYUF5+mqZ//zP6DxKSdIbq6+PjqFI7bd0vriKoqKAoaQc1L071DGZRmJA1Gf5wx8Ch5KkdiQehyuuiK6PLPiWlgYKJeWos89uvjPJu94VMJCkU2bBV5JOUiyWPgBZ2NllMlJb2XlW+iAEYNmyUGkkqX1ZtChqU/stByfab5FaWywGu+jMAkYBMJ45bFq5L3AqSWo/Vq+G11+Prqcyren3MbclkdrEku7JuZZqajh0KGAYSafMgq8knYQtW2D/3gamEO0ru5KBnPPOvoFTSblrysfTtxkC+PGPozvAJUnHtmVL1CYKvgcpZurHJoQLJOW4xGqZYuqZ/avZYcNIUjuyc2fUFlLPZOoAWMYQvnlv74CppNx19vUDWUcfACqZTmNDIzt2BA4l6aRZ8JWkk3DVVTCa+VSwB4i2F7rttsChpBx28c0DWU80yK+ilhiN3Hkn/OY3gYNJUjtw663Qhe2cRbTUdzYT6H9Gh8CppNz0+c+nn4c3bn8N990XMJAktSNf+UrUjmEe5ewFoPtbqznrrIChpBz2uc/Hmm5U68Z2hvE6110XOJSkk2bBV5JO0N698NJLyVWGEE3qdOsWMJSU62Ix5pWlD0IAHn00ZChJah82b47u2E+YU+q2iFJbOe205ufh2V+RpOOzZEnUph5D0eUS+y1SW+nWrXm/5emnAwaSdEos+ErSCVq3LmpTByA7RlTRo0egQFK+qGq+rfMTT4QKI0ntw9y5sGlTer9lyzAnTqW2cvXVMI8x7KUjEH32fvtbj6GQpOMxc2bUpvZb8Pxeqc106QLrB6af49vYCH/6U8BQkk6aBV9JOkFve1vUJgYg9RTyjb9PDphIyg8X/1v6IARg+3aoqTnKCyQpzy1ZAuecE12nTpy+9f85cSq1lREj4KOfKGYmkwA4g6WcxmZ+9KPAwSQpy6WO66YyDYDGomKYODFQIik//H9/qWy6Ttxcf911cM89oRJJOlkWfCXpBOzaBa++CuXsZjTzgegO/tMGlQdOJuW+WOWUpuvULdX/8pcAYSSpHXjsMdizByDeVPDdQnc6jh0WNJeU684+u/n2iH/4Q8BAktQOJMZ1ndnBSBYBsPuM8dCxY7hQUh7oNaIrizgTgAnMpoQDAPzxjyFTSToZwQu+W7ZsYcaMGTz88MP87ne/43e/+x0PP/ww06dPZ/PmzRnJ8Nhjj3HzzTczZswYunTpQlFREWVlZQwaNIjLL7+c73//++zcufOU32f37t3ceeedXHDBBfTu3ZuSkhJ69+7NBRdcwJ133smeaDZGUhbbsSNqpzCDQhoBWDugmlgsYCgpX3TrRv0ZI4D0QciGDSFDSVL2Snw/DmYFvdgEwILyKoaPsOMitaWLLoIa0o+ieP55ePJJt3aWpKNJHJ9VyXQKiL4sO17oriRSW6uogFV9oxvVSjnIeOYAyS3WJbUfRZl+w7Vr1/LII4/w97//nZqaGtauXXvM5/ft25fq6mouu+wyrrzySvr169dqWXbu3Ml1113H3//+92b/bN++faxatYpVq1bxxBNP8LWvfY0HH3yQN73pTSf1Xi+//DLvfOc7WZfovRy2ceNGNm7cyPPPP89dd93FAw88wNSpU0/qPSS1ve99L2pTt0V88xccgEiZUnRONSxZTCkHGcdcZlDJvffCL38ZOpkkZZ+vfjVqU/stEz7qjWpSW+vbF867vQruih4nPoOXXgrf/S585jMBw0lSlvr1r6M2td9SfK7zLVImvOn2arjjN0B0o9p0qti0CZYuhdNPDxxO0nHLyArfhoYGfvvb33LxxRczaNAgbr31Vv785z+zZs0a4vH4MX/Wrl3LX/7yF2699VYGDRrExRdfzO9+9zsaGhpOOddtt93WYrG3JZs2beLaa69l+/btJ/w+8+bN49JLL21W7D3S2rVrueSSS5g3b94Jv4ekzHj44ahN3U7WO06lDKpqfo4vwN69IcJIUvbaty95nfp92eniqhaeLam1jX7bEDbSE0iMHaLVavfeGzCUJGWpLVuS16n9Fqqdb5EyoeMF6UdRJHiEltS+tGnBd//+/dx5550MHjyY9773vTz77LM0NjY2FXNjsdhx/SSe39jYyLPPPstNN93E4MGDueuuu9i/f/9JZTt48CD3339/2u+6dOnCL3/5SxYsWMCzzz7L+eefn/bPN2/ezCOPPHLC7/WhD32I3bt3Nz3u1q0b999/PwsXLuS+++6ja9euTf9s9+7d/Mu//MsJv4ekzFizJmoTA5CddIKRIwMmkvJMVcuDkNQJAkkSTJ+evE6bOK2y4CtlQlV1jJlF0eftNLZyBksAWLUqZCpJyk7J8VycqUwD4FCnbjB8eLBMUl4ZN454SQmQPtdiv0VqX9qk4BuPx/nZz37G6aefzuc+9znWrl3bYpH3eLVU/F27di133HEHp59+Oj//+c+Jn+BBOFu3buXAgQNpv/vMZz7DBz/4Qc466ywuuOAC7rvvvmavW5Oo9hyn559/numpsy3AnXfeyY033sjIkSO56aab+Pa3v532z2tra3nhhRdO6H0ktb1XXoE9e6AfaxhA9F2wb/QUKCwMnEzKI+PHtzgI+cAHQgWSpOzz8MNwwQXRdRGHmER0AFfj6WdAjx4Bk0n5o7wcxn8k/RxfgJ07ob4+VCpJyk6/+lXUDmE5vdgEHN7O2XMopMwoLSU2YQIAI3mVrmwDoqPtWmGjVUkZ0iYF34kTJ3Lrrbeyfv36oxZ532gr5yN/Eo4s/q5fv56PfexjTJo06YQy9urVi7KysrTfdejQ4ZiPAQYPHnxC7/PHP/4x7XEsFuOd73xn2u+uu+66ZgXwI18nKbz/+Z+oTV0lc2ii2wtJGVVaCi0MQv7xD0jZTEOS8tqPfpS8HsdcOhLtihSbar9FyqS+V7d8FEVtbUvPlqT89Yc/RK3bOUsBpXzmpjCj6XrGjJaeLCkbFbXFH507d26Lq3gThdtOnTpxzjnnMH78eEaNGsWAAQPo2bMnZWVlxONx9u3bx8aNG1m9ejULFixgzpw5vPzyy+zatQug6e8m2ng8zty5c08oY0FBAbfeeit33nln0+++//3vU11dTWVlJZs2beKzn/1s2mv69+/P29/+9hN6nyNX9w4cOJDOnTun/a5r167079+f1atXH/V1ksJLHMOdOgDp8TYHIFKmxaqqmmZKpzCDp7gEiLYBq6gImUySssOCBcnr1H5LzIlTKbMqK5suU3cmWb8+RBhJyl47dkStBV8poCOO0ErMtdhvkdqPNin4pkoUeUeMGME73/lOrr76aqZMmUJBwYktLm5sbGT69On89a9/5YEHHuC1114DOKGtoY/09a9/nV27djVtCb1mzRouSOx9doThw4fz4IMPUl5efkLvsWzZsrTHvXr1avF5vXr1Siv4Hvk6SeEljv1OHYB0uMABiJRx1dXwwx8C6YOQf/4TTnAjDknKOf/8J6xcmXzsxKkUUPfu0fmTr73GRGZRzEEOUcITT8A73hE6nCRlh3/8AzZvjq7T+i0pxSdJGVDV8s4kTz4JV18dIpCkE9VmBd94PE5JSQk33HADt9xyC2efffYp/b2CggKqq6uprq7m61//Oi+99BI//elP+f3vf8/BgwdP6m+WlJTw4x//mLFjx3LbbbdRf5SDdK6//nruueceKk5i2dCOxC1qh3Xs2LHF5x25vfT27duP+XcPHDiQdgbxzp07ATh06BCHDh064ZwnIvH32/p9pGyycSNAMQU0NG1rsrPLQDr26AFZ9lnwM6qcN3EixYcvU1fL3HtvI9ddl92Hy/j5lLJXrnw+77qrkNSTexKTNfGSEupHj866fot0vNrrZ7SwspKC116jAwcYx1zqmMITT8Q5dMiDfJU72uvnU9nhu9+N+i7FHGQSMwHY238YxZ07229pBX4+ddyGDKGoa1di27cfnmuJAzH7LW3Mz2h+a+3/39uk4FtWVsYnP/lJPv3pT9O7d++2eAvOOecczjnnHL797W9z55138qPUg6qO0/Lly7n22muZPXv2MZ/3hz/8gWeeeYb77ruPyy677CQTR1LPIz6e3x/NN77xDb7yla80+/3f//73ZsXjtvLkk09m5H2kbLB0aRfgQkaxgAr2ALBm4BksfvTRsMGOwc+oclZjI28tL6dkz57DhYxoELJlyyYefXRa6HTHxc+nlL3a++dz3rzzgO4AdGUbI3kVgO2DB/P8008HTCa1jvb2GR1aVsa4w9fV1FDHFEpLt/Hooy8EzSW1hfb2+VR2WLDgQqAL45lDB6LFLRuGDGRuFs+3tEd+PnU8zh4yhF6zZ9OHDQxkFasYRFHRVh599MXQ0XKen9H8tHfv3lb9e7H4iVYaj8OmTZvo2bNna//ZVn3PhoYGxo0bx4KUA64GDRrEN77xDSZMmMCWLVv4/ve/zwMPPND0zwsLC6mrq2P8+PHH/T69e/dmY7Q0EIDJkyczo4WTzidPnszMmTPTXrf+GBvkt7TCd+DAgWzevLnZGcGt7dChQzz55JNccsklFBcXv/ELpBxw110FfOELhfwLv+AXfASA+q9/g/hnPxM4WXN+RpUPCq+4goKnngJgECtYxSAADh7M7jsi/XxK2StXPp8lJcnsb+FJnuRSABo+8Qka/+u/QsWSTll7/YzGpk+n6NxzAfg17+dmfg1kf59FOhHt9fOp8Pbuha5do39nPsEP+SGfBKDhe9+j8eMfDxktZ/j51Iko+Pd/p/Ab3wDgXfyRB3gXYL+lLfkZzW87d+6kR48e7Nixo1Xqem2ywjfTxd6Tec/HH388rdgLcN9993Heeec1PT7nnHMYPXo0r74a3RXf0NDAt771Lf73f//3uN9n6NChaQXf1OtUGzZsaPa6YyktLaW0tLTZ74uLizP2xZDJ95JCu/vuqE09w6Lo3HMgiz8DfkaV06ZOhcMF3ypqmwq+hw4Vk6GNLk6Jn08pe7Xnz2fi/LuE1H5L4dSpFLbT/11Sqnb3GZ08mYaiEgrrD6Z9JtetK2bQoIC5pDbQ7j6fCi51QVtav+Wcc+y3tDI/nzouKcdyVlPTVPCF4myeAs0JfkbzU2v/f17wxk/JTYsWLWr2u0mTJqU9LiwsZOzYsWm/mzdv3gm9T2VlZdrj1atXNzvXd9u2baxZs+aYr5MUVuII78QApJ5CmDw5YCIpz1VVNV2mTgwcY3MMScp5K1emP079fqS6OrNhJEVKS6kfPQGAkbxKF7YDsHx5sESSlDWWLk1eJ/ot8dJSOIHdFSW1opS5lugc38jWrSHCSDpReVvwbalyPmvWrLTHDQ0NvPLKK2m/KywsbLpevnw5sVgs7efZZ59Ne/51112X9jgej/OnP/0p7Xd/+MMfmmU58nWSwjlwABYuhHJ2M5r5AGztNwbKywMnk/LYUQYhW7aECCNJ2SH9HtJ4suDbvTsMGxYikiSg9Lxkv6WS6QDMnx8qjSRlj699LWq7s4URvAZAbOJEKCkJmErKY7170zhoMABTmEEh9UDznYQkZae8Lfi2tIL2fe97H7/73e9YuHAhL774IjfccEPTds7Het2xnH/++c1ec8cdd3D//ffz6quvcv/99/P5z38+7Z9XVVWlbS0tKayHHoraqKPTCED9JFfJSEH17g2Dmw9C/vKXgJkkKbDf/CZ5PYTl9GJT9KCqCmKxMKEkpa2wT9yo9sMfhgojSdlh2zbYuTO6Tr2Jl6lTwwSSBECsOrpRrZy9jCI6EvOI9WuSslSbnOF7IhobG1mwYAErVqxgx44d1NfXH/dr3//+95/0+06dOpXzzz+f559/vul3y5cv54Ybbjjqa0pKSvj0pz99wu/1y1/+kqlTp7Jnzx4g2sL5ve99b4vPraio4J577jnh95DUdhL3faQOQDq+2YKvFFxVFaxY0TQIeYVxnikjKa917py8djtnKYu0sDNJz56hwkhSdmhpO+fogf0WKaRYdTX88Y9A1G95hXE0NAQOJem4BCv4rl69mv/4j//g97//Pbt37z6pv3EqBd9YLMaf/vQnrrnmGl566aU3fH63bt34n//5H0aNGnXC7zVmzBiefPJJ3vnOd7Ju3bqjPq9v37488MADjBkz5oTfQ1Lb+e1vozZ1ANLtMgcgUnBVVc0GIbW1b/AaScphNalzpU6cStlj+HD2lnal7MD2w5/NOM8956p7Sfkt9RQ9+y1SFjniRrV7+DAPPwz/8R8BM0k6LkG2dH7mmWcYM2YM99xzD7t27SIej5/wT2vo2bMnL774In/961953/vex+jRo+ncuTOFhYV07NiRAQMGcOmll3LnnXfy+uuvc+WVV570e5199tksXryY73znO5x33nn06NGDoqIievTowXnnncd3vvMdFi9ezNlnn90q/9sktY5Dh2BBtHtJ0wBkf3EFjBwZMJUkoMXVMo89FiqMJIU3b17yOm3iNOX7UlIAsRg7z4w+h33YwEBWAbBsWchQkhRW8oS7eLLf0rMnDBkSKJEkACZNojEWlY0Scy2zZ0MrlWQktaGMr/Bdt24d11xzTdOq3thJnCXVWgXfxPtfddVVXHXVVSf82iFDhpxQloqKCj772c/y2c9+9oTfS1IYq1dHbT/WMIA1AKzrX8nQwsKAqSQBMHkyjbECCuKNbo8oSUC3btF5eMUcZBIzo18OGwannRY2mCQaK6th7t+B6IaMVQxi3jwYOjRwMEkKpGtX2LgRhvMa3dkW/bK6Gk5irlhSKyovZ0PPMfTdOJexvEIZe9hLOTt3QpcuocNJOpaMr/C988472b17N7FY7KSKvZKUSRs2RG3qKpmeV7q9kJQVysvZPSQ6BiExCNm0CQ4cCJxLkgKIx6NiL8A45tKBw1+GbosoZYU+VzXfmWTt2lBpJCmseBwWL46u03YlmTo1TCBJacoujMYQhTQ23Uh6jJMqJWWJjBd8H3/88aZCb+rq2Exv5yxJx+PLX47a1AFIxcVOnErZomFSNHmaOgj5/vdDJpKkMJ57LnmdKCYBFnylLFEwNVnwTYwtvvKVUGkkKawXX0xee36vlH3KLmx+o9rnPhcqjaTjlfEtnVeuXJn2OB6P069fPy655BL69etHSUlJpiNJ0htyACJlp5LzquGBXwDRIORFzmPmzMChJCmA2bOT157fK2WhXr1YVTiEgQ3LmUwdhdRz+ukZn5KRpKwwY0byOtFvicdixCorAyWSlKronOY3qm3fHiiMpOOW8dFF4eFzL+PxOLFYjIsuuoi//e1vFnolZaWnnoICGphCNBrZUDqQ3n37Bk4lKaH8zc0HIb//Pfzud6ESSVIYr76avG4q+JaUwIQJQfJIam79kGoGLllOOXsZzXz++c/xoSNJUhCbN0dtB/YxgdkAxEaO9IBQKUvExoxmb0E5ZY17mlb4vvBC4FCS3lDGt3Q+/fTT0x5/4hOfsNgrKSu99lrUjmIBFewB4MA4V8lIWWXUKA6VlAHpW5hOnx4qkCSF8ZOfRG1XtjGSw9XfCROgtDRYJknpSt/UfHvExNnbkpRPvv71qJ3ILIqpjx64m5qUPQoL2XPmZACGsIJebABgw4aQoSS9kYwXfN/xjnekncNbUJDxCJJ0XF5+OWpTt0U8MMEBiJRViorYfkbzQcg//xkylCRlVsrwikpS7nhx4lTKKrHq5juT1NWFSiNJ4SS6KGnHUEydGiaMpBYdGJ/styTGGLW1R3u2pGyQ8WrrRz/6UXr27EksFgPgnnvuyXQESTouia1KUgcgg6934lTKNp3fkvxcJgYh3nUqKZ/s35+8Tps4teArZZVR751EPdExV4kVvrt3h0wkSWHMmRO19luk7NX36uY3qu3YESqNpOOR8YJvjx49+O1vf0tRURHxeJxHHnmEd7/73SxbtizTUSTpqPbuhV/8IrpOdGoaKKTk7MkBU0lqSel5zQch3/xmqDSSlHk/+1ny2olTKXsVdipjcelYAEYzn3J287//GziUJGVYfX3yZrVEv6W+tAzGjAmYStKRCs9JjiUSN6p9+cuh0kg6HkUh3vSiiy7iySef5Prrr2fjxo386U9/4k9/+hMjR45kxIgRdO7cmcLCwmP+jVgs5upgSW1mxoyoLWc3o5kPwJpuYxhUXh4wlaQWVTU/D69bt1BhJCnzappqvPGmidP4aacRO+OMYJkktWxWcTWjDsymkEYmU0dFxQWhI0lSRi1aFLW92MBQlgOwZ+RkuhQFmaaWdDQDB7K5qDc96jccnmuJ06NHLHQqSccQ7L+kO3bsoKSkhFgs1nSm78KFC1mU+K/+McTjcQu+ktrUtm1RO5k6CmkE0u9sk5RFBg1iT6felO9KDkK2bXMQIil/LF8etUNZRk82AxCrqoKY34VStplVXMVN/BSIVra9/JoFX0n5ZefOqE3dlaTiYudbpKwTi7GsRxU91j9MN7YznNdYuHBE6FSSjiHjWzoD/OQnP+Gaa65hzZo1TcXbxJm+8Xj8DX8kqa3ddlvUpg5A+r/DAYiUlWIx6idFq3wTgxCA9etDhpKkzIjH4eWXo+vELgeA2zlLWeqMG9O3R3zxRTh4MGAgScqwP/85alPnWwrPmRoojaRjKbsovd+yZ090DJ6k7JTxgu+8efP45Cc/mVa8TVwnCr9v9CNJbW3fvqhNOwcvZdtYSVmmsvm2zs88EyqMJGXOihXJa8/vlbJf44iR7KICSH5mZ84MmUiSMmvduqi13yJlv4ZJzedaamqO9mxJoWW84HvXXXfR0NCQVry1kCsp2yRWBiYGIHsLK+CsswImknQsXS5pPghJbBUmSbls+/bkddrEaWVlxrNIemNvvbKQ6USfz4Gspi9rWb06cChJyqDXXoMYjVQyHYA19IMBAwKnktSSETdOabpOzLWkjj8kZZeMF3xffPHFtO2bE2f4nsiPJLWlLVuith9rGMAaAA6Or4TCwoCpJB1TSmEjMQj5r/8KFUaSMueBB6K2mINM4vAywWHD4LTTwoWSdFSnnw61pN+odt11AQNJUgatWgW1tTCSRXQhukN351mu7pWyVYe+3Xi9MDq3dyKzKOFA07bskrJPUabfcPURt67G43He8573cP7559OvXz/KysooLi7OdCxJapLYBjZ1lcyhiQ5ApKzWrRurykYwcO/ipkFIY2Np6FSS1OYSW8GOYy4dOBA9cFtEKattPr0alkbXVdTyV65hwwbo3TtsLklqa489FrVTmdb0u63D7LdI2Wxh52qGbVtMKQcZx1w2bXInISlbZbzg2717d9atW9e0uve2227ju9/9bqZjSNJRJVb4phZ8u1/hAETKdou7VDFwb3IQsnKngxBJue9AosbrOXhSu9Hnqir4XnSd+Oxu3WrBV1Lua2m+ZcC7pgZKI+l4vLC/irfzGyC6UW1xvXMtUrbK+JbOkyZNStuW+dJLL810BEk6pm98I2oT28ICFJ7txKmU7XpemfycVlHLxo2wcWPAQJLUxuJxePrp6NqCr9R+3H5nf1bTH4BKphOjkR/9KHAoScqAL34xahP9lgYKGPyOyQETSXojE25JHkVRTQ1PPQWNjQEDSTqqjBd8P/jBDwI0neO7bt26TEeQpGNatw4KaGAKMwDY1GEA9O0bOJWkN3JwQvogBOBvfwuVRpLa3qJFyeumidOiEhg/PlAiScejoABmFkb9ls7sYiSLeOSRwKEkKUPK2MNYXgFgTdcxUFEROJGkYzkwcjwHKAGSi2NmzQqZSNLRZLzge+2113LFFVc0rfL99re/za5duzIdQ5KOqlMnGMUCOrEbgNe7u0pGag/OvH48BykGkoMQV/hKymWJ77iubONMFgNwcPREKPUMcynbTYun70ySshGaJOW0ydRRSLQ8cO0g51ukbHfuRaXMZgIAI3mVLmx3rkXKUhkv+AL89re/5fzzzycej7No0SImTJjAvffey0a/KSRlga1b07dF7HetAxCpPejUo5SFJROA5CDky18Om0mS2tJjj0Vt6jEUHS+w3yK1B5d+KX1nkhUroKEhYCBJamM7dkTtVKY1/W7I9fZbpGw3YgTUkuy3TGEGf/lLuDySjq4o0294+umnA3Dw4EEA4vE4y5Yt48Mf/jAAnTt3pkuXLhQUHLsWHYvFWLJkSduGlZR3li6N2tSCb2OlAxCpvdh0ejUsmg5Eg5CnD70lcCJJajtPPBG1qQVfz++V2ocOb5pCIzEKiDd9huvqoKrqDV4oSe3UU09Fbep8S8E5UwOlkXQiNgyqgpXRdTU1/O4p51qkbJTxgu/y5cubzu+F5Fm+iS2ed+zYwY7ELV/HkPo3JKm1rF0btYkBSD2FDLh6csBEkk7EpqFVcPhMy2pqeJq3cOgQFBeHzSVJbaFTp6hNnTi14Cu1D2PO7sQCRjGG+YxjLh3Yx9q1HUPHkqQ2s21b1Cb6LTvpRM/zRgZMJOl4/X1HNV89fF1FLU90CxpH0lEE2dIZkgXeRBuLxY77R5LayrJlUM5uRjMfgHmMobhreeBUko7XBXckl8UkVsts2hQqjSS1nfp6eOEFgHjTxOm+8tPg8I5KkrJbRQXUEN2gUUw9E5nFyy8HDiVJbeiJJ6AfaxjAGgBmF1cSKyoMnErS8fjYd4exja5AdNNGXV3coyikLBSs4JtauI3H400/khTSP/4Bk6mjkEYAFnV2lYzUnpSNH542CIE4jz8eNJIktYlph4+/G8oyerIZgO0jqsAbZKV2Y/Pp6TeqJc7llqRc9Mwz6buSbBjsfIvUXvTuW8B0KgHowwYGsoqamjd4kaSMC1bwhZZX9UpSSN26pQ9AntzpIVpSe9KlW/NByO7dgUNJUhtYmXKGVkLpeU6cSu3JQ+uTn9lqaujbN2AYSWpjgwfDVKY1PX7xkP0Wqb2YMCG5MwlEN6olxiOSskeQgm/qit6T+ZGktvL3v6dPnHZ+iwMQqT2JxWB+efpqmUcfDRhIktrII49EbWq/pftb7bdI7clVXxzDXqJze6uo5e9/DxxIktrQrFnp/ZZzb7ffIrUX/ftDLelzLTNmBAwkqUUZL/g2Nja2yk+Dm8RLagPz5iUHILuooMPEswInknSi6iel33X6xBMBw0hSG/ntb6M2deKUKncmkdqT/oOLqGMyAGewlB5sCpxIktrGsmVQSD1TiCpEyxlMlzP7BE4l6USUnlvZdF1FLb//fcAwkloUdEtnSco2Vf3XMIA1AEynki3bCwMnknSi5pSkD0L69w8YRpLaSO/eUMxBJjILgJUdhkP37oFTSToRJSXpq2UqmU5jY8BAktRGliyB0cynnL1AtDXsqFGBQ0k6IdNX9WEFgwCYwgzOGOKCPCnbWPCVpBT91yRXydRQzTvfGTCMpJNyw23pg5B1axrYty9wKElqRYcOwYYNMJ45dOAAALFqt0WU2pvKyvSCbzU17N4dMJAktZFf/Sp9V5Iaqhk4MFweSSfuE59InuNbwR62vLggcCJJR7LgK0mHLVsWrQZMqKHahTJSO5R6tkwFexjFgqatTyUpFzz+eNSmTpwWnmPBV2pvKiqSE6fgURSSclN9Pdx/P0xlWtPvtpxhv0Vqb844o/k5vqtXBwwkqRkLvpJ02MKF6ROntVQxdGjAQJJOypAhzSdPFy0Kl0eSWtvChVGbeqNa50ucOJXam+7dYQWD2UhPIPpMb9oYD5xKklrXpsPHkyfmWw5RxOZBkwImknQyRoxovjPJq68GDCSpmaLQAaZPn05NTQ0rVqxgx44d1NfXH9frYrEY99xzTxunk5RPlr7WwAeYAcAqBrCOfvToETiUpBPWtWvzQcgdP/0Xvv3tcJkkqTXNmxe1iYnTA5RQce74gIkknYzCQoAYNVTzdh7hNLay6tkl8IlhoaNJUqtZuxY6sZOziO5Ym8N4vvLtjoFTSTpRY8ZAHZNpoIBCGqmilpcXw8UXh04mKSFYwfehhx7ijjvu4PXXXz/h18bjcQu+klrd7/99Af9KdGhWDdVMmRI4kKSTdt6nJtHwg+QgZOdO2LYNunULnUySTt1vfgNd2caZLAZgdY+JnFFSEjiVpJPxrndB7Z+qeDuPALDyTzWABV9JueOrX4VKplNAtINBLdXcOjlwKEknLBaDYePKmTd3DOOZyxjmceUX93DrreWho0k6LMiWzt/61re49tpref3114nH4yf8I0lt4bKuye2ca6hm3bqAYSSdkn4jKpjHGADGMI8y9jB/fuBQktRKhgxJ3855YRe3c5baq/3704+iOL9D7TGeLUntT319+vFZ06gmFgsYSNJJ27gxuaNaEQ1c3H1W4ESSUmW84FtXV8cXv/jFpsJtLBY74R9Jam3xOPRekV7wvfHGgIEknZIbbkgfhExkFlu3Bg4lSa1k+fL0idOul1rwldqr970PplPZ9Hj8/hqO86QrSWoXHnkEpjKt6fGB8fZbpPbq5pvTj9DqsbTm6E+WlHEZL/j+4Ac/aNqSGXDFrqSs8OSTyZUy9RRSx2QuvDBsJkknr3t3WN4z/Rzfb3wjYCBJaiW1hxf/pRZ8O1/ixKnUXo0dC9vpxquMAGAis7jnxwcDp5Kk1rF3L0C8qd+ylW5c9q/Dg2aSdPIuvjh9Z5IqalmxImAgSWkyXvB9/vnn04q9sVjMLZ0lBTfz+d2MYR4A8xjDXsrp3z9wKEmn5OldyYJvFbX06BEwjCS1kpoaSJ043UQPTqs8PWgmSSevT5+oTayWKeUgG/4+J2AiSWo9CxbAYFbQm41A9F3Xf2CQEwYltYL+/WEBo9hDGRDNtcyYETiUpCZFmX7D9evXpz2Ox+O8853v5Morr6Rfv36UlJRkOpIksfmJOgppBJKTLePGhUwk6VR1OWc0e54po5y9VFHLR18InUiSTt3KlXA6S+nBFiDqt7xtgMfeSO1Vt25RW0M17+M+ALY8Xgsp2zxLUnu1YkX6riQ1VPP5CwIGknRKRo6EBoqoYzLn8wJDWc4LyzYCvUJHk0SAgm/Xrl3ZuHFj0+rej33sY9x9992ZjiFJTerroWBG+gDkX/4FPDJcat+uu6GIumeSg5CSHRs5eLAX3lsmqT377nfhhpSJ092j3c5Zau++/nX48xeTO5NMrq9h4cJPcNZZAUNJUit4z3vgWyn9lte6VdOhQ8BAkk5JLAbnnAM1L1VzPtFd9Y99pZb3f/bKwMkkQYAtnUeOHJm2LfNVV12V6QiSlGbhwuZ3nLqds9T+9e6dXLEP0VZD8+YFDCRJraC8PL3fsrirBV+pvevTB+YwngNEd6VVUcuLLwYOJUmtoLg4vd8yp7TqGM+W1B7s3p0+1/LmitqAaSSlynjB9wMf+EDa4w0bNmQ6giSl2bYtOQDZRQULOYsbbggcStIpu+ii6AaOhCpq2bUrYCBJOkXxOOzZE32fJQy5zm1fpfbuyivhIKXMZgIAI3mV+S9uCxtKkk5RQwPU7zvIZOoAeI1hvOU9PQKnknSqpkxJL/gOWm/BV8oWGS/43njjjUycOJHY4b1Sv/Od77DL2VdJAX39E2sYwBoAplNJI4WMHBk4lKRTVl4OCyuSg5BqavjOdwIGkqRT9POfQzEHmcgsABYznOq3dg+cStKp6tkTzjsv/Ua1+f8zgwMHAoaSpFP07/8O45hLB6Ivsxqq+dd/DRxK0im79lpYySA2HD63t4pali+Lv8GrJGVCxgu+JSUlPPDAA/Tv3594PM6CBQuYNGkSv/71r9m0aVOm40gSQzcl70SroZouXQKGkdSq1halD0L27nEQIqn9+vvfYTxz0iZOu1vvlXLCmWemr5appoZZswIGkqRT9NRTzY/Pst8itX89egDEmm5U68426n7/etBMkiJFId50yJAh1NXVcemllzJnzhyWLFnChz70IQA6d+5M586dKSwsPObfiMViLFmyJBNxJeW4wRuSA5Baqhg7NmAYSa2qW/cYtdureDuP0I3tHFr4OjA8dCxJOikvvwzXHjFx+j53RpRywg03wEd/kX4Uxbp1AQNJ0imqqYGPH9Fv6dYtYCBJrWLKlKitpYqreBiAgy/W4lyLFF6Qgm9DQwPf/OY3mTdvXtPWzvF4tOJmx44d7Nix4w3/RuJ1knQqli1rfsfpfV8JGEhSq/rSl6DmQ9W8nUcAGLShll27htOpU+BgknSCVqyAtWvT+y1n/5/qY7xCUnty0UXwOsPYSje6s41qaujzjjjxuHMfktqfhQujNtFvOUAJd/xmfMBEklpLURGccw7UvpTcmWTT32qor7+JoiDVJkkJGd/SGeAjH/kI3/ve92hsbGwq9MZiseP+kaTW8uTjDUxhBgCrGMA6+nnHqZRDundvvj3iiy8GDCRJJ+nJJ6M2MXG6n1KKpzhxKuWSUaNiTf2W3mxkECs5dChwKEk6CY89Bt3YypksBmAmk+g9qDRwKkmtZdgwmE5l0+MqapkzJ2AgSUCAgu9jjz3Gr371q7TfxePxph9JyqSDsxfQid0ATWdPjBsXMpGk1nT++c0HIRs3BgwkSSdp06Zo4nQErwEwi4lccElJ4FSSWtPFFze/UW3PnoCBJOkkbdwYjb0SaqimquoYL5DUrlx7LWynG68yAoCJzGLLuoOBU0nKeMH37rvvTnvs6l1JIc3+Wfp2zuedB29whLikdqRbNyg8LX0Q8pGbHYRIan+++MX0idPXu1fTu3fAQJJa3Ve+krwJFaLP/G9+EzCQJJ2kb30r/RiKPaOr6dAhYCBJreqaa6I2caNaKQf57vvnhgskCQhQ8J07d26zc3tTV/gez48ktYYNG5rfcTpiRMBAktrE2LHpg5DxzGHfvsChJOkENDREberE6fYzPb9XyjUVFekrfKuo5S9/CZdHkk5GYiv61H7L/vH2W6Rcc+aZ6TeqDd9WQ2NjwECSMl/w3bx5c9rjiooKfvKTn7BgwQK2b9/OwYMHaWxsfMOfhsSshySdpPXrkwOQBgqoYzKXXx44lKRWd845zSdPd+wIGEiSTlBiS9fUidOyNztxKuWa4mLYTE+WMhSAydSxfXN94FSSdGJ27waIN/VbNtGDIW8eGjSTpNY3cWLzuZa9ewMGkpT5gm/fvn2BaFVvLBbjq1/9KrfccgsjR46kc+fOFBUVZTqSpDz17rftZgzzAJjHGPZSzrveFTiUpFb3xS82H4TcemvAQJJ0gp5/HiDetDPJJnpw7e1OnEq56K67kv2WcvZSP3c+u3YFDiVJJ+Dxx2EYr3MaWwGYxlTe+S6P8ZNyzV13wRzGc5BiIJpr+fKXA4eS8lzGC75vfvOb07ZlHjVqVKYjSBLr10PvNXUUEu01UkM1PXoEDiWpTZSVwWwmpA1C/vIXqHfBjKR24ve/h9NZSg+2AFExqKKTE6dSLho0KH17xGpqeOaZgIEk6QT99rfpu5LUUE15ecBAktpEt25wkFJmMwGAs1jEH362PWgmKd9lvOD78Y9/nIKCgqZzfGfPnp3pCJLEhg3NByAXXBAwkKQ2E4vB4OHpg5AubD+81ZgkZb+DB5v3W0pKAgaS1GbOPrv5ziQbNgQMJEknaP/+5v2W4uKAgSS1iQ4doLAw/Ua1s/bOCJhIUsYLvpMmTeILX/gC8XiceDzO1772NWbNmpXpGJLy3M9+1nwA8vOfBwwkqU399a/pk6dTmMH06QEDSdIJ+MMf0vstva70/F4pV/XrB7OYSD2FQPTZv+eewKEk6Tg1NsKTT6b3W86/vTJgIklt6bHHmt+otmxZwEBSnst4wXflypXccsstvPvd7wZg+/btTJ06lfe///384Q9/YM6cOSxfvpyVK1e+4Y8knax7700OQHZRwdZeZ9GtW+BQktrMsGHpd51WUcuvfx0wkCQdp717ozZ14rTonKqjPFtSLrj06jLmMg6A0cxnQa2H+EpqH+rqoJT9TGA2AAsZyeDxXYNmktR2zjqrecH3V78Kl0fKd0WZfsMhQ4Y0becMEIvFOHToEPfffz/333//cf+dWCxGvYfvSTpJQ4rXMGDfGgCmU8mB+sLAiSS1peLi9EFINTUsORQwkCQdp82boYQDTCTaFelVRnDGFO9Sk3LZ/v1Rv2USsyggzlu61gEXho4lSW9ozRqYyCxKiAZb05jKVBf4SjmrXz94jeFsoyvd2E41NTy9JQ7E3vC1klpfxlf4Ak3bOSfEYrGm353IjySdjE2b4MydtU2Pa6ny7jMpD5z7geFspwsQFXz/8Af7EpKy3yuvwHjmUMpBINqt4KKLAoeS1Kb+7d/SdyYZvr2WAwcCBpKk4/STnzQ/PuusswIGktSmCgrgTecVMJ3ozo6+rOcvd68OnErKX0EKvrFYrGmVb6Jwm/jd8fxI0qn4zW+aD0DOOCNgIEkZMWlKchDShw0MYDXbt4fNJElv5J570vstdUXVFLoxiZTTundvvjPJU08FDCRJx+mJJ9L7LfvHVR/j2ZJywYUXNt/W2Y1ZpTCCFHwTLOBKCmHFCgu+Uj4aO7b5Ob5r1gQMJEnHoaAgvd/yz3onTqVcN2wYLGIkO+kERH2WFSsCh5KkN9DQELWJfsteOrK629iAiSRlQt++zW9U8+Z6KYxgBd+T2cLZrZwltYYf/qCBKcwAYBUD6DC0H6WlgUNJanPnn998EDJ/fsBAknQcHnggKvYA7KeUsTeOC5xIUlvr2BEaKWQGUwAYyGpq/rw2cCpJOrZly6AnGzmdZQDUMZlvfrcocCpJbe2GG5qv8F3trs5SEBn/r+7555/vql5JwRw4AKNYQCd2A9Fqv5tuChxKUkbEYrD0tCrYEj2uopYv/QCuvz5sLkk6mvp66MZWRvAaADOZRNWbSgKnkpQJ73oX1Pypmov4BwA7nqoFrgmaSZKO5Xvfa76b2geHhssjKTM6dYIN9GEFgxjMSqYwg//vFw18/4eeQyNlWsYLvs8++2ym31KSmqxfn1wlA9EAZPjAgIEkZdT8LemDkE5lDYCDEEnZaevW9H5LLVX07xEwkKSM2bs3fbXMhR1qsOArKZtt2ZJe8J3GVG7vFjCQpIwoPDylUksVg1lJBXvosWkhMCZoLikfBT3DV5Iybfv25necvve94fJIyqwPfzg5eVrBHlY/uSBwIkk6uk2bmvdbLrssYCBJGfOv/xp95hPG7q/FE64kZbPf/S6937J/XDUFzjxLeWHy5PR+y55nao7xbEltxf/sSsorf/lLcgDSQAELO0yirCxsJkmZc8EFzc+W2bo1YCBJOoaf/jR94rSWaioqAgaSlDFDhsA6+rGa/gBUMp2XX2wIG0qSjmLfPojR2LQzyVr6cumHBgROJSlT3v729LmWoZtrj/FsSW3Fgq+kvFJ6aDdjmAfAPMaweb+zplI+OeOM5gXf114LGEiSjuHggXjTxOkmerCUoa6UkfLEgMN1ksRqmc7sYv1zrwZMJElHt3w5nMmrdGEnEH13DRkaCxtKUkbNZBINh8tNVbgziRSC0wWS8sr2p+sopBGIBiDdPE9GyivV1VDH5LRByK23Bg4lSUex5vkl9GALEPVbhg1z4lTKF506RW3qjWqN09weUVJ22rEDpjKt6XEN1Vx+ecBAkjLqqqtgDxXMZzQAY3mFQzv2Bk4l5Z82Kfh+/vOfZ8uWLW3xp1u0ZcsWPv/5z2fs/SS1X6mTJDVUc/31AcNIyriCguaDkP1bHYRIyk6dF6X3W97//oBhJGXclVemn4e36W9ujygpO91zT/oxFAs7T6WkJGAgSRl12mlRm+i3FNHAoZqZARNJ+alNCr7f+c53GDp0KLfddhtLly5ti7cAYPny5dx+++0MHTqU7373u232PpJyQzyePgCpoZqYC2WkvJRYLVNEA2ftcxAiKfs0NDTvt7ids5Rftm6NdiZpJBq0nF/qCl9J2alDh2S/pYECnt45JXAiSZnUoUPUpu1MUuONalKmtdmUwZ49e/jBD37AmWeeyeWXX87vfvc79uzZc8p/d9++ffzxj3/kiiuuYPjw4Xz/+99n9+7drZBYUq7bt4+mc/B2UcFCzuLGGwOHkhRE6mqZwRsdhEjKPnv3phd8a6ni7W8PGEhSxr3jHbCbTk07k5x5YG40qJGkLLNuyV7G8goA8xlNj8EVgRNJyqSWCr4bHnKuRcq0orb84/F4nIaGBp588kmefPJJSktLefOb38zFF1/M+eefz5gxY+iQ+DY4igMHDvDKK6/w4osv8swzz/D000+zf//+pr8vScfr+d+t5XJWAzCDKTRSyJlnBg4lKeOmTIHaGclBSDU1xOO44l9SVvnz7w7wbmYDsIgz2UFX+vULm0lSZlVWRm0tVYxlHkU0sOu5mXS6/NywwSTpCBseq6OIBiC6ufZ97wscSFJGlZfDZz4D37tzNHsoo5y9FNbVsHEj9OoVOp2UP9q04Bs7PHOaKMzu37+fxx9/nMcffxyAgoICBg8ezIABA+jVqxcdO3YkHo+zb98+Nm3axOrVq1mxYgWNjY1NfzO1yHvk35ekY9n7j/RtEQG6dAmVRlIoN94Id8xIDkKqqGXdOiykSMoqe16aQykHAfstUr5K9E1qqOZf+CUA6x+qteArKetc0mka7Iqua6imq5sRSHmlsBCuuALuvLOIOiZzPi8wlOU89dRG3nKjFV8pU9qk4PunP/2JO+64g2XLlhGLxZoKs5BenG1oaGDp0qUsW7asxb/TUiE3dsTym3g8zpAhQ7jzzjtbKb2kXNVlUfOCb2lpqDSSQikqggbSByFLVmyEfg5CJGWPorr07ZwBiotDpZEUwrBhUZu6PWLHVzzHV1L2GbUr+d00jal85eyAYSQFVUsV5/MCAEWzpsONbwucSMofbXKG7zve8Q4WLFjAd77zHXr27NlsVe6RP/F4vMWflp6bEI/H6dmzJ3feeScLFy7k2muvbYv/KZJySMGM9ILv+98fMIykYK64ImpTJ08X3z89UBpJai4eTy/q1FDNJz8ZMJCkYM48E+Yxhr10BCBW63l4krLLqlXRMTkAu6hgIWdxxhmBQ0nKuNGjozZ1ruWVe7xRTcqkNin4ApSWlvKZz3yGpUuX8r3vfY8zzjijqZB7pJYKu0eu5AWaXn/66afz/e9/n6VLl3LbbbdR6hI9SW+koYEpzABgFQNYRz8OHQqcSVIQicmH1EFImatlJGWRdeuSE6f7KWUu49zOWcpTu3cndyYB6H9wGWzaFDiVJCXVPbyWgawGYDqVNFJIz56BQ0nKuN69YcSI5K6KAJWN3qgmZVKbFXwTysrK+NSnPsXixYv5xz/+wYc//GF69+7d4orehJb+2WmnncbNN9/MU089xeLFi/nkJz9JWVlZW8eXlCsWLqQTu4Fkx+OCC0IGkhRaasG390oHIZKyx+4VWxjO6wDMZBKHKOE97wkcSlIQQ4dGberkKa7ylZRFOs5tfnxW//6h0kgK6ayzYCWD2EB0ZNaZO2uj7YskZUSbnOF7NBdccAEXHK6wvPLKK0ybNo3Zs2ezbNky1q9fz+7dUTGmrKyMPn36MHToUMaPH091dTUTJkxocdWvJB2Pfc/WHN4ELTkAedObwuWRFNaHPgS//OVgNtCL3myk1/LDgxD7GpKywJ//rZbPH75O9FsSW6RJyi8f+Qi8+GL6jWr7nqul49s8D09Sdlj5x2lN1zVUO9ci5bGbboK//jVGLVW8nUfoFt/GoUVLKD5rWOhoUl7IaME31dixYxk7dmyot5eUZzY/WsPAw9eJyZLu3cPlkRRWdINpchDSnW3w+uswfHjoaJJEt8XNV8pIyk+nnRa1qQXfXU8lb2aVpNCm1Kf3W85wMZ+UtxL9lhqqeTuPALD6gRqGfsmCr5QJbb6lsyRlg04LogFIAwVN51/17RsykaSQKiujNnXy1O0RJWWLoZvSJ0579AgYRlJQ558ftSsY3LQ9YpfFbo8oKUs0NDBi1wwAVjCI9fSloiJwJknBnH121KbOtRTNdK5FyhQLvpJy3+7ddF45D4B5jGEPFS7ik/LcRRdFberKuQW/chAiKbwtm+NMqo++jzbSk+UM4Uc/ChxKUjCdOsHgwZDYmQSgdM/hnUkkKbD4vPmUx/cAybHVTTeFTCQppI4dobQUZjCl6Xf1LznXImWKBV9Jua+ujoJ4I5AcgJSXhwwkKbSuXaM2dRBSML2m5SdLUgbV/HYJp7E1uqYaiHkMhZTnBh4+myZti3d3JpGUBdb/tfkxFImxlqT81KcPbKM7i4lW2/TfNAsOHgycSsoPFnwl5b6a5gOQpUtDhZGUDXr3jtrUQcjpOx2ESAqvuC7Zb0ms5ps6NVQaSdlg5MioTTuKosYb1SSFVzB9WtN1Yr7lvPNCpZGUDVavjtrEd0JJ4wGYOzdgIil/WPCVlPtS7n5PdDY+97lQYSRlizvvjNrE5GlJ/CD1Mx2ESApr4a/Tb1QbMsSdSaR89+lPR+10Kpt+t/c5V/hKygKHbz45RBEzmQS4wlfKd1/7WtSm3ajmziRSRljwlZTz4ocHILuoYCFnAdF5EpLy2+mnR23q9ojL/+ggRFI4jY1QTfoK39GjAwaSlBU6d47a7XTjVUYAUDJ/Fhw4EDCVpLy3cyc9Ny0AYC7j2EcZAwYEziQpuA4doja14Bu34CtlhAVfSblt7Vpih/cSmcEUGikEYOzYkKEkZYNzzona1EFIyUy3R5QUzp6tB5jAbAAWcSY76GqfRVJaASVxo1pRw0G3R5QU1owZFBAHkt9Nia1cJeWvEdG9acxmAgcpBiA+zbkWKRMs+ErKbS2c3wtQXd3SkyXlk169onYO45sGIUWzvOtUUjibn5pNKdFZ4ol+y+23h0wkKRvEYnDVVdG15/hKyhotzLd8/euhwkjKFpMnR+1BSpnNBAAKXl0EO3aECyXlCQu+knLbUQq+noUnCWDqVDhAh6ZBSL8dDkIkhbPiD837LZ06hUojKZucFZ1MkzamaZzmjWqSwml4aVrTdeK7qVu3UGkkZYuKiuR12o1qM2ZkPoyUZyz4SsptRyn4FheHCCMp26xYEbVpg5Dp08OEkZT3ei5r3m9JnIElKb8NHx61cxnHAUoAt0eUFFA83jTfso2uLD58vviYMSFDScoGZWXJa3cmkTLLgq+k3NXQQPzw3WOrGMA6+gHwjneEDCUpm3z1q1GbNgipdbWMpDDK50WTIPvowFzGMWVK4ECSssY73xm1ByllFhMBKFyyGLZtC5hKUt5auZLCTRuAaCwVPzzFXFkZMpSkbHH55VGbuvjGuRap7VnwlZS7Fi4ktns3kN7BGDUqVCBJ2ea006I2teB76CUHIZIC2LyZIfVLAJjJJOopZvTowJkkZY2jbo/oziSSQmhhN7WCAigpCRVIUjYZNy5qX2M42+kCQMPLNdHuAJLajAVfSbkrZQCSOiniahlJCYliymJGNA1CYrUOQiQFkFK0SUycFhaGCiMp2xQVJa9dLSMpuBYKvo2NEIuFCiQpmyTmXuMUMJ1o6X/hxvWwZk3AVFLus+ArKXcd5fzet789RBhJ2eiMM6I2dRBStGk9rF4dMJWkfFT/z+Y3qn3604HCSMpKidUynocnKbTGl6Y1XSe+k/7rv0KlkZRtEkdRwBE3qtlvkdqUBV9JuetwJ6KBAuqYDMDYsdE2Q5IE0R3onTtH157jKymkrY83v1Gta9dAYSRlperD86WvM4ytdIse1Na6M4mkzDp0iPjMmQC8zhlspicAkyaFDCUpmxQUQP/+0bVzLVLmZEXZ4x//+Aef/vSnmTRpEn369KGkpISioiJeeuklGhsbWblyZdrPgQMHQkeWlO1274Z58wCYxxj2UNH0a0lKtXNn1Lo9oqRg4nE6L4q+dzbSk+UMAaBv34CZJGWdQ4cSV7Hk5OnGjbBiRahIkvLR3LkUHtwPpI+hzjorVCBJ2Sixe3NiNzXAuRapjQUt+C5cuJBzzz2Xt7zlLfz3f/83s2fPZuPGjdTX1xM/fIdqQUEBb3nLWxg6dGjTzze/+c2QsSW1B3V10QEypA9A/PqQdKTrr4/atEGI2wxJyqTXX6fDnq1Aot8SHYCXemanJN1yS/LaG9UkBXOU47N69gwRRlK2+vzno3Y9fVnJwOjBjBnQ0BAulJTjghV8H3/8caZOncq0adOIx+NNBd5YLNbsuR/96EebnhOPx7n//vszHVdSe5My6eEdp5KO5ZxzojZ1EBJ3ECIpk1qYOL3yylBhJGWr1GKK5/hKCmX/c837LTfeGCqNpGyVus1709zs7t2wcGGYQFIeCFLwnTdvHtdffz27du0iHo8Ti8Waflrynve8B0gWg5csWcJCvxgkHUvKpEfqZMiQIQGySMpqZ56ZvE58X8T27HEQIilj4tOaT5weZWgkKY8NGJC89jw8SaHEp00D4AAlzGYCACNGBAwkKSu1NNcSPbDfIrWVIAXfD3/4w+zevbtZkTexyvdI/fv3Z+LEiWm/e/rpp9s0o6R27nDBdxcVLGAUAJ06RT+SlOotb0leuz2ipBAaXk4WfBPby3/mM6HSSMpWHTpAcXF0vZmeLGUoAPG6utQDfiWp7WzbRseViwGYxUQOUgrAxz8eMpSkbDRuXPLagq+UGRkv+D755JPU1tY2K/QerdibcM455zStBgaYPn16m+aU1I6tXQurVwMwgyk0Uggkz46QpFRFRTDw8HEybo8oKeP27yc2ZzYACxnJDroCMHx4uEiSstf/+T/J66YdAfbtg/nzAyWSlFdaOD5r2DDP75XUXCwGgwdH13VMpiFRinKuRWozGS/4/vWvf226ThR5b7vtNlatWnXM141LuSUkHo+7pbOko2vhHDyAoUNDhJHUHmzYELVpgxDvOpWUCbNnU9gQrcxL7bf06BEqkKRsdvrpyWtXy0jKtNRdSRL9lsTOA5J0pK1bo3YPFcxndPTglVdg795woaQclvGC7wsvvEAsFmtarXvJJZdw55130r9//2O+rk+fPmmP36hALCmPHaXge/XVIcJIag9uuSVqUwchcQchkjKhhZUyxcVQUhIqkKRs9p73JK/TjqJwtYykDDj0YvP5li99KVQaSdnuk59MXjfdqNbQALNmhQkk5biMF3zXrVuX9vimm246rtd1OuLgzZ07d7ZaJkm5pXFa84nTykooLw+VSFK2e9vbkteJQUisoQFmzgyUSFK+2P9ccuI08f3zxS+GSiMp23XrBjffHF3PYiL1h4+vqX/ZFb6S2lg8Tv0/o37LJnqwlGjLgcsvDxlKUja74orktUdoSW0v4wXf7du3pz1+o5W9CVsT6/8Pa2xsbK1IknJJQwPxw2d8r2IA6+gHwIABIUNJynaJM3zB7RElZVbj4a0R99GBuUTH2NhvkXQsiX7Lfjo2fW8ULpoPu3YFTCUp5y1ZQsX+LUDi5voYAJ07B8wkKauljmvSdiZxrkVqExkv+HY+ohewcePG43rdsmXL0h537dq1tSJJyiULF1K4dzeQXrS57bZQgSS1B6NGJa9TvzsaaxyESGpDmzdTtm4JADOZRD3RIXjXXhsylKRs98EPJq8Tk6exeBzq6gIlkpQXWjg+q29fKCoKFUhSths8GEaMiK7nM5q9dAQgbsFXahMZL/j26NEj7fHTTz99XK+7//770x736tWr1TJJyiEtDECKiuC880IFktQexGLw4IPR9TzGNA1Cdj7lIERSG2rh/N5Ro+C000IFktQeDB0KQ4ZE126PKClTEts5Q7Lf8rWvhUojqb144IGobaCIOiYDEFu2DDZtCphKyk0ZL/hOmjSJeDxOLBYjHo9z//338/LLLx/zNT/96U+ZPXt202tisRhTpkzJUGJJ7UoLBV93gJd0PPpFO8CnDUK6bnUQIqkNtdBv2bs3VBhJ7cm+fVHr9oiSMmX/88l+S+Jmkz59QqWR1F707Zu8tt8ita2MF3wvvPDCputYLMb+/fu55JJL+NjHPtbsuQ8++CBXX301H//4x4nFYkf9O5KUED88cdpAQVPBZtKkkIkktRep95J5jq+kjGih4HvOOaHCSGpPxo6N2lc5k510ih64wldSW9m/n7JXZwGwiDPZQVcALrggYCZJ7ULq7kXOtUhtK+MF3xtuuCHtHN9YLMbevXv5+c9/DkA8Hm9q/+u//otHHnmk6XcJ3bp147rrrstcaEntw+7dxF+ZB0Rbsu6hAoBPfzpgJkntRmEh/PCH0XXqXacbH3EQIqkNxOM0vBx9v2ygFysYDMB73hMylKT24n3vi9pGCplOZfRgzZroR5Ja2+zZFNQfAmAaUwHo0QPKykKGktRefP7zUZta8K1/2bkWqbVlvODbqVMnbr/99rQibmKr5iPF4/GmLZwTj2OxGJ/97Gfp0KFDxjJLaidmzqQgHu3fnFqsOeLocEk6qkGDojZ1ELLvWVfLSGoDr71G4c5tQKLfEo157LdIOh49eyavXS0jqc21sCtJUVGoMJLam8T27ysYzEaiTky8phZaqAlJOnkZL/gCfOlLX+K8885rVvQ9UiwWa/b7888/n88nbgmRpFQ1zc+TATjvvBBhJLVHiRMjUgchpy11ECKpDaQUZVJvVKusDBFGUntz/vnJa8/Dk9TmWij4Tp0aKoyk9ubqqxNXsabvkOKdW2HJkmCZpFwUpOBbUFDAI488wqWXXtqs6Jv6kyoej3PJJZfw0EMPtVgclqStjzUfgHzzm24xJOn4deoEF18MqYOQioPb2DnLQYikVtbCxOlll7laRtLxKS+HiROj69SbXQ88784kklpf4rtlHx14hegQ8c99LmQiSe3J0KFR3wXcmURqS0EKvhBt7fzoo4/y4x//mP79+zdt39zST9++ffnRj37Eo48+SqdOnUJFlpTlCmdEA5BdVLCAUQCMGBEykaT26KyzojZ1EPL6/zoIkdS66l9KFmVmMAWAfv1CpZHUHp15ZtSuox+rGABAbOYMaGgImEpSztm0idI1SwGoYzL1FAPQrVvIUJLam6FDo9aCr9R2gt4/XlBQwEc/+lFuueUWZsyYwQsvvMC6devYsWMHXbt2pU+fPrzpTW+isrLSVb2Sjm3tWrrsWg1Ek6aNFAJwwQUhQ0lqj97xDvjhD9MHIR3n1gA3hgslKbfs30/hK7MBWMhIdtAVgLe/PVwkSe3Pu94Fv/tddF1LFQNZTcn+XbBoEYweHTacpNyRsivJNJL7OCduOpGk43H22TBvHkwneYZNvKYGqz5S68mKDcNisRiVlZVUemCVpJPVwraIV18N3buHCiSpvXrzm6M2dRCy6xnvOpXUimbPJnboEJB+9uZVV4UKJKk9euc7obgYDh2KvkveyYPRP6itteArqfW0MN9y/fXg2hxJJ+Lzn4ef/xy20Z3FDGcErxGfOYvYwYNQUhI6npQTgm3pLEmtKV6TLMYkBiDebSrpZJ13XnIQAjCuYRYcPBg4laSc0cLEKUBhYYgwktqzq6+O2tSdSQ6+6Dm+klpPfFrzfovHUEg6UV27Jq8T/ZaCgwfglVfCBJJykAVfSTmhsYUByPjxodJIau9OPz1qE4OQDhyAuXMDJpKUU45S8JWkE3XRRVE7gyk0HJ7iaZzmziSSWkljI0yPvlPW0YdVDARgypSQoSS1R6edlrxOO8e3xhvVpNaS8YLv9u3bufjii7nooouafn70ox8d8zV333132vPf8pa3sGPHjgwllpT1GhqI104HYDX9WUd0q+nFF4cMJak9u+OOqE0dhMy/18lTSa3k8KTGPjrwCmMB+O53QwaS1F595CNRu4cKFjAKgKIFc4nv2RswlaScsXgxscNzsNFNatE+zm99a8BMktqtxHdH2k2vtc61SK0l42f4PvLII/zjH/8gFosRj8cpKSnh/vvvP+ZrrrvuOj772c9y8OBB4vE4sViMhx56iPe9730ZSi0pqy1cSNG+3UB6h6GiIlQgSe1d585Rm/qdsuHhWkbf/fFAiSTljE2bYOlSAOqYTD3FAPTqFTKUpPaqqAg6doR9+6J+y1jmUUQDa/42i/7Xnxs6nqT2btq05CVTm67Ly0OEkdTeDRgQtXMYz0GKKeGQBV+pFWV8he9zzz0H0FS4ffvb307fvn2P+ZpevXpxzTXXEI/Hm373zDPPtGlOSe3IUbZFdAAi6WQdOQgBGLLJQYikVpAyoZHab3nTm0KEkZQL3vzmqE3dmeSQ5/hKag1HmW8pLQ0RRlJ7V1IStQfowBwOn8W3aBG4m6vUKjJe8J09ezaxWKzp8Vve8pbjet2bD49gEiuD53qOnqSEFgYgia3NJOlkxGLwb/+WPggZsn8RW5c5CJF0io5S8B06NEQYSbng17+O2tTvlPUPeaOapFZweL6lkRgziA7udTtnSScrdcPWpn5LPA4zZoQJJOWYjBd8ly1blvZ46HHObAwZMiTt8YoVK1orkqR2rnFaNABpoIA6JgMwfHjIRJJywcSJUZtYLVNAnJq7HYRIOkUt3Kjmds6STkWPHnD66TCf0eyhDIA+K1zhK+kU7d1L/PCCm/mMZjedADjjjJChJLVnnTolr1N3JnFbZ6l1ZLzgu3PnzrTHRUXHd4zwkc/btWtXq2WS1I7t2UNs/jwA5jGGPUQH944cGTKUpFxQdXjskbZ12RwHIZJOQTzeNJmxgV6sZBAAGzeGDCUpF9TXQwNFTTfADmG5Xy6STs3MmcQaGgB3JZHUOlIX6FjwlVpfxgu+pUcc8nC8K3VXrlyZ9rgkseG7pPxWV0essRFI7yhcckmoQJJyxeDB0fkyqd8tB19wtYykU/Daa7BtG5CYOI2OunnXuwJmkpQTfvazqE3tt9S/5OSppFMwbVrykqlN1x/6UIgwknJBcTF07RpdL2YE2+kCQP1LNdHNsZJOScYLvt27d097/PDDDx/X6458Xrdu3Votk6R2rIVtEQsK4Ih7SyTppNx8c/ogZPwBByGSTkEL/RZwpYykUzdwYNSmfres/JMFX0mn4Cj9loqKEGEk5YpLL43aOAVMpxKAoo3rYM2agKmk3JDxgu+gQYOIx+PEYjHi8TgPPfQQTz755DFf89RTT/GXv/yl6TWxWIzBgwdnKLGkrNbCAKSxEWKxUIEk5ZKSkvRBSF/WE1/tIETSSTrKxOmQIQGySMopiTM1U1f4lngUhaRTcbjfsosKFjCq6dfHeTqfJLVo4sTktds6S60r4wXfs88+u+k6FovR2NjINddcw913383BgwfTnnvw4EHuvvturrnmmmP+HUn56cAB2PS35gOQ97wnZCpJueTjH4/a1EHIlkfd1lnSSTo8cdpIrOlGEoh2E5CkU5HY4Wglg9hALwC6Lq51ZxJJJ2fdOli1CoAZTKGRQgC+/OWQoSTlgk99KnltwVdqXRkv+L71rW9tuk6s1t23bx+f+tSn6N69O+eeey5XXHEF5557Lt27d+dTn/oUe/fubfZ3rrjiikzGlpSFnrlvLT33rwbSByBTpx7rVZJ0/BInUaQOQhb8ykGIpJOwfz/MmQPAIkay8/BW8UVF0LFjyGCScsXb3gYQa9pBoOLgNnj99aCZJLVTR9mV5E1vChFGUi4pK4Nvfzu6Tp1raZzmzfXSqcp4wffNb34zo0ePBqIVvok2Ho+zd+9epk2bxhNPPMG0adPYu3dvU1EYkgXi0aNHc+GFF2Y6uqQss//5ZNEldQAyalRLz5akE9ejR9SmDkJ6r7TgK+kkzJoFhw4B6f2W+nqPopDUOjZsiNq01TI1Tp5KOgnTpiUvSd5V7wl7klpD795Ru56+rGRg9GDGDGhoCBdKygEZL/gC3Hnnnc1+F4vFmgq/iZ/E74583l133ZWpqJKy2OoHmt9x+olPwEUXhUokKdcUFsLIkemDkH5rZxCvdxAi6QQdZaXM5MkhwkjKRf/6r1Gb+h0z7b9r3dVZ0ok7Sr9l+PAQYSTlmtQTPBM3qhXs2Q2LFoUJJOWIIAXfSy+9lH/7t38j3sKoI1HkPbLQm/DFL36Rt7zlLW0dUVKW27EDRu9JDkBqqeKmm+CHP4wKNJLUWm68MWoTg5BO7Ob1hxcGTCSpXapteWeSyy4LEUZSLho6NGpTzwiP1dY4dyrpylghWQAA3lpJREFUxDQ0RCvtgJUMZD19ASgvh4IgM8mSck2nTsldjtyZRGo9wf4z/dWvfpVvfetbFBYWtlj4TRWPxykoKOBb3/oW//Ef/5GhhJKy2ZLFDVQyHYDV9Gct/Rk5MnAoSTkpcRd76iBk+9/d1lnSCTo8ebGPDsxjTNOvTz89VCBJuWbYsKjdQVcWcSYAE5jNq3MPBEwlqd1ZsAB27wbSb1LbsydUIEm5JhajaQeS1O+Z1JtkJZ24oPdl3XHHHcyfP5+bbrqJzp07p23nnPjp3LkzN910E/Pnz+eOO+4IGVdSFtn+8kI6kT4A+ehHQyaSlKuuvjpqUwchDdMchEg6AZs2wdKlANQxmXqKm/7Ru98dKpSkXNOvH3zpS9F14ka1Ug6y6PdzAqaS1N7U/9PtnCVlTh2TaUiUqSz4SqekKHSA4cOH85vf/IaGhgbmzp3LunXr2L59O127dqVv376MGzeOQvdnlXSE579TQ+Ko3hqqGTAAevYMGklSjurYES64AGY8Fw1CCmmkdLbbDEk6AUfZzrlHD6ioCBFIUq76z/+Ev/0NamZV835+A8DqP9cSj1dxlJOzJCnN6/dPI7GB2jSmNv0+9cxNSTpVl14Kf/877KGCBYxiLPNg7lzYty+aiJF0woIXfBMKCwuZOHEiEydODB1FUjswuSH9jtPVqwOGkZTzDhxIH4SM5RXYuxfKykJHk9Qe1LS8Umbz5hBhJOW6Pn3Sj6KopoYdO/6Vrl3DZZLUfnSYE/Vb6ilkJpOafu/5vZJa06uvJq9rqI4Kvg0NMHMmnHtuuGBSO+Z/qiW1SwPXRStlGiigjsluhyipTd1yS9QmJk+LaIBZswImktSeHG1rRO91ldQW7rgD5jCeA5QAUEWtZ29KOj67djFo13wA5jKOfSRvcL3uulChJOWiMWOS16k3qrmts3TyLPhKanfWL9kTra4D5jOaPVTwzncGDiUppyVuLk0t1Cz5rYMQScehsZGD/4y+L9bTm5UMavpHN9wQKpSkXHbuuXCIEmYR3VVyJouZ+fS2wKkktQcrH5xBAXEgfewDMHhwiESSclVVao3Xgq/UKoJv6VxbW0ttbS0rVqxgx44d1NfXH9frYrEY99xzTxunk5SNlvyhjj40AskBSL9+IRNJynW9e0dt6iAkdcWeJB3Va69RdmA7kOi3JA/RtP8iqS2URAt7qaGaqUT9laJZ0+H9lwZMJak92Py3mqZb01ILvh06QJcuYTJJyk3bUu5Fm8cY9sU60jG+L+04HEknJljB98EHH+QLX/gCS5YsOeHXxuPxVin4/upXv+KDH/zgCb/u3nvv5eabbz6h19x88838+te/Pu7n79q1i4qKihNMJuWJFs7Bq64+2pMl6dQlJjfmMYa9dKSMffRc7l2nko7DUc7vHTUK3va2EIEk5YvUG9W6vFoDWPCVdGydF0xruk7tt3zmM1BcHCKRpFyVuqVzA0XMiE/mPF6EZctg0ybo2TNcOKmdCrKl89e+9jWuu+46lixZQjweP+EfSflt3V/TJ04nTYKi4PsVSMp1N94YDULqmAxA9+2HByGSdAz7nm1e8L3jDpg+Hbp2DRRKUs678sr0Ys2ef3ijmqQ3EI9TPj/qt2ynC69yJgBz58J//mfIYJJy0ZHbxKfeqBavnZ7hNFJuyHjBt7a2lv/7f/9vU+E2Foud8E9ovXr1Ch1BymuJbcl2UcECRlFYGDiQpLywd2/UeraMpBNx4IXoe6KRGDOYAkRn95aVhUwlKddt2QJLOIMtdAegsqEGvIFe0rGsWkVf1gPRmCdOAW96E4wdC1kwHSspxySOzkpInWvZ+6xzLdLJyPiauP/+7/9u2pIZSLvOtHe9611ceOGFx3zO1Vdfzdy5c5seDxs2jMsvv/yU3/uFF15gwIABR/3n5eXlp/weUi6Kr1nLAFYDMIMpNFLINdeEzSQpP0ydCn/5SwsFX/dklXQ0+/fTadkcABYxkp1E+8OPHx8ylKR8MGgQvPxyjFqqeCuP0/XQJlixAoYMCR1NUpaKT6shMUOb2CFg6tRweSTlttQtnSF9Z5JYref4Sicj4wXfF198sVmxN9Q2zRUVFcc8J7empiat2Atw++23U1Bw6gujBwwYwBAHWtIJ2/JYLT0OXyc6Au95T7g8kvLHeedFbWrBt3FabZjzMSS1C/GZsyhsOAQk+y3jxkErDCck6Zguuwx+/3uaCr5AdKa48xCSjmLBr2oYffg60W/x3lZJbeXINYArGMxGetKLTRTOrI12JnF7AemEZLzgu379+rTH8XicCy64gOuuu44BAwZQVlZGUVFRVmzd/J3vfCftcY8ePbj55ptb5W9fffXVrFixgr1799K1a1dGjRrF5Zdfzi233EL37t1b5T2kXLTl0Zqmgm+i6NKtW7g8kvLHaadF7XKGNA1CGqfVUuAgRNJRbHu8hkTPPjFx2r9/uDyS8keia5K6WobaWnj3u8MEkpT1iqZPa7pOfHckxkCS1BYGD442IIlEO5Ncyd8o3b0Vli6FM84IGU9qdzJe8C0vL+fgwYNNq3uvuOIKHn744UzHeENLly7lz3/+c9rvPvGJT9CxY8dW+fupK4c3bdrEc889x3PPPcedd97J/fffz6WXXtoq7yPlmi6Lklt6JAYgFnwlZcKIEYmr5CCkaOdWWLIEhg0LGU1SlopNb95vef/7Q6WRlE8S2yROp7Lpd43TatyZRFLLDh1iyNY6AJZwOpvpCcDo0cd6kSSdmo9/HD7/+eTjxFwLEO1MYsFXOiEZ7+sPHTo07fHHPvaxTEc4LnfddReNjY1Njzt27MgnPvGJNn/fzZs3c/XVV1NXV9fm7yW1Ow0NdHp1OgCr6c9a+jNpUuBMkvJGLJa8w73ZOb6S1ILGl6OC71468gpjAY+ikJQZfftG7WZ6soTTAYjXzYRDhwKmkpS1XnmF0sb9QPImtf/4D4+hkNS27rgDUtcCpu5MsucfzrVIJyrjK3yvuuqqtGJma5yH29q2bt3Kvffem/a7D3zgA/Ts2fOU/u6ZZ57JO97xDs477zyGDh3Krl27mDFjBv/5n//JunXrmp63f/9+br/9dp577rmj/q0DBw5w4MCBpsc7d+4E4NChQxxq4wFc4u+39ftIzcybR3njbiDZASgubuTQoYaQqbKOn1Gp7XTqVMSWLbG0QUjDtGk0Xnfdcb3ez6eUvVr987lpE6ftWAZAHZNpoIiysjiHDtW3zt+X8oz/DT0xZWUAxUB0o9oZLKXwwD4OzZoFEycGzabc4+ez/Tvw9EtUHL5OjHV6967n0KF4uFBqFX4+le0uuww++MFC7r23IG1nkj3/qKEkD/699TOa31r7//eMF3xvueUW7rzzTnbt2gXA3/72N9761rdmOsYx/fjHP2bv3r1NjwsKCrj99ttP6W9+7Wtfo38LB3ZVVlZy1VVXMXbsWLZt29b0++eff561a9fSr1+/Fv/eN77xDb7yla80+/3f//53yqKRXZt78sknM/I+UsKgJ58kMTWRGIDs27eFRx99KVyoLOZnVGp9a9deCRSmDUJ2/P3vvPDooyf0d/x8StmrtT6fvadPZ+rh60S/Ze/eGI+e4PeFpHT+N/REXA1E30E38DsAan94H5vfue5YL5JOmp/P9uusPz9E4gSbRL+lvv5ZHn10T7hQalV+PpXN+vfvDUxlG915jWEM53W6LpvJYw89RLwo4yWsIPyM5qfUOmRriMXj8YzfqnXPPffwkY98BIDCwkLuu+8+3v3ud2c6RosOHDjAkCFDWL9+fdPvrr32Wh588ME2fd/PfOYz3HXXXWm/+9vf/sYVV1xx1JxHrvAdOHAgmzdvpnPnzm2a9dChQzz55JNccsklFBcXt+l7SakKPv5xCn/xCwAu4Fme5wIeeKCet7/dO05T+RmV2s5ddxXwhS8UArCY4QzndeKlpdRv2QIlJW/4ej+fUvZq7c9nwb//O4Xf+AYA1/EH/sR1fOtbDdx2W+MbvFJSS/xv6Im75ppCHn20gLN5iZc4F4DfdryZC5f8jB49AodTTvHz2f4dPGMs5ate5SDFdGYnB+jAvn2HKCwMnUynys+n2ouysiLq62P8hvfyXu4H4NDL02Bybp/n52c0v+3cuZMePXqwY8eOVqnrZfz2iJUrV3LJJZfw4Q9/mF/84hc0NDRw44038stf/pIbbriBcePG0a1bNwqPo0cxaNCgVs933333pRV7Ae64445Wf58jnX766c1+t3379qM+v7S0lNLS0ma/Ly4uztgXQybfSwKonxad39tAAXVMBqBz5yL817Blfkal1ldRkbyupYrhvE7swAGKFy2CyZOP++/4+ZSyV2t9PuMzksfYJFbKdOpUSHGxM6fSqfC/ocdv8OConcVEDlFEMfWM3Tedf/yjmBtvDJtNucnPZzu1bRvFq14Fou+LA3QAoEMH/7/MJX4+le2uvx7+93+juZZEwXf7kzPpObX6DV6ZG/yM5qfW/v884wXfIUOGEIvFmh7HYjHi8ThPPfUUTz311HH/nVgsRn19655/FY/Hm62yPffcczn77LNb9X1asnTp0ma/6969e5u/r9Ru7NlD4YJXAJjPaPYcPl1mUm7f5CUpy6TWdGuo5ib+N3pQW3tCBV9JOa6xMfpeANbRh1UMBGD06JChJOWbSy+FH/8Y9tORuYxjMjMZxQJeXL0TaNudwSS1I9OnN10mblKTpEy77LJkwbdJTS1wa7BMUntTEOJN4/E4qTtJJ4q+J/rT2h599FEWLFiQ9rvPfvazx3zN8uXLicViaT/PPvts2nOeeOIJvvjFL7Jjx44W/8batWu59957034Xi8WYZCVLSqqrI9YYbYGYOgDp1i1UIEn5aPz45HX6IKQm82EkZa/XXiO2YzuQ+K6IbngdMyZcJEn555pr4P5ogUxTv6WAOE99q+7oL5KUf1LGMon5losuChVGUr563/uidjYTOEi06rFwZm3ARFL7E6TgmyiMQrL4e2TR9Fg/beW73/1u2uMRI0Zw1VVXnfLf3bdvH9/4xjcYMGAAH/nIR3jwwQeZP38+dXV1/OQnP6GyspJt27alveaKK66gV69ep/zeUs5oYQBSVgZt+JUgSc106JC8Th2EJFbySRLQYr8FoLw8RBhJ+ezGG+Fd70r/Ljpjq/0WSSla6Ld4zrekTIvFYMAAOEAH5hDdbd913ULYuTNwMqn9yPiWzqnasnh7ourq6pqtzL399tspKGi9mvju3bv5xS9+wS9+8YtjPu+0007je9/7Xqu9r5QTWhiA7N0bKoykfJXadUkMQiqZAYsWwY4d0KVLuHCSssdRCr6lpSHCSMp3paXpO5OcW+jOJJIOi8dh2jQANnMaSzgDgFmzQoaSlK9Wr47aWqqoZAYFxGHGDLcdkI5TkBW+wElt4dxWWzlD89W9vXr14gMf+ECr/O3y8vLjLhyPGjWKZ555hmHDhrXKe0u5omFadBf6LipYwCgAvvzlkIkk5avU7kHT5Gn88CBEkqCp4NtIjOlUAuDmPZJCue02WMRIdtIJgEkNtRw+LUdSvlu6FLZsARI3qUV3uP7LvwTMJClv3XJL1KYdoeWOatJxy/gK3/PPPz+rVvYCrFy5kj/96U9pv/vEJz5Bh9R9G0/BJZdcwqpVq3jooYd4/vnnmTdvHqtWrWLXrl2UlpbSu3dvJk+ezDve8Q7e9a53UVxc3CrvK+WMdesoXLMKgBlMoZFCAIYMCZhJUt5KvSerlio+wY8OP6iFiy8OE0pS9ti3D+bMAWAhZ7GLzgCMHBkylKR81rkzxClgOpVczDMMYA2zHl3DxCv7h44mKbSj7EpSUREijKR816dP1KZ+H8Wn1ZBd1SQpe2W84HvktsnZYNCgQRw6dOikXjtkyJDjWnXcr18/Pvaxj/Gxj33spN5HymspA5DUO7wqK0OEkZTvRoxIXqcOQrzrVBIQ7YFYXw+kf0fUuIOqpECGDo3aGqq5mGcAOPTPWrjy2oCpJGWFoxR822iDRUk6pp49o3YxI9hBZ7qwk3htrQVf6TgF29JZko5bCwOQWAzGjg0VSFI+u+aa5HViEAJY8JUUOcrE6Wc+EyKMJEHR4Vv9U2+ejXsXiiQ46g32550XIoykfHfddVGb2JkEoGDdWlizJmAqqf2w4Csp68VbmDj99KcDhZGU90pKoh9IH4Swdi2sXh0umKTscJSCb+/eIcJIUmTq1PTvpJLZ3qgm5b0DB6KdSYBXGcF2ujX9o/LyUKEk5bNOnZLXnuMrnTgLvpKyW0MDTJ8OwGr6s5bonKkuXUKGkpTvUncYcBAiKc3h74E9lDGPMU2/7tUrVCBJgmnTYD19WcUAAEbumh6NtSTlr9mz4eBBAKYxNe0fDR4cII+kvNexY/I67QgtdyaRjosFX0nZbeFCYrt3A+n/of/Qh0IFkiT4xS+S157jK6nJpk2wbBkAdUymgaKmf3T55aFCSRJ87GNRm+i3dKzfDYsWBUwkKbij7EoCUFyc6TCSFB3h94lPRNdpR1E41yIdl6I3fkrbevbZZ3niiSeYOXMmmzdvZseOHTQ2Nr7h62KxGEuWLMlAQklBpfwHPXUA0q1bS0+WpMyYMCFarbdx4xErfL3rVMpvRzkHD6CiItNhJCnpjDOitpYq3sUD0YOaGhg9OlwoSWEdpeA7blyIMJIUuewyuPvu5M4kA1lNY+0MChsaoLAwdDwpqwUr+L766qu8973vZebMmU2/i8fjx/36WCzWFrEkZZujTJx6noyk0DZujNrUQQgzZkTbIzoIkfLTMVbKFAW/1VZSPkt0TVK/m+I1tcTcOknKX4f7LfvowFySVd7UMzQlKdNGjkxe11DNQFZTuGdXtDOJN6pJxxRkS+eFCxdy9tlnM3PmTOLxeNMPRIXcN/qRlD/i06IBSAMFzGAKAAMHRlt8SFJIn/508rpp8nS32yNKee0oBd+LLw4RRpKSrrgiaqPt5qOpoMRYS1Ie2rQJDu+cOJNJ1JPcw/nb3w4VSpJg+PDkddquSW7rLL2hIAXfm2++me3btwPNC7yS1GTPHuKvvALAfEazh2gvxPe8J2QoSYpceGHy2m2dJdHY2DQJsY4+rGJg0z96xztChZKkSOJInD1UMJ/Dq2PmvQJ794YLJSmclMLJNKam/aNJkzIdRpLSJeZbLPhKJybjBd+XX36Z6dOnNyvupq70bWlr5xPZ7llSjqiroyAenemdukrm9NNDBZKkpNTvIgchkli8GHbsABL9luR4p3//QJkk6bDu3ZPXiX5LQWMDpByzJSmPHOMYitLSTIeRpHSvvx61M5jStDOJcy3SG8t4wfeBBx5oun6jAu+RWz0f7bmSclPqFmOpAxBX+ErKBmPGJK/rmExjorjjIETKT8eYOL388kyHkaR0qeeIp31H2W+R8tNR+i1VVR6hJSm8q66K2j1UsIBR0YO5c2HfvnChpHYg4wXfmUfcPTpkyBA2bNgA0LTqNxaL0djYyLp167j77rvp2rUr8Xiczp0788gjj9DY2EhDQ0Omo0vKsM2PJScfEgOQT34SunYNFEiSUsRiybNldtMpuT2igxApPx1l4rS83JUykrLDpZdGrUdRSHku5RiK9fRmJYOa/tEtt4QKJUlJkycnr5v6LfX1MGtWmEBSO5Hxgu/rr7/etFo3Fovx/ve/n549e7b43N69e3Prrbfywgsv0KlTJ3bt2sXVV1+dtkpYUu4qnR1NPuymvOluroEDj/WK/5+9+w6P86rz/v8eyXLvvffeu5xeCAmEkABL6CWETmgJoe0+bBZI6GWBfZZdeFjKJsCPsrBAAiSB9ETVvTt23HvvsqSZ3x+3ZzTjsZzYlnSmvF/Xpeu+Z9Q+Ac/onPM9RZLa1vbtTfepTkij2yNKRel00SROjBrmpp4uLQ0VSJIynTwZXVcwhWN0jh64wlcqPmvXwsGDQPYxFI65SMoF6e9FHqElvXRtXvA9dPpcq6Sp6fshNmPy5Ml85CMfIZFI0NjYyHve8x62bt3aWhEl5YIdO+h+cAsQndcQJxotfdvbQoaSpEw33dR0bydEKmInTkSr+4GVTOYI3VOf+uxnQ4WSpExvf3t0baQdtZxeOrNxI+zeHSyTpADSVvZXsCDjU1dd1dZhJClb+ntR+u5Jhx9xZxLpXNq84Hvs2LGMx3369AGatnNOOpmcenraVadf5bFYjMOHD/PDH/6wFVNKCu4s2yK+/vUwaFCoQJKU7TWvabr3PDypiC1aFG0xRvb5ve99b4hAkpTtkkua7m23SEWsmWMorr7aYygk5Yb27aFXr+h+BVM4TicADj1im0U6lzYv+HY4o+XQvn17ALp06ZLx/JYtWzIepxeAE4kEf/zjH1spoaRcUP90dgekW7dQaSTp7AYPbrpP74R4Hp5UZNJe8+mr/Tt3hu7dz/YNktT2Bg5suvccX6mINXMMxZAhoQJJUrahQ6NrA2UsZDYAw+o3cHjD3oCppNzW5gXfbmdUbOrq6gDofsZIyK9//euMx3/+858zHp9ZEJZUWBIV2QVft3OWlGvSV8qkd0J44QXYsydMKEltr5mVMh/+MJSVhQgkSdlOb7AGuMJXKlrHjzd7DMUHPhAqlCRl+/jHm+7T2y2nnqlu+zBSnmjzgu+gM/ZjTW7xPHr0aBKJBLFYjEQiwec//3nuvfdeHnroIT75yU/ygx/8IGPb56NHj7ZpbkltqLERaqI/3lsZwnaiaabl5ef6Jklqe2Vl8MgjTY8zVstU2wmRisbpgu8xOrOcqQBMmABf+UrIUJKU7Z3vjK5bGMZOBgDQWFEF8XjAVJLazMKFZz2G4qtfhcsvDxVKkrLdfjssXhzdp4+17PmTO5NIzWnzgu+IESNIJBKpxzt37gRg6tSpGV9XX1/PPffcw6tf/Wq+9a1vET+j8zFgwIDWDyspjNWraV8XTepI74B06hQqkCQ1b/jwpntXy0hFaPdu2LgRgFrm0Eg7IJqoljZfVZJyQtO2zrHU4Gnp4YPw/POhIklqS2m7klSwIHU/a1aIMJJ0bjNmRNf0gm+HpY61SM1p84Lv5MmTAVKrddesWQPAjTfemPF1yZW+yY/k1yfvr7rqqjZMLalNNXMOXkmbv2NJ0osbN67p3vPwpCLUzHbOr351iDCSdG5velPTfcZENdstUnFopt1yxRUhwkjSS7ORkeyhLwADN1dB2oJCSU3avHwy64wpY9Wntzu84YYbGD16NNBUDI7FYqmPM33kIx9p5aSSQjnb+b133x0qjSSdWywGP/95dJ/eCUlU2QmRikIzA6dXXhkijCSd28yZcHoefsZEtUSlq2WkYpA43W45ShdWMAWAt78dOnYMmUqSmveGNwDEUn2tzsf3wYYNQTNJuarNC76XXXYZQGrl7qJFi0gkEpSVlfG9732PkpewhO8f//EfmTt3bmtHlRTIqaejDkgjJdQQvdZ79w6ZSJLObdiw5F1TJyS2f7+dEKkYNFPw7d49RBhJenHJ4ZRq5qWeO/WMBV+p4O3YQWzzZgBqmEucUgDGjg0ZSpLO7fSx45k7qnmElnRWbV7wHTx4MCdPnuTEiROcOHGCPXv2pFbwvvKVr+RXv/oV/fv3z9jOOfnRpUsXvvnNb/LFL36xrWNLaivHjtF+zTIAVjCFY3QF4JZbQoaSpHObn97vcFtnqXjE46nBhu0MYitDU59ypYykXPXGN0bXQ/RkNRMAKFuxGOrqwoWS1PqamaTmeIukXDZwYHS14Cu9uHYhfmn79u2b/dxrX/tabrjhBv7yl79QU1PDvn376Nq1K9OmTePmm2+mt8v8pMJWW0ssHgcyOyDJbcckKRe1bw/dusGRI2fphLzlLeGCSWpda9fC4cNAst0STWR91asCZpKkF3HjjU33lZQzkTWU1J+CJUsyZ7FJKixpBd8KFqTuZ8wIEUaSXpqbboJ///czjqKoqiL7EFBJQQq+L6Zz58687nWv43Wve13oKJLaWtoMrWTBt1evUGEk6aUbMgRWr87cHtFZp1KBSxs4TR+A6NMnRBhJeum6doWjR6P3rnfys+jJykoLvlIhO8sK3379QoWRpJemZ8/oeoDerGMs43ieRO1CYvX1UFYWNJuUa9q84Pvkk09mPJ41axbdunVr6xiSctVZOiCTJoUKI0kv3cSJUcF3P32aOiEL7YRIBa2ZrRFvuilEGEl66U6ejK7p711OVJMKWGMjVFcDsIWh7GAwAGPGhAwlSS9u9uym+yrmM47nKak7CcuWZX5SUtuf4Xv11VdzzTXXpD6WLVv2kr5v+fLlXHvttamPl73sZa2cVFIIdU9FA6dH6cJKon2c//M/QyaSpJfmvvua7pMr/WJ1dbB0aaBEklrd6YJvnBg1zE09feutoQJJ0kvzwx9G16VM5yQdAIg/V3mO75CU11atipb1kznR4//+31CBJOml6dCh6T59V6V1DzhRTTpTmxd8kxKJxHl9/aFDh3j88cd54oknePzxx3n88cdbJ5ikcHbsoMOuLQDUMJc4pQB4dLekfJDcZgjOco6vpMJz4kRqQsdKJnOE7gB07hwylCS9NH37Rtd62rOIWQCUrF8H+/cHTCWp1VRUpG7TC76Ot0jKB6NHR9f0969df3SimnSmYAVfScrSzLaIgwaFCCNJ5yf9vSr9PSxhwVcqTAsXQkMDkPmaT26TKkm57JJLmu4zJqqd3vJVUoFJG2+pYEHqfsSIEGEk6fwkN3tdzEzqT59SOmyHYy3SmfKm4Hvq1KnQESS1svQtxJIDp29/O8RioRJJ0ksXi8Ejj0T36Z2QE48761QqSM1MVHvggRBhJOn89OkDZWXRvef4SoUvXhG1WxoopZY5AHz60463SMoP//qv0KkT1NGRJcwAYNjRVXD4cNhgUo7Jm4LvunXrQkeQ1MqO/C174HTatFBpJOn8Jd+z0jshHTeuhkOHAqaS1CqaKfgOGRIijCSdv+RqmYwVvpVOVJMKztGjxFauAGAZ0zhBdP7EzJkBM0nSeejcGb73veg+2fcqIcHev9YGTCXlnnat+cOffPLJF/2aRYsW0XB6K7SzaWxsZP369dx7770Zz5eWll50Pkk5pLGRzitrANjKELYTjZZeemnIUJJ0fvr3b7qvYj5zqaWEBNTWwrXXhgsmqcUlKiuJAcfozAqmpJ538FRSvhg4MLquZwz76E0f9pOoqiKWSLjsTyokNTXE4nEgc5JaeXlz3yBJuSd5HEUV87mDfwfg5JOVcOs1AVNJuaVVC75XX301sbN0EhKJROr60Y9+9CX9rEQikfGzevTo0TIhJeWG1aspO3EEyJxhftlloQJJ0vmLxeD22+G//isaTPkQ3wdg75+r6GvBVyocu3YR27QJgBrm0ni6W/WRj0C3biGDSdJLd8898JOfAMSoYj6v5C/E9uyBjRth1Kiw4SS1nGZ2JfFlLimfTJ4cXdPHjU884VEUUro22dI5kUikPs71uXN9pH99LBZj/PjxbRFdUls5SwckOXNLkvLJggXRNb0TsvP3bo8oFZJjjzUNLKQPnL761SHSSNKF6dWr6d5zfKXCdeLxitR9BVFn5VWvCpVGki7c0KGwhgkcojsA3VfbZpHStUnBNxaLpT7O9bkX+0h3ww03tEV0SW3lLAXfEydChZGkCzd7dnRN74QM3mYnRCokJx5varekT+6YMSNEGkm6MN27N92nv5clKpyoJhWMRILSmug1fZAerGECAHPmhAwlSRdm61ZIUEI18wAYUL8Ntm0LnErKHW1S8G1p/fv350Mf+lDoGJJaUOJ0wbeREmqYC8BXvxoykSRdmDlzorN80zshvU9sp36jnRCpUDQ8mz1R7ec/zzzHW5JyXSwG/9//F92nF3z3/tmJalLB2LqV9nt3AFDNPBKnh4I/9amQoSTpwnzhC9E1vd0Sr7DdIiW1esG3ua2Zm/v8i31MnTqVv/zlL/Tt27e1o0tqK8eOwbJlAKxgCsfoCsCQISFDSdKF+6d/iq7pnZBVP3G1jFQQ4nG6rowGFbYziK0MpXdvePObA+eSpAtw1VXRdR99Wc9oALquqYX6+oCpJLWYs+ymNnIkdOkSKI8kXYSJE6Nr+ljLjv+14CsltWvNH/7Od74z67mf/vSnxGKx1Fm8r3jFK+h/jqnwpaWldO3alREjRnDJJZewIHkwnqTCsXAhsXgcyDw7atSoUIEk6eJMnRpdM2adVlYBHvAp5b01a+jaeBhItlti7N8fNpIkXah+/ZruKylnDBvoxElYvhxmzQoXTFLLOEvB98iRUGEk6eIkx1rSx49LF1rwlZJateD74x//OOu5n/70pxmP/+mf/olLL720NWNIymGJBPz5Xyq58fTj9D/YnTuHySRJF+vqq6Nr+ntarNpOiFQQzjJw+r73hQojSRenpAS+8Q24++5ootpb+AUAex+spK8FXynvJSoqiJ2+T7ZbvvnNcHkk6WIkV/juZBBbGMowttJjbTU0NkJpadhwUg4Icobv2bZ2llScVq2CY39vGjhNroa78cbmvkOScl9JCdxyS1MnBGDUvpqoEyIprx39W3bB1/mrkvLZrbdG1/SJait+7EQ1Ke/V1xOvrgVgA6PYQ7TD4uzZIUNJ0oWLxeC666L75Bhyp/ojsGZNwFRS7mjVFb5nc88992Q8Hj58eFtHkJRDVq+GcqKB06N0YQVTAOjYMWQqSbp47U63sqqYzzC20p0jnFq1OmwoSRctXhG1W+LEqGEuAOPGhUwkSRdn4MDoupiZ1NOOMhoYvrPy3N8kKfctX05p3Qkgc0LHiBGhAknSxWtoiK5VzOcf+J/TD6pg8uRwoaQcEbzgK6m47V22g+FsAaCGucSJtt/41KdCppKki3fnnfDb32Z2Qk4+VQMj+r3Id0rKWceP03XDUgBWMIWjdANgwYKQoSTp4rRvD5dfDk8/3YklzGAutYw4vorGA4cp7dU9dDxJF+osx1AAdPdlLSmPfeIT8Pjjme9rjc9WUnrbbcEySbkiyJbOL9XWrVv505/+xK9+9SueeeYZGt0GUSo4Vd87ewdkwoQQaSSp5YwdG13T39vW/6ImUBpJLWLRIkriUZ8k+dqeNi3axl2S8tlHPxpdk9sjlpCg4t9st0h57SwF31e8IlQYSWoZyYW8tcwhfvqU8v1/8SgKCQIVfDds2MDatWtTH7t27cr4/P79+7n55psZMWIEt9xyC29+85u58sorGTRoED//+c9DRJbUSl7WNbsD0rs3dOsWKpEktYzevaNreiek33o7IVJeO8vAaXJLMUnKZ6NGRddkwRfg5JO2W6S8VlEBwCnKWMQsADZtChlIki5e8iiKo3RjJVH1t/e2pXDiRMBUUm5o84LvoUOHGD9+PJMmTUp9pBdxE4kEN910Ew8++CCJRCLjY+/evbz97W/nF7/4RVvHltRK+m9qGkRIDpzedx+UloZKJEkto6wsuqZ3QgbuWUpJXV3AVJIuRvy5poJvsihy112h0khSy5k9O7qm70xSttBzfKW8dfAgrF4NROdz19ERgBtvDJhJklpA585N98l2S2m8gfjCxWECSTmkzQu+Tz31FPF4PFXEBXjjG9+Y+vz//u//UnF6BlosFsv6SCQSfPzjH+f48eNtHV1SC4vXNzKPagC2MZjtDOHf/x0+8IHAwSSphSTPI092QtrRyKHH9wZMJOliHP1bVPw4RmdWMAWA664LmUiSWkZJCbz//bCGCRwiOuBzzP4qdzGQ8lV1deo2fSLHnDkhwkhSy/r0p6Nr+s4kC7/vRDWpzQu+VVXRar5YLNracNKkSQwePDj1+fvvv/9Ff8bevXv57W9/2zoBJbWZPU+tpjtHgKYOyJgxIRNJUssaOjS6pndCyha+ECiNpIuyaxfdD0T7INYwl0baAdCvX8hQktRyBgyABCVUMw+AIWxna+W2wKkkXZCzHEMBTf0TScpnZxtrodqjKKQ2L/guWbIEiLZujsViXHnllRmff+KJJ1LF4OTXJVcCp3v44YdbN6ikVhevyO6AXH55qDSS1PLe8Ibomt4JGbhldaA0ki5KMwOnXbqECCNJLe/226NrxuBppatlpLzUTLvlkktChJGklnXrrdF1OVM5cXrL+v4bLfhKbV7wfeGFFzIKulOmTEndr1+/nn379gFRobd37948+uij/OEPf6B792hLoeS2zitWrGjb4JJa3PG/Z3ZAYrHMcxgkKd8NGACvfnVmJ2To9pWBU0m6IGcZOL333lBhJKnljRgBsVhmcWjjrxw8lfJOIgGnj8vbR2+eZywAN9wA7dqFDCZJLWPAALjrLmigjFqiveqHn1rPya0eoaXi1uYF323bMrcDGjFiROp+9eqmFS+xWIzbbruNa6+9lptuuok77rgjY6Xvli1bWj+spFbVc000cNpICTXM5SyL+SUp73XunNkJGcMG2GsnRMo3Dc9kF3ydqCap0CQSmSt8h2x1ha+Ud154IdXfiNos0cIbi72SCsno0dE1vd2y6TfVzXy1VBzavOB79OjRjMfJlbsAa9euBUgVdufMmZP63Lx58875cyTlmWPH6LV9OQArmMIxugYOJEmt47Wvja7pnZDG5+yESHklHqdkYfS63cZgthEdGvWqV4UMJUmtYyeD2MwwAIbuqoHGxsCJJJ2XZrZzTm6BKkmF4GxjLWWL3JlExa3NC75nOn78eOo+WfBNGjNmTOq+V69eGZ9rtMMh5beFCymJR6/jZAfEQVNJheiKK6Jreidk70M1gdJIuiCrV1Ny5DCQOXA6alSoQJLUOj796eiabLd0ajgKq1YFTCTpvDVT8H35y0OEkaTWMXgwdOuW+T63/y8WfFXc2rzg26VLl4zH69atS90vWbIk43PpBd8TJ06c8+dIyjNpHZDkYMKpU6HCSFLr6dkzuqZ3Qhpc4Svll6qmgYP013JZWYgwktR6Ghqia/p7Xfp7oKQ8cJbxFmjql0hSoejQATYykj30BWDcgUo8M1DFrM0LvoMHDwaiM3oTiQTf//732bZtG48++iiVlZXEYtG5En379qV3796p7ztw4EDGz+nXr1/bhZbU8s4y47S8vLkvlqT8lTzjM70T0n9jtZ0QKZ80s1JGkgpN8mSt9CJR+nugpBxXVwcLFwKwlnEcoGlsNdkvkaRC0a0bQCzVbulRvy86x1wqUm1e8J0yZUrqjF6ANWvWMHz4cG644QYSiQSJRIJYLMb8+fMzvi99u+dYLMbIkSPbKrKkVnDyyWjQ4ChdWMEUoOnsBUkqNK98JaR3Qjof3wcbNgTNJOmlS5wudsSJUUtUDbn99pCJJKl1zJgRXWuZQ+PpIaN4pSt8pbyxZElq+7QKFqSe/shHQgWSpNbzqU9F1/SJavEK2y0qXm1e8L3++uszHieLvMlCb9Iro5HRlMWLF6e+HqLCsaQ8tWMHHXdvAaCGucQpBeCMo7olqWCUnG5xZayWcXtEKT8cPw5LlwKwgikcpRsAffqEDCVJrSPZJztG19TE3NjyZdF7oaTc18yuJAMGhAgjSa0r2W5Jf7878Bd3JlHxavOC7xve8Ab6nB4dicViGR9JXbt25a1vfWvqcTwe57HHHsv4mrlz57ZdaEktq5kOiAv3JRWq5EkUnocn5aGFC4k1NgKZr+FbbgkVSJJaz6BBTffJ97xYY2Nqi1hJOa6Z8ZabbgoRRpJa1zXXRNdq5qWeK1vsWIuKV5sXfLt168b3v//9s34uuXr329/+Nj169Eg9/7e//Y1Dhw5lfO1VV13VeiElta60IkeyA/KhD0HanA5JKihvfnN0Te+END7nrFMpLzQzcHrZZSHCSFLr698/unqOr5R/Tj0dvVZP0oGlTAeigkhyu3ZJKiTJNst++vA8YwDotGoh1NcHTCWF0+YFX4DXv/71PPLIIyxYEJ0lkSz0zpo1i9/+9rfcfsaBWH//+9+ZMGEC48ePZ8KECbzsZS9j6NChbZ5bUsuIpxU5koMIQ4aESiNJrS85jy29E8JCOyFSXjhLwXfgwFBhJKn1Jbesd2cSKc/s3Uv7Tc8DsJDZ1NMegOuuCxlKklpXckw52W4pazgJy5cHTCSF0y7UL7722mu59tprqaurY//+/fTo0YPOnTuf9Wu//OUv8+Uvf7mNE0pqFY2NUFMNwDYGs41o8sa8eef6JknKb7NmNd1XUs5Y1lNaXwfLlsHs2eGCSXpxpwu+R+mSOs9y2LCQgSSpdSWP613JZI7RmS4cd4WvlA/SJmZUsCB1f/31IcJIUtvYti26VjGft/Lz6EFlZeZAjFQkgqzwTdehQwcGDRrUbLFXUoFZvZqSo0eAzBnjl14aKpAktb727aFv3+je7RGlPLJzJ2zeDEANc4lTCkAzJ9RIUkFIzrdvpB01zI0ebNoEu3aFCyXpxZ1lV5Jhw2Du3FCBJKn1/fM/R9f0sZa6p92ZRMUpeMFXUpFp5hy8Tp1ChJGktpM8Nyu9E9LwrJ0QKac1025JbncqSYWoZ8+m+4yJam7rLOW2s7RbXv3qUGEkqW307h1dFzOT+tMb2p58wjaLipMFX0ltq5mB0xLfjSQVuORuQumdkIQDp1JuS3uNprdbRowIEUaS2sb89M1IPMdXyg/xeOo1uov+bCJqrLihoqRCd+WV0fUknVhCNNO++7aVcPhwwFRSGK1yhu/PfvazjMc33ngjfU/vY3jm5y7GO97xjhb7WZLayOkOSCMlqe3BPE9GUjH4l3+Bb3yjqRMyl1rarVsVdUK6dw8dT9LZpE1US65ymzoVYrFQgSSp9aXvYuBRFFKeWLcODhwAkhM1osbKW94SMJMktYH0o3qrmM9caoklElBbC9dcEy6YFECrFHxvu+02YmmjIE899VSq4Hvm5y6GBV8pzxw/DsuWAbCCKRyjKwCjRoUMJUlto3NniMUSJBKxzE5ITQ1ce23oeJLOFI9DdTUA2xjMNoYCMHt2yFCS1DauuQYeewy2MIwdDGQQO0lUVxOLx92eScpFaRMyKliQuu/SJUQYSWpbb3oT/PKXUcH3Q3wfgEOPVNHDgq+KTKu20hOJxDk/dzEfkvJQbS00NgKZM8VPT0KVpIIWi0EiEU168zw8KQ+sXp3aBix9S9OGhlCBJKntTJ+evIul2i2xgwejVYSSck8zx2eNHh0ijCS1rfLTb3vp73+NzznWouITbFpmLBa74A9JeaqZDsh73hMijCS1vdtvjwOZ74Ge4yvlqGbaLR/5SIgwktS27ruv6d6JalIeON1uiROjmnmpp9u1yt6OkpRb7rgjuq5hAofpBkC7hR5FoeLjPjyS2k4zA6fduoUII0ltb+rUaJeS9E5IwzN2QqSc1Ey7xSO3JRWDLl2atoJNfw/0HF8pB504AUuWALCKSRwhaqy87GUhQ0lS2ykri44MTFCSmvTS/fA22LYtcDKpbbVawdftnCVlOT04cJQurGBK6ulJk0IFkqS2NWNG1I5J74SU7d5uJ0TKRafbLY2UUMPc1NNjxoQKJEltKzn8kv4e6ApfKQctXJg6cyJ9gkaHDqECSVLb27IlumbsTFJdHSaMFEirbOxxzz33ZDwePnx4s5+TVCR27Ej95a1hLnFKU5/q0SNUKElqW5df3jRxrYr5vIy/n35QBa99baBUkrIcPw7LlgGwgikco2vqUw6eSioWP/0p3HorHKInq5jIJFaTWLyY2MmT0LFj6HiSktJW3lewIHX/xS+GCCNJYXzjG/Dxj59xju+zlZS+5jXBMkltrU0Kvi/1c5IKWNpM8PQ/vO96V4gwkhRGLAbjxh1g3bpemdsjWvCVckttLTQ2Apntlrlzm/sGSSo885qOAaWK+UxiNbH6+mjr2PLy5r9RUttq5hiKoUNDhJGkMCZPjq7pK3wPPlJFn0B5pBA8w1dS20jrgKT/4XU7Z0nFpqQkWuWb/l6Y8Dw8Kbc0M3C6aVOIMJIUxuDBTfdZE9Uk5Y7T7ZZjdM44PquPVQ5JRSQ5xryDwWxlCADdVldDPB4wldS2LPhKahvNDJy+730hwkhSOG996yogsxOSqK5JrSaUlAOa2Znk7rtDhJGkMMrKmu4zzsNzopqUO3buTM1Iq2Eujac3c/zsZ6G09FzfKEmFJX1Xg2Qfrv3JI7BmTaBEUtuz4Cup9TU2kqiuBmAbg9lG9Bd48mTP75VUfIYPP5K6T3ZCSo7aCZFySbwiKmYcpQsrmZx6ftq0UIkkKYw3vCG6LmU6Jzl9iLkrfKXc0czk+re/PUQYSQrr9a+PrukT1RqfdaKaikeQgu/zzz/Pd7/7XW655RYmT55M//796dixIwMGDGDKlCm85jWv4Xvf+x7PP/98iHiSWtrq1cSORAWO9A5I796hAklSON26nUrdu1pGykE7d1KyZTMQrZSJ07Q8ZsyYUKEkKYxEdBIF9bRnEbOiB+vWwf794UJJapLWh6hgQere83slFaMBA6Jr+ljLiSedqKbi0aYF35UrV/KGN7yBiRMncuedd/KnP/2J1atXs3fvXk6dOsWePXtYtWoVf/zjH/n4xz/OxIkTeeMb38jKlSvbMqakltbMjNP77gsRRpLCKi1N0Lt39jm+rpaRckTl2bdz/uhHYfz4EIEkKZwPfrDpPuMc39M7OEkKK3GW8ZaOHaFbt1CJJCmcT3wiutYyhzgxAEpqHGtR8Wizgu+Pf/xj5syZw29/+1vi8TiJRIJEIkEsFsv4AFKfi8fj/OY3v2HOnDn85Cc/aauoklpaM+fgXX55iDCSFN6HPxwHkqsHo/bP8SfshEi5YPefststnTvDd74TKpEkhZM+0cWdSaQc09hIvDKafLGVIWxnCAD33BMylCSFM2oUtGsHR+ieOpqn/aolcOJE4GRS22iTgu/nPvc53vOe91BXV5dV5D3TmQXgRCJBXV0d7373u/nnf/7ntogrqaWdHgxopIQa5qaeLvEUcUlFavjwaIXvUbqlOiEd1y61EyLlgoqmVWvJgu/06aHCSFJYffs23Wes8HVnEim81aspPZZ9fNbw4aECSVJ4DQ3RNTlRrV2iARYvDhdIakOtXm750Y9+xH333ZdR6IVoFe+5JD+fXvi97777+OlPf9rakSW1pOPHSSxbBsBKJnOMrgC87W0hQ0lSWLfc0tQOSnZCShobYNGiUJEkATQ20mNdDZC5Uub//J+QoSQpnA4d4FWviu43MJq99AFObyP7IuM6klpX/NmK1H16wffVrw6RRpJyw8iR0TV9Z5JEpRPVVBxateC7detW7rzzzrMWes/cvjn948zPJx8nEgk++tGPsmPHjtaMLakl1dYSa2wEMjsgH/lIqECSFF6PHnDDDdF9eiek8Tk7IVJIhyoP0jWeuVLmyiubih2SVIy+9KXkXSzVbont3QsbN4aKJAlYd3/T1uoVLADglls8v1dScXv/+6Nr+jj01v9xrEXFoV1r/vAvfelLHD16NFWsBTLuR4wYQXl5OQMHDqRbt24cPnyYHTt2UFFRwdatWzO+PlkAPnr0KF/+8pf57ne/25rRJbWUtLOd0v/QDhoUIowk5Y6hQ6Nr+nvj0ceq6PGJQIEkQdWW1G3ytTl5cqgwkpQb0vtuVcznRv4cPaisjA7LkxRE5+XReEsDpdQyB2jqY0hSsRo8OLouZyon6EgnTtJpWeW5v0kqEK1W8D1x4gT3339/qlCbvmL3ta99LZ/73OeYOXNms99fUVHBF7/4Rf785z9n/IxEIsHPfvYzvv71r9OhQ4fWii+ppTRT8B02LEQYScodH/gA/OhHmZ2QdrV2QqSQOi7ZkLpPtlve+95QaSQpN/Tr13SfdY7vm97U9oEkcWDLUQbvXw5E/YnjdAHgPe8JmUqSwktua99AGQuZzWU8S9+D60ns3Uesb5+w4aRW1mpbOj/22GMcPXo09Ti5qve73/0uv/3tb89Z7AVYsGABDz74IF/72teyzvs9cuQIjz32WItnltTyTjwRFS+O0oUVTAHgC18ImUiScsPcudE12QkB6LJzA+zdGzCVVLyWL4dxB5YC0EgJtczhiitg9uzAwSQpB/z3f0fXaualnjv4sBPVpFC++ZZaSokDTRMxPvYxeJHhVkkqeL16RRPsIfMIrb/eVx0okdR2Wq3g+9xzz6Xuk1syf/zjH+fDH/7wef2cu+++mzvuuCOr6Jv+8yXlqB076LQn2hqxhrnEKQXczlmSkpIrZtJXyySq7IRIITz3t5NMYxkAK5jCMboyZUrgUJKUI5J9uH305XnGANBlzUKorw+YSipepdUVqftkX8J2iyRFRo+OruljLcf+5kQ1Fb5WK/iuWbMm43GPHj245557LuhnffGLX6R79+7n/PmSclBVVdNt2oyqm24KEUaScs9b3hJd098jDz5c1cxXS2pNpYtraUcj0DQw8I53hEwkSbnjssua7pPtlrKGk8SXLAuUSCpep07BjLqmwkUFC4CmbUwlqdj9wz9E1/Sxlk7LHWtR4Wu1gu+mTZuAptW9r371q7OKti9Vz549ufnmm1M/K5FIsHHjxhZMK6k1PP9A9vm9b3sbDBwYKpEk5ZbPfja6pndCFv+ns06lENY9UJO6r6Sc2bPhkksCBpKkHNKxI9x2W3Sfvlrm0S85eCq1tY98BMqJ+gyH6M5qJvLss461SFLS6NHwyU/CC4xiD30BmJeo4pmnEy/ynVJ+a7WC7969e4nFYqnHV1xxxUX9vDO/f6/n20k5r/HZ7ILvpEmh0khS7unRI7qmd0Kmnaxi1047IVJbSw6cQtRuGT8+YBhJykHJ7RHTJ6ql9/kktY0lD25lCNuB6FztBCVMnBg4lCTlmOnTAWKpdks/9lLxy40hI0mtrtUKvgcOHMh4POgiD+0cPHjwOX++pBzT2Mjg7dE5lNsYzDaGAvCa1wTMJEk5pmNHeO1rIb0T0pd9HF7yQtBcUrE5daqp4HuErqxkMtdcEziUJOWYZF9uEbOopx0Aw3dVkXCemtSmhmzLnKTWqRP06hUwkCTloJe/PLqmT1Q79ncnqqmwtVrBt66uLuNxz549L+rn9UgugTnt5MmTF/XzJLWuRb9YTbfEEaBpde8b3wiTJ4dMJUm55xe/iK7pnZD7P2InRGpLz/3PDoazBYAa5hKnlFe9KnAoScox06bBF74AdXRkCTMAmMQq/vPrhwMnk4rHpk2wgIrU40rKeeihgIEkKUcNGBBNVksfa+m6qornnw+XSWptrVbwra+vz3icvr3zhTjz+8/8+ZJyy9r7m85yShZ8L7ssVBpJyl0dOkD79pmdkN7Pex6e1JY2/CL7GIru3UOlkaTclTxtK/leWUKClT+rOcd3SGpJf/1r9jEUZ2yKKEk6bdasaOv7pPlUOUlGBa1da/3ghoaGjCLtn//8Z56/iOkT69aty3jc2Nh4wT9LUuvr/Xz2wOkNN4RKI0m5bfp0qKppKvjOTUTbI17kfDlJL1Gvddntlm7dQqWRpNxVHr1FUsV87uDfAei+uhK4NlwoqYjs393AHGoBeIGR7GYA48YFDiVJOepVr4J77unL84xhLOuZQy1/210PlIWOJrWKViv4pkskEnzpS19qi18lKQckEtB3fTRwGidGLXO4/noYPz5wMEnKUT/+MUyb1ifVCZnNQv70u3pe/To7IVJrO3YMuq3K3Jnk3e8OGEiSclinTvCd78D3P9Y0UW1OYxUrV3p8j9QWfvMvy/kMx4GozXLFFU4SlaTmzJkDI0dC1cb5jGU9nTjJ7+9bzj33zgodTWoVrbal85kSicRFf0jKDxtXHmcaywBYwRSO0o2XvSxwKEnKYX37Rtfkts6dOMmT/3dZwERS8Xjq8UbmUQ3AFoayg8EMGxY4lCTlsJkzYQ0TOES09305lfzm147ZSG1hXjxzVxLbLJJ0btdem3mE1nw8QkuFq80KvrFY7KI/JOWHE0/X0o5o2/XktogWfCWpeQMGRNf0Tkj/jXZCpLaw75nVdOcI0PQavO66kIkkKbfNnQsJSlJn4g1mB/UbtwVOJRWH+YmK1H0l5fTpEzCMJOWBsWObxqchKvh6WqgKVasXfFuyWGvRV8oP6x7IPgdvzpxQaSQp98Vi8I//mNkJ6bOhipMnA4aSisDevfC3L2e3Wy67LFQiScp9nTtHq2XS2y0rf1J5ju+Q1BLWr49W1AOcooxFzOKd7wwcSpJy3JvfDIuZSf3p003LqWT9+sChpFbSZit8JRWPskWZ5+C5xZAkvbjJk7M7IU8+GTiUVOD+9KemgVOI2i3XXx8PmEiS8kN5efb2iKdOBQwkFYH/+fEhJrIagCXM4CSd6No1cChJynHdusFJOrGU6QBMZiUP/vJI4FRS62jXWj94+PDhrsiVitTMumjg9ChdWMEUynYHDiRJeeCSS5o6IXNYyCRWsfSFw3D6fDxJLW/7drjxdMG3kRJqmcOnLvMcSkl6MZMnw4/TCr7lVHL4MPTtGzCUVODKFldTQtROSa6wHzs2ZCJJyn29e0fXKuYzh4WUkKD7ulrg6pCxpFbRagXfjRs3ttaPlpTD4tt3Mrh+MwC1zCFOKf/5n4FDSVIeGD06ulZSnuqEVP57LW9+/zVhg0kF7L5/OsanWQbAcqZyjK7cfXc9UBo2mCTluFtugbcziM0MYzhbmEsNVYsaufblvn9KreHECdjzYOauJNdcA6W+5CTpnGKx6MieymfK+SD/AcDO/63Egq8KkVs6S2pR63+efQ7eoEGh0khSfrnhhsztETsu9Tw8qbUcOABzqKWUaAvnSsp52cs2UVYWOJgk5YHOnaNrss/XlWP8/f+uCphIKmx/+xssoCL1uJJyLr88YCBJyiOzZmWOtUw8UnWOr5bylwVfSS0q/lx2wXfWrFBpJCm/nDyZ2Qm5vL2dEKm1bN+efX7vmDEHwwWSpDySXFWY3m4ZucuJalJr2bI5kWq37KcX6xjHvHmBQ0lSnqirgzVM4DDdACiPOdaiwmTBV1KLqnsqu+Dbr1+oNJKUXz7/+cxOyMxTVRw6FDiUVKCeeCK74HvDDZsCJpKk/PLGNzb1+QAaK6o4fDhgIKmAPfeLjfRnD5B83cW46aawmSQpX7z73RCnlGqimTJDE1t58pfbA6eSWp4FX0ktp7GRkXuqAdjGYLYxlMsuC5xJkvJI//5ndELYxh//Y1vgVFJh+s53YD7RzO4jdGVPn4mUliYCp5Kk/DFvHixkNo2nh5bKqeQ3vwkcSipQp57OnKT2utdF51JKkl5cjx7RNX1nkgfvcZWvCo8FX0ktZ80aunMEyJzpLUl6aUaNiq7pnZBYtZ0QqTUMa7eD4WwBoJp57N7XLnAiScov06bBMbqynKkATGU5W9ccC5xKKkxXd8ws+B7zpSZJL9nIkdE1faxl0BbHWlR4LPhKajGbf529nfO994ZKI0n5p2NH6NkzsxOy+bdVbNkSLpNUiE6dgq4rm9otVczn859vDJhIkvLPdddF12S7pR2NPPK1hQETSYXpxAmYfjKz3fKJTwQMJEl5pmNHuPPOzLGWqSequP/+gKGkVmDBV1KLWfKDzA4IwOjRodJIUn565zszd0mYTxVf+1rAQFIB+vOfs8/vnTvX7Zwl6XyUlMCHP5zdbtnukXhSi/rtL04xm2gyxVrGsZ8+DB4cOJQk5Zl3vAO2M4StDAFgHtV89MNx6usDB5NakAVfSS1mzL5o4DROjBrmAjBwYMhEkpR/Jk6EHQzO6ISsW+3KQ6klrVmTXfAdP96CrySdr4kTM1fLlFPJ2rUBA0kF6MjTS+hIHdA0wWLEiJCJJCn/JBclJdstPTjMgENr2LMnYCiphVnwldQiEseOM75uGQArmMJRuvHmN0P79oGDSVKeedvbomuyE9KdI2x+dE3ARFLhqalsZB7VAGxhKDsY7MCpJF2Ad7wj2f/rAkQrfD2KQmpZu/+YfXxW166h0khSfureHb7xjcyJavOp4uDBcJmklmbBV1KLWP/rWtoRrUBLdkA++MGQiSQpP3XtCv/939mdkH37AoaSCszK/1lFN44CUbvlne8MHEiS8lS3bjBhUim1zAFgJJv48Vd2BU4lFY6GBhi9N7Pg+5GPBAwkSXnsrruyj6L45S8DBpJamAVfSS3i0CNVqfvkH85Ro0KlkaT8Nnp0didk1aqAgaQC87IumQOnx48HDCNJee6FFzLbLVd2rDrHV0s6H9u3Nx1DcZIOLGEGAwYEDiVJeSoWg1rmECcGRO+v8XjgUFILsuArqUV0Xpq9xdDQoaHSSFJ+Ky/P7oTs3Rs4lFRAphzLbLckt1KXJJ2/W2/N3JmkU1rfUNLF2bF8H+NZB8BCZlNPe9773sChJCmPlfbsziomATCDJSyvORk4kdRyLPhKahGdl0ed+mN0ZiWTue66wIEkKY+VlsLAcU2dkOks5V+/fCJwKqkwrFvXtFKmgWgb0rFjA4eSpDx27bWZK3xnNVSRSAQMJBWQBz6WuZtahw7Qv3/AQJKU597+9qaJamU0sPOvi8MGklqQBV9JF2/nTkawGYAa5tJIO1eiSdJF2rKlafC0jAbmlS0OG0gqEEufO8ZUlgOwnKkcpwuDBgUOJUl5rEcP2MpQdjAQiI6i2LfH/RGlljD5SOauJHV1AcNIUgFIJDInql1a4s4kKhwWfCVdvMrs7Zxf/epQYSSpMFxzTeb2iF1X2AmRWkLZ0lpKiQoRyddYr14hE0lSfrvqKoBYqi/Yk0OcXLYuaCapUIzYlTnecvPNAcNIUgF43esyx1rmxKs4dSpgIKkFWfCVdNEan80u+F5xRag0klQYzuyEjDtYdY6vlvRSrfpJZrslKlRIki5Ujx7RNb3dUvEdJ6pJF+v4sUTqGIrd9GMjI7njjsChJCnPjRsHy5jGCToC0c4kTz4ZOJTUQiz4SrpoJx7PLvgOHBgqjSQVhs6dszshhw4FDiUVgMvaZbZbdu8OGEaSCkBpaXRNL/j2We9ENelirX1wHb05AEAFC4CYYy2SdJF694YGyljIbADG8TxrK/YHTiW1DAu+ki5OPE7H5dUAbGMw2xgKwNSpIUNJUv678srMTshY1nN8y77AqaT8N2ZfVPA9QldWMYmJEwMHkqQCUc281P2wHa7wlS5Wu9rsyfXTpoVKI0mFoXPn6Jo+Ua3zcieqqTBY8JV0cVavpt3xI0BTB6RXL4jFQoaSpPzXv390Te+EvPD/2QmRLsr27Qxq2ApEhYk4pdx0U+BMklQA7rkHDtODVUSzaIYfWAInTwZOJeW3rb/NLPgOHepYiyS1hDe+MXOsZYNjLSoQFnwlXZzKpg5I8g/liROhwkhS4WjfPrqmd0ISlXZCpItx7O/ZK2U6dQqVRpIKR319dE2+t7anHhYvDhdIKgBj90ftljgxqpnnWIsktZCGhsyxlsvKHGtRYbDgK+niVGYPnDqRW5JaTvK9FWDAJjsh0sVofDa73XLFFaHSSFLhmDEjuqYPnlJlu0W6YCdOMPLgYgBWM5HD9HCSmiS1kEsugQ2MZi99AJhdXwmJROBU0sWz4Cvp4lQ2zTitYS4An/pUyECSVDhuvRVeYFSqE9JzrZ0Q6WKcfCK74DtwYKg0klQ4kuehp09Uq3vKc3ylC7ZoEe0SDQBUsACAO+8MGUiSCsfLXgYQS01U68deDi/dGDKS1CIs+Eq6cMePw7JlAKxgCkfpBnimjCS1lMZGSO+E9GUfvPBC0ExS3mpspMfzNQBsZhg7GQRAu3YhQ0lSYejdO7ouYxon6QBA/TOu8JUu2Fl2U5MktYxkuyV9Z5J1D9huUf6z4Cvpwi1cmKxGZHRA5swJFUiSCsuoUdE1Y5DH7RGlC7NqFR1OHQUcOJWkljZ0aHStpz0LmQ1A1x3Pw759AVNJ+StRkV3wnTo1VBpJKizDhkXX9H5h5+WOtSj/WfCVdOGamXE6f/7ZvliSdL5uvjm6ps86TVTaCZEuSFq7Jfmauu22QFkkqQAli1EZ5/hWV4cJI+W5+meidssxOrOc6MU1fnzIRJJUOGKx6DiKaualnotXeBSF8p8FX0kX7iwDpwDdu4cII0mFp2fP6JreCTn+uJ0Q6YKcZaJahw6hwkhS4Um2W9yZRLpIu3bRfttGAGqZQyPR+RM9egTMJEkFplcv2Edf1jMagDGHFkJ9feBU0sWx4CvpwlU2zThdwZTU0716hQokSYVlyum31vROSMeVdkKkC5E43W5poJRaovMnJk4MmUiSCsvevdE1Y4VvpRPVpPPWzG5qjrVIUsvZvTu6Jt9nO8ZPwIoVARNJF8+Cr6QLs3MnbN4MQA1zUzNO77orZChJKiylpU33yU5I6amTsHx5oERSnjp6NPW6Wc5UjtMFgJtuChlKkgrLnXdG1w2MZi99ogdVVZBIhAsl5aO0gm8FCwC4+upAWSSpQN19d3R1opoKiQVfSRemmRmnI0aECCNJhWvs2OhqJ0S6CLW1xOJxILPd0q1bqECSVHg6dUrexZraLXv3wgsvhIok5aezjLcMHhwqjCQVpo4do2v6WEvDcx5FofxmwVfShWmm4HvllSHCSFLhev756JpR8PU8POn8NNNu6d8/RBhJKkzTpzfde46vdIHicaiuBmAbg9nG0NTTkqSWM3VqdF3ELOpP71yZqLTNovxmwVfShUnrtKd35mfODJBFkgrYN78ZXdM7IQ6cSufpLAXfWbMgFgsVSJIKT/q56O5MIl2g1avh8GEgc6zlfe8LFUiSCtPkydH1JJ1YSjRrrd2aFXDkSMBU0sWx4Cvp/DUz47Rnz4CZJKlA9e4dXdM7IYmVK1MDQZJegtPFhsN0YzVRRWLSpJCBJKnwtG/fNJHGnUmkC1RRkbr1GApJaj1NR1E0tVtiiQTU1gZKJF08C76Szl/ajNP0jvzBg4HySFIBS98e0U6IdAG2bYs+gGrmEacUsN0iSS0tFoNEIrrfTx+eZ0z0YOFCqK8PF0zKJ2kr4itYkLqfMiVEGEkqXOm7PTlRTYXCgq+k89fMOXhveUuIMJJU2NK3yrcTIl2AZo6h+OhHQ4SRpMJ2yy1N96n33JMnYdmyMIGkfHN6vKWREmqZk3o6fSWaJKllXHNNdE3vJzrWonxmwVfS+Wum4DtqVIgwklTYSkqgc+fo3k6IdAHS2i3pkya6dw8RRpIKW/I8PPAcX+m8HTuWmhyxnKkcoysAc+ac65skSRcq2W5ZwwQOE+2dn6iwzaL8ZcFX0vk73VmPE6OGuamnPcNXklrH8ePRNb0T4sCp9BI1M1EtvSghSWoZs2c33TtRTTpPtbUQjwOZr59Dh0IFkqTCNnJkdI1Tmhrjjm3bCtu3hwslXQQLvpLOz/HjqRmnK5jC0WThAbd0lqTWknx/Te+EpJ9LKqkZjY1QUwPAZoaxk0FAdF5Tjx4hg0lSYXrta5vuFzOTU5RFD5yoJr24iorUbXrB92tfCxFGkgrfBz/YdJ+xM0l1dduHkVqABV9J52fhwmjwlDNmbAPdup3tGyRJF6vZ1TJ2QqRzW7kSjh4FMl8773xnqECSVNhKS2H48Oi+jo4sYUb0YPVqlylKLyZtYkQFC1L3yRVokqSW1aULtGsX3bsziQqBBV9J56eZc/AAunZt6zCSVBymTGm69zw86Tw0s51z+mtKktSy9uxpuk+1WxKJ1I4Lkppxut1ymG6sZmLq6bFjQwWSpMLX0BBdHWtRISjqgu9PfvITYrHYeX/85Cc/ueDfefToUb75zW9y1VVXMWDAANq3b8+AAQO46qqr+OY3v8mxY8da7j9Qag3NDJzOmBFtjyhJankvf3nTfUYnxFmn0rk10255//tDhJGk4vDlLzfdu1pGeonSjmupZh5xSoFoxby7qUlS63nf+6LrdoawjcEAJKqrU2eqS/mkqAu+be25555j/Pjx3H333Tz55JPs3r2b+vp6du/ezZNPPsndd9/N+PHjqUg7s0PKOacHTo/RmRU0LY9JP6tJktSySkth/PjoPr0TEq+yEyKdS8OzUbulgVJqmQPApEkOnEpSa5o7t+ne1TLSS9TMJLWPfCREGEkqHtdd13SffP+NHT4Ma9cGSiRdOAu+F6B///7n/T3Lly/n+uuvZ8eOHef8uu3bt/Pyl7+c5cuXX2g8qfXs3AmbNwNQw1waaZf61LhxoUJJUnFIf59NdkJKjh6BNWsCJZJy3NGjlK5eAcAypnGCzoBtFklqbWPGNN2vZTwH6RE9qKyMtnaWlC1t8Ud6wdd2iyS1rvT3WSeqKd8VdcH39a9/PS+88MI5P6ZPn57xPWPHjuUVr3jFef+u22+/naNHj6Ye9+rViwceeIBVq1Zx//3307Nnz9Tnjh49yrvf/e4L/u+SWk0zM04BXvOaNs4iSUXmi19surcTIr0EtbXETq+AT2+3fP7zoQJJUnEYOBDanZ4bnKCEauZFD3buhK1bwwWTclkz4y0XMAQpSToPM2Y03aePtSQqPYpC+aeoC75du3Zl5MiRzX7s2rWLpUuXZnzPXXfdRUnJ+f3P9uSTT1JdXZ3x3De/+U3e8pa3MHHiRN761rfyta99LePzVVVVPPXUUxf2Hya1lrQzl9I7IO96F3TuHCKQJBWPWbOirWghsxPSWGEnRDqrswycjhoFM2cGyiNJReSrX226z5io5jm+UraGBuLVNQBsZAS7GAjA618PHTqEDCZJhS8Wg3vuie5rmEucGACHH7XNovxT1AXfF/P1r38943Hfvn257bbbzvvn/PrXv854HIvF+Id/+IeM52699VZisdg5v08KLm3gNL3TPnJkgCySVIQGR0f3ZnRCGp6xEyKdTaIiu93Srl1zXy1JaknpfcSM3aHcmUTKtmIFJSeOA5mvlxEjQgWSpOKSbLccoTuriGbad92wBE6eDBdKugAWfJuxYcMGfve732U8d8cdd9CpU6fz/llnru4dNmwY3bt3z3iuZ8+eDBky5JzfJwUVj8Ppf5PbGcRWhqY+5Q7kktQ2/uVfomt6J6Rs1RI4cSJcKClHNT4XFRUO043VTATgs58NmUiSikf6NrQZO5M850Q1KUsz2zl/6EMhwkhS8Xnd65ruk+2W0sZ6WLw4TCDpAjnHvRnf+ta3iJ8+8wugU6dO3HHHHRf0s1544YWMx/379z/r1/Xv35+taefZnPl96erq6qirq0s9Pnz4MAD19fXU19dfUM6XKvnzW/v3KMesXEnZ6X9nUQckWlk2e3ac/v0b8Z9D7vA1KuWui319lpdDSUk74vEYVcxnCispaWygoaaGxIIFLRlVym/btlG2cxsA1cwjTikAr3hFfbNtFv9+SrnN12h+KSuDL3yhhH/+51J2MZBNDGcEm2morCF+8iSUloaOqBbk6/Pi7P3dsww6fZ8s+F52WZxhwxxr0cXz9Sm9uE6d4G1vK+X++0uoYj7v4icAHPjrc3SdM6dVf7ev0eLW0v+/W/A9i/379/PjH/8447l3vvOd9OvX74J+3qFDhzIeN7dKuPMZh6AePHiw2Z/55S9/mc9//vNZzz/88MNZP6e1PPLII23ye5Qbhv/tb8w6fZ8+47R9+5089JCr0XORr1Epd13M67Ndu1dx6lS7jE7Iqp/+lA3797dQOin/DXruudR6svR2y7PP/pl27RLn/F7/fkq5zddo/ti3bxgwG4hWy4xgMx3qj/H3//xPjnguUEHy9Xlh5lY8DUA97Vh4+jXTrt02HnpoYchYKjC+PqVzq6ubCEzI6D9u/s1f2ThzdJv8fl+jxen48eMt+vMs+J7F97///Yz/oUtKSrjrrrta7OcnEmcfZGru+bP57Gc/m5Hp8OHDDBs2jOuvvz5ru+iWVl9fzyOPPMLLX/5yysrKWvV3KXeUPPhg6j79D98Xv9ifq666MUQkNcPXqJS7WuL1eccdMb797cz34nEHjjHxRt+LpaT4Y0+l7pOvlTlz4tx88yub/R7/fkq5zddo/rn0UvjOd6L7Ssq5ld8AcGXHjiRstxQUX58X4fBhSg9uAGAJMzhJtEjk3nsHUV7u60QXz9en9NKMHw+//jUsYxon6UBH6hi6fT2TW7nN4mu0uCV37m0pFnzPUFdXx7/9279lPHfLLbcwbty4C/6ZPXr0YPfu3anHJ5o5Z+/M53v27Nnsz+zQoQMdOnTIer6srKzN3hja8ncpvIbKGgDixKhhLgAzZ8J11/k2kqt8jUq562Jenx/7GHz725mdkAN/rWaQr3cp5fnf1jD29H2y4PvNb5ZQVlbyot/r308pt/kazR/9+sHPfw5veUvmOb7b/qeWEe9/f8Bkai2+Ps/fkacW041oAUiyzfLKV8LllzvWopbl61M6t0mToqLv2rVlLGQ2l/IcffY/T+LwEWJ9erf67/c1Wpxa+v/zFx/xKDL3338/O3fuzHjuk5/85EX9zFGjRmU8Ti/+ptu1a9c5v08K5vhxSpYvBWAFUzhKNwCmTw8ZSpKKU58+0bWBstSWb4OOrYd9+wKmknJIYyODt0cT1TYxnF0MBGDAgJChJKk4jRgRXWuZQ+PpIah2i6oCJpJyy47/rUzdJwu+U6eGSiNJxS154kT6RLXdD3qUofKHBd80iUSCb33rWxnPXXbZZVxyySUX9XPnzZuX8Xjr1q1Z5/oeOHCAbdu2nfP7pGAWLqQk3ghk/sG7/fZQgSSpeHXtCsmNR9K3dU5U2QmRABLLV9A5fgzIfI1MmBAqkSQVr/mnu4/H6cJyoirWwD3L4NixgKmk3NFpcUXqPtluedvbQqWRpOL2oQ9F1/R+5Mknnaim/GHBN81DDz3EypUrM567++67z/k9GzduJBaLZXw8/vjjGV9z6623ZjxOJBL85je/yXjuV7/6VdbPPvP7pFCOP5Y947RHD7jqqlCJJKm4PfBAdE2fhLP4Pyub+WqpuDz65aYOebLd8vvfQywWKJAkFbF27eDDH47uk+/JpcQ5+uTCgKmkHJFI0H5x1IbfTy/WMY5+/dxNTZJCueWW6Jo+1rL6Z461KH9Y8E3zjW98I+Px+PHjufnmmy/651555ZVZq3U/+clP8sADD7BmzRoeeOABPv3pT2d8fv78+VxxxRUX/bullnDo4eyC74IFodJIkpJb06Z3QhKVzjqVABqebmq3JF8jQ4eGSiNJOtv2iFt/6+CpxKZNDCA69q2K+SQoYciQwJkkqch16wYbGM1eovO0ZtVXEW9MBE4lvTQWfE+rra3NWpl71113UVLSMv8T/dd//RddunRJPT5w4ABve9vbmDhxIm9729sytnju2rUrP/rRj1rk90otodvKqDN+jM6sYAoAb397yESSVNyGD4+u6Z2QYTurIGEnRBqyLWq3NFBKLXMAmDkzYCBJKnLJ1TLp2yN2WOJENelsu6ldfXWgMJIkAKL1f7HURLX+7OHYyk1BM0kvlQXf085c3du/f3/e+c53ttjPnzp1Ko888giDBg0659cNGjSIhx9+mKlTp7bY75Yuys6ddN2/GYAa5tJIOwDe+taQoSRJX/sapHdC+rGXZx7YGDKSFNzip48yhRUALGMaJ+jMv/0blJYGDiZJRWzs2OhIoJVM5ijRRPiSGlf4Sn/8XHbB9wMfCJVGkgTw7W9H1/SdSX71Cdstyg8WfIHNmzdnnal7xx130LFjxxb9PZdccglr167l61//OldccQV9+/alXbt29O3blyuuuIKvf/3rrF27lksuuaRFf690MeIV2efgXXZZqDSSpKTkKt/0Tsja/7YTouK2+P/VUEocaGq3jB4dMpEkCWDqVIhTSg1zARjBZuo27QycSgrnwAEYtq0i9TjZpu/ZM1AgSRIA3btH1/SxFqrcmUT5oV3oALlg+PDh1NfXX9D3jhw5ksR5bJ/YtWtX7r77bu6+++4L+n1SW2t4ppL2p++Tf+iuvDJcHklS5Jpromt6J6Tn2irgTWECSTmg49LslTKXXx4qjSQp6brr4JlnonbL1TwBQN1TVXQYcXPgZFIYB3adYjYLAVjHWPbRl5kzYcCAsLkkqdh16BDtEFXdOC/13PhDFnyVH1zhK+mc9v85e+D04x8PFEaSlNK/P7zlLZkF334bq2hoCBhKCqi+Htovymy3vOpV0K1bwFCSJADuuiu6pp/ju+4BB09VvH70saV0pA5oel08+mjIRJKkpP/9X9hLP9YTbRc1h1qeX+1gi3KfBV9JzYvH6b6mGoDtDGIrQwEHTiUpVyxYAPvom9EJWVh5YbuWSPmupgbKiQq+h+jOaiYye3bgUJIkALpER/dmTFQrqfYoChWv+mcyJ6mVlECfPgEDSZJSBg+Orsl2S2dO8OwPlgdMJL00FnwlNW/1ajo3HAaSM05jAHTqFDCTJCnlZS+LrslOSCdOUldrJ0TF6fDKrQxhOwDVzCNBCddfHziUJAmItkYE2MpQtjMIgDEHqiEeD5hKCmfqscyCr8VeScod06ZF1/SJau2XuDOJcp8FX0nNOvxo9nbO//RPodJIks40eXJ0Td8e8eF77YSoOP3i457fK0m57MtfBoilBk+7xw+x9e9rg2aSQli4EBZQAUAd7VnCDH75y8ChJEkp7drB1VdnjrUc/btHaCn3WfCV1Kxtv2sqGiT/wI0cGSiMJOmsZs7MnHU6ck8ViUS4PFIIdXUw6Whmu2Xu3ICBJElZhg2LrumDp4t/4EQ1FZ9f/+d+xrMOgIXM5hQdGDQocChJUobZs2ERs2gg2qaknEqqqwOHkl6EBV9Jzeq5JlopEydGDdGo6WWXhUwkSTrTiBHZnZBTpwKHktrYwYNN5/dCNAli+vRweSRJ2S69NLqmT1TrtspzfFV8Oi/Pnlw/blyoNJKks7nqKjhJJ5YSdSynsIJ9G48ETiWdmwVfSWd3/Dj9diwFYCWTOUo3OnaESZMC55IkZfj2tzM7IZNZyaO/sxOi4vKXBxuZSw0AmxjOLgbyjW8EDiVJyjBqFIweDTXMJU4MiApfR48GDia1oZMnoeHZzGMo3vSmaPtQSVLuePWro2tyoloJCX792YUBE0kvzoKvpLPa/ZeFtKMRaJpx+ra3hUwkSTqbvn2ja/K9uoQEf/96bcBEUtt79Dsr6MoxoOm10LNnwECSpLN6wxvgMD1YzUQAZrCEh/9wMnAqqe089ljmriSVlKdWv0uSckcsBgsWZB5F0X9TFfF4wFDSi7DgK+msTjye2QEBmD+/ua+WJIXSrVt0Td8eccxet0dUcZl4KLvdEouFSiNJak6yT5lst7SnnvrqxeECSW1s65ZEquC7h768wCjHWiQpRw0alDnWUk4lx44FDCS9CAu+ks7q4MPZA6e33x4qjSTpXD71qcxOyIDNVTQ0BAwktaHt22HApsx2yxe+EDCQJKlZr3lNdE1fLfPsv1bS2Bgmj9TWvvvR5+nDfgAqWADEKC8/9/dIksL41rdgNRM5QlcA5lPFunWBQ0nnYMFX0ln1WhMNnB6jMyuYwsiRUFoaNpMk6ewuuSTqhBwmWu47nyqefTZwKKmN/Nd/NW2N2EApC5nNjBmBQ0mSzioWgze/OXOi2nyqeO65gKGkNrJ/P8yoy5ykdvPNAQNJks5p4ECIU0o18wAYzhZ++287AqeSmmfBV1K2nTsZzmYAaphLI+04ejRwJklSs2bMiDohNcwFYBhb2bVoe+BUUtvYsfYIU1gBwFKmc4LOFnwlKYfNmBG9X5+kAxBN2tm4MWwmqS1s2ZJ9fq9tFknKXR07Rtf0iWqDtlYFSiO9OAu+krIcfLjpD1fyD9p3vxsqjSTpxYwaFV3TOyGLf2AnRMVh5X/XUEICiAZOe/eGESMCh5IkNevDH4YGyljIbADGsp5P3LaPRCJwMKmVrViRWfCtZh533x0wkCTpRV1zTeZYy6FHHGtR7rLgKynL0h9mn987dWqoNJKkl+IVr8jshHRZWUU8HjCQ1AY2b85eKfPJTwYMJEl6UV26wPXXZ57jO7uxiiVLAoaS2sD3v32SmSwGYBUT6TyoJ927h80kSTq3667LPopi69aAgaRzsOArKUvvddkF35EjA4WRJL0kPXtmDpzOp4rDh8PlkdrCunXRv/WkSsqZODFgIEnSSzJpUvbg6bp1AQNJbWAmi2hPPQAVLGCHx0BKUs6bNAm2MZRtDAZgHtU8v9bZ9cpNFnwlZYg3xBm2qxqA7QxiK0MZPhy6dQscTJJ0Tp/7HGxnSEYn5Nf/n50QFbaNG5tW+B6iO2uYwKteFTaTJOnFfepTmRPVyqnkmWcCBpLaQGlN5uT6D34wYBhJ0kuS7F8mJ6r15BD/5w1rqa8PGEpqhgVfSRmqfraaHkRLwqIOeIy77gqbSZL04saOja7JTkgPDvOtD6xxW2cVtF9+YytD2A5E5+BNnVZCWVngUJKkFzV4MAy7YhR76AtEK3y/8x0P8VXhamzMPobiiisCBpIkvSTt28PkyZk7k4zeV8Xvfx8uk9QcC76SMhx+NHNbRIDRo0OlkSS9VO3bR2finbmt8/79AUNJrezKDpkDp+vXBwwjSTovJ+tiqcHTvuxjZvcXAieSWs+uXU0F3+N0YhnT6NcvcChJ0ksyZkz2WMuKFQEDSc2w4Cspw5FHs8/vvf76UGkkSefjO9/JnHVaTqVng6mgdViS2W5561sDhpEknZePfSyz3TLxcCUJF/mqQJ3YtJvRRJMaaplDI+24/PLAoSRJL8k//3P03h0nBkRjLc89FziUdBYWfCWlHDkCo/ZEA6dxYtQyhze9CTp0CBxMkvSS3HZbZidkPlX8n/8TNpPUWpYvd2tEScpnc+Zkr5b5wx8CBpJa0ZIfNrVZKlhAu3aOtUhSvpg7F978/h6sZiIAM1jCEw+fDJxKymbBV1LK6oXHmc5SAFYymSN0Z/jwwKEkSS9ZaSkcJrMTUn/ETogK0+KaBuZSA8BGRrCbAbZbJCmPDBoUnb+eVE4ly5YFDCS1ogEbMyepNTRALBYwkCTpvHTs2LQzSXvqmcESGhsDh5LOYMFXUsqpioW0I/pLlZxp/b73hUwkSTpf8+Y1vYeX0cD+xxaHDSS1khM1K+jCcaDp3/xll4VMJEk6H927w376sI6xAMxmIc8+UR84ldQ6uq7IPj5LkpQ/3vSm7J1Jjh4NGEg6Cwu+klKe+VZmB2Tw4OhQeklS/vjoR7PP8a2rCxhIaiXV/zez3XL99dCuXcBAkqTz9t73NrVbOlLHrkeXEo8HDiW1sERjnJG7qwDYziC2MpTbbw8cSpJ0XsaNyx5r+bd/CxhIOgsLvpJSZjdkDpw6S0mS8s/gwZmdkPlUsXp1wEBSK7mmS1XqvpJyjh8PGEaSdEH69cteLbN5c8BAUis4XL2GHhwGkv/eY3TpEjaTJOn8dO8Oy5jGSaID2OdTxfr1gUNJZ7DgKyll7P5o4PQYnVnBFK65JnAgSdJ5u/xyWMr0jE7IgQOBQ0mtYOqxaKJaA6UsZDavelXgQJKk83bbbdmrZWy3qNAc+EtF6r6CBQC8/e2h0kiSLkRZGdTTnoXMBmA86/j9j/cHTiVlsuArCYATG3cxkk0A1DKHRtpx221hM0mSzl/79tCtV1mqEzKO57nvrn2BU0kta+e6I0xhBZCc4NCJa68NHEqSdN7GjYPFzOQUZUA0Ue3Tnw4cSmphT38j+/zeWbNCpZEkXaj77sucqDaPah55JGAg6QwWfCUBsOlX2R2Q/v1DpZEkXYz6+sxOyPhD1QHTSC1v7c9rKCEB2G6RpHxXR0eWMAOAiaymbvehwImklpNIwJTTu5I0UkINcwFo1y5kKknShejfP/sIrb//PWAg6QwWfCUBULYou+A7f35zXy1JymWzZmV2QvpsqDrHV0v5p/Oy7HbLyJGBwkiSLsrUqU3v5SUkaLekJnAiqeWc2HecaSwDYAVTOEZXXv/6wKEkSRfkppuyC7773FBNOcSCryQA6p7MHDgdMMAZp5KUrz75yaaBU4g6IXv2BAwktbDDj2a2W5ykJkn56957s8/x3bs3YCCpBW3/Uy3taASa2uff+17IRJKkCzVwIJS/eQz76A1EYy0//GEicCqpiQVfSRCPM3JPtN3ndgaxlaGUlQXOJEm6YH36wAZGpzoh5VTy5BN2QlQgEgmmn4gKvgfpwRomBA4kSboYffpkT1R76qmAgaQWdOChitR9BQsA6NEjVBpJ0sXq1z+Wmqg2gN1M7rwpcCKpiQVfSbBmDZ3rDwPJjnaM/fvDRpIkXbh58wCaOiH92MuptRtDRpJaztat9D21A4Bq5pGghA4dAmeSJF2w+fNhHeM4SFQFK6eSQwedqKbC0Pv57GMoOnUKlUaSdLGmTMncmWTKcY/QUu6w4CuJREV2B+QznwmVRpJ0scrKYNKkzNUyv/8nOyEqDEf+lt1uue22QGEkSRetfXsYN76EauYBMIid/OZftwZOJbWMjkuidssRurKKSVx5ZeBAkqSLMn9+9s4kW222KEdY8JWUMXCanKHUs2egMJKkFjFoUPZ5eFIh2PG77IKv7RZJym8DBmQOnk44aLtFBWD7dobEoypANfOIU+quJJKU53r2JDVJDaKxlj//OVweKZ0FX0m0q4k603Fi1DAXgBtuCJlIknSxpk7N7ITMp4qEuyOqAHRe0bRaPVkccLWMJOW3xsYztkc85s4kKgCV2ZPUevUKFUaS1BKGD4e99GMDowCYQy2H9zcETiVFLPhKxe74cTquWwrASiZzhO4AjB8fMpQk6WJ9+MOZnZDZLOTwvvrAqaSLk6hvoNf6GgBeYCR76M+AAdC3b+BgkqSL8pGPZBZ8x+xzha/y36G/VqTuK1gAwPveFyqNJKklxGJw6aVN7ZbOnKDyv1YETiVFLPhKxW7hQkrijUDTjNN+/UIGkiS1hO7R/J3Ue3tnTrD4ATshym+b/7yCLhwHmjrYl14aMpEkqSX06AG7GMgmhgMwlxo2rXe1jPLbkUezV/gm2+iSpPw1bFjmURQTD7sziXKDBV+p2J1li6E9e0KFkSS1lP79o2v6aplOS10to/zW8Ex2u+W660KlkSS1lAXR4sfUe3sXjnO0amXARNJFamyk3+ZoV5JNDGcXAwGYPj1kKElSS9i9O3OsZdYpx1qUGyz4SsWuKvscvK98JVQYSVJLicVg8ODMTsihR5x1qvx26OHsgu8HPxgqjSSppSTPNU1vt+x9yHaL8ld82Qo61B8Dmtos8+ZBhw4hU0mSWsK73w2LmEUDpQCM2V9FgxuTKAdY8JWKXMOz0cDpMTqzgilA06owSVJ+mzABFjI71QkZusOBU+W3Hmuidks97VjIbEaOjCY3SJLy35AhmdsjJvuqUj7a/OvsSWqXXBIqjSSpJXXrBifozFKibRumsILqx44GTiVZ8JWK265dtNu6CYBa5tBIO8Cz8CSpUOzYASfplOqETGhYAUeOBE4lXaDDhxl1ItrecynTOUknNm4MG0mS1HK2bcucqDbugBPVlL9KqipS9xVEe5ZfdlmoNJKkljT/9IYkyZ1JSolT92xtwERSxIKvVMzOcn4vRCvCJEn57557omuyE1JCAmrthChP1dRE/4Zpard8/eshA0mSWtIdd8BxurCcqQAMObAcjrpaRvmp3cLMXUkAbr01ZCJJUksZGB3L7lEUyjkWfKVidpaC7/DhocJIklpanz7RNb0TcvBhOyHKTw3PZLdbBg0KlUaS1NKGDYuu6atltvzvwoCJpAt0+DAD92fuSjJvnsdQSFIhueKKzLGWjssca1F4FnylYnaWgu/mzaHCSJJa2owZ0TV9F4fG5+yEKD/Vn6XgO2pUqDSSpJY2Z050TW+3nHzCc3yVh86yK4ljLZJUWDZsgFVM4ghdAZjT6FiLwrPgKxWreJx4VTUA2xnEVoYC8JWvhAwlSWpJ/ftH19VMTHVC2i9y4FR5KJGgpDr6t3uQHqxlPNBUHJAk5b+XvSy6pq+WOfSog6fKP3VPZk9Su+++UGkkSa3hnnsgTik1zAVg0KnNJHbsDJxKxc6Cr1Ss1qyh5MhhINkBifYWGjcuYCZJUosbMyazE9Lt0FbYvj1wKuk8bd1Kh/1R57maeSQoobQU2rcPnEuS1GJiMZg6FVYymaN0AaDfCxZ8lX92/6EidZ8s+A4dGiqNJKk1JI8XSp+otuW3tlsUlgVfqVilbeec/odp2rQQYSRJrWXDhuiavj0i1dVhwkgX6izHUDQ2ehaeJBWaxsbMiWoj2Aw7XS2jPJJI0Gtt1G45QM/UriRTpoQMJUlqackx9PSxlrqnLPgqLAu+UrE6y8BpLOYKX0kqNF/4QnRNn9xT/7TbOiu/JCqy2y2veU2gMJKkVvP1r0fX9MHT+mccPFX+iG/cTNdju4Co/Z04PfTqCl9JKiwjRkTX9LGW44871qKwLPhKRSo52B8nlpo9/fnPh0wkSWoN06dH1/ROyN6HHDhVfjn29+yC7zXXhEojSWotkydH1/R2y7r7HTxV/nj+gew2ywc/GCqNJKk1zZsH2xjCdqL9nUfsrqaxPh44lYqZBV+pGB0/TrtVS4HofKQjdAdg/PiQoSRJrWHChOi6jaFsYzAAvdZXQ9xOiPJEQwMdV9YC8AIj2UN/wHaLJBWiwVFTJWOFb+cVTlRT/jj1dHbB1zaLJBWmvn0BYqmJaj05xOHadUEzqbhZ8JWK0cKFxBobgcyO9C23hAokSWotyYIvNK2W6Vh3mMSatYESSedp+XLa1R0HMtst110XKpAkqbV06BBd01fL9Flf5UQ15Y2uyypS98m297veFSqNJKk13XtvdE3vp275rRPVFI4FX6kYVTX94Un+QZo4ETp2DBVIktSaPvrR6Jq+PeL6n7s9ovLD7j9mr5S59lpo1y5UIklSa7rtNoBY6j2/W/wwxxY5UU15oL6eAdsXAvA8Y9hLP268EXr0CJxLktQqZs6MruljLQu/71iLwrHgKxWjyqY/PMk/SDt2hAojSWpto0ZF1/ROSN1TzjpVfjjxeHbBN/lvWpJUeM7Wbkmf/CPlrKVL6cRJoKnNsndvyECSpNZUcrq6VsNc4sQAmF7nWIvCseArFaHE6YLvMTqznKkA3H57yESSpNb09rdH1/ROSKLSTojyQ2lt1G6ppx2LmAXAXXeFTCRJak3veU90Td8e8dAjtluU+xIV2ZPU3vKWUGkkSW3hYx+Dw/RgNRMBmNqwmKP76gKnUrGy4CsVm127iG3aBEAtc2gk2g/Rc/AkqXD16QM335zZCRl/cgmrFp0MnEw6txO7DjP40CoAljCDk3SivBwmTw4cTJLUagYPhiFDov5qcqJaw7OVJBKBg0kvYvvvswu+ye0+JUmFKTlRLbkzSXvq+a+PLQ4XSEXNgq9UbCqzOyAAQ4eGCCNJaivDhkXX9E7IC79bHC6Q9BJs+V0NJUQj/Ml/uyNHBgwkSWoTPXtmTlSbwRL2bXOimnJbx0UVANTRnsXMBBxrkaRCN3hwdE0/igJ3VFMgFnylYtNMwXfatBBhJElt5QMfiK7p7/3HH7cTotx27O/Z7ZaPfSxUGklSW/nMZ6Jr8r2/jAYOP7EoYCLp3LYuO0CffWsBWMQsTtEBgDFjQqaSJLW23r2hY8fMgm+v5x1rURgWfKUiE0+bYZTsPL/pTRCLhUokSWoLU6fCJZdkdkLqnnJ7ROW2Tb/OLPh27hz9O5YkFbY3vzm6prdbHvoXB0+Vu775xuyxluQ2n5KkwvbjH8NSpnPy9GSf+VRRWxs4lIqSBV+pmMTjJE4XfLcziK1EewsNGRIylCSprYwYAcuYltEJ2b49cCipGXUnE5QTFXwP0oO1jGfAgMChJEltorQ0uqbvTDJqd2UzXy2F1dAA3VZl70qS3OZTklTYBg2CetqziFkATGAt1Q8fCJxKxciCr1RM1qyh9OhhIDlTOlrW+453BMwkSWoz739/ZidkHM9zZNP+wKmks3vkv7YwiJ1A1G5JUMJ73xs4lCSpzcydG01UO0FHACYcruLo0cChpLM4dIjUJDVoKvi+5S2hEkmS2tKll0bX9J1JyhZXB0qjYmbBVyoi8efOfn7v9Okh0kiS2trVV0fX9L8B93/MTohyz5o18NM7ststd9wRKpEkqa19+cvQQBkLmQ3AWNbziXfuDZxKyvapTzbtSrKHvmxgNCtWwIQJgYNJktpEWRncckvmWMsLv/IoCrU9C75SETnyaPbA6ZQpodJIkkJJn3U6cJPbIyr3PPZY9kqZjh2hS5eAoSRJbapfv+ia3m459KgT1ZR7dj27nr7sA5JjLTHGjQubSZLUtjp1ymyzXBJzrEVtz4KvVCQSiaaCb5wYNcwF4PbbQ6aSJLW1CRMyOyEj9zjrVLlnx47sgu873tF0pqMkqfBNmxZd01fLTDzs4KlyT481mW2W7t2j1V6SpOJx9dWwnjHspxcAcxNVJOKJsKFUdCz4SkXi3752nIF7lgKwkskcoTsAd94ZMpUkqa19+9tRJ2QfvQGYTxXPPWsnRLnlS1+oZw61AGxgFAdK+/F//2/gUJKkNlVSApWVmRPV5lPFAw8EDCWdYcmS7Elq998fMJAkKYiXvQwglmq3DGA3f//J5qCZVHws+EpFYvUvFtGORqBphvTo0RCLhUwlSWprffpAeiekP3t45oGNISNJGRoaYAor6MwJIGq3vOEN0K5d4GCSpDY3ciS8wCj20BeICr6//50T1ZQ7Hnoos+BbxfzUduSSpOLRK1rYm7EzyfpfuKOa2pYFX6lIdFiS2QEBuPXWUGkkSaHMmhVd01fLtFtoJ0S54+jR7IHT664LGEiSFEz//pA+Ua0v+2hYuyFoJindjhdOMotFAKxmAofoyZw5gUNJktpcNLk+c6ylz/MeRaG2ZcFXKgJ//Wv2FkOvex186UsBQ0mSgigrg7e8JbMT0lhRRWNjwFBSmoqK7HbLa18bMJAkKagvfSlztUynZZW2W5Qzqn64mPbUA1DBAm6+2fN7JalYfeITmWMt/TZW0dAQMJCKjgVfqQj88pdNA6fH6MxypvKRj0RnIkmSis+kSdnn4S1aFDCQlOaRR5raLfW0YxGz6NIlcChJUjDDh2e3W5YsCRhIOm3r1uxJahMmBAwkSQpq2DDYSz82MAqAOdSyqNqKr9qO5R6pCDz/zC5GsgmAWubQSDvmz3+Rb5IkFawbbsjuhOzfVR84lRSJHTnMJFYBsIQZnKQT7dsHDiVJCubqqzMLvuVUsm9fuDxSUlVVdsH3xhsDBpIkBfXyl0fXZLulC8c5tWhFwEQqNhZ8pQJXWQm91mV2QD7wAejcOWAoSVJQ8+ZF12QnpDMnePo/7YQoNyz6YTUlJICo3XLbbWHzSJLCGjIEDtCbdYwFYBaL+ML/ORU4lYpdVRX8wz80FXxP0JFlTOPqq8PmkiSFM3lydE2fqPb3r1QFSqNiZMFXKnA/+1m05VVSJeWUl5/jGyRJRWHKlMzz8GLVdkIUXn199kqZAQMCBpIk5YRJk5raLR2p43jVssCJVOx+9jPoyx7GsAGIdlPrP9jDeyWp2E2dmlnwHbjFsRa1HQu+UoHbti174PTyywMGkiTlhB07MjshM05WnuOrpbZx+HB2u2XatICBJEk5oVev7G2dpZB27cr8d1jBAlf3SpLo1w8WMpsGSoHMhVhSa7PgKxWwxkb4w//GU39YdjCQsVcNZezYwMEkScF985uwiFmpTsi4g1Xs3x84lIreurWJ1ODpAXqyjnHcfHPgUJKk4L73vcydSeZTxdNPBwykoveb32RPUvv+9wMGkiTlhH/9VzhBZ5YRzVyeynI2LD0aNpSKhgVfqYDV1sIE1tCDw0DUAXnDG2OBU0mSckHfvpmdkCms4M+/OhI4lYrdE/dvYSC7gGglV4ISOncOHEqSFFyfPrCEGZwi2jK3nEq+853AoVS06uuja3rB98Z/Kad790CBJEk5o0+f6JrcmaSUOI99c2HARComFnylAna27Zw9v1eSBDB3bnRNrpYpIUGi1k6IwhqyNbPdAlBaGiqNJClXDBsGdXRkMTMBmMRqDmw8FDaUitahQxAjcze1/nOGBU4lScoFgwdH1/SdSXo/77bOahsWfKUC9otfZBd8Z88OGEiSlDMGDoROnTLPw1v6/yqpqwsYSkVv5x+a2i1VzOe66wKGkSTljJIS+OAHM9st1FSz0LlqCmD//mg3tZ5Ekw4qKefKq9xNTZIEsRhcdVVmm6Xh2UoSiYChVDQs+EoF7Ne/bir4xolROn9u4ESSpFzy1rdmdkLmU8VjjwUMpKJWX589UW369ICBJEk55aqrss/x/eY3AwZS0Xrqqcw2SwULPIJCkpRyxRWwikkcpQsQtVkWLQocSkXBgq9UwIb1PcF0lgKwksnsPeWBMpKkJrNmRZ2QI3QFok7I5s2BQ6lo7d9VzxxqAdjAKPbSj6FDA4eSJOWMWbMyJ6qVU2m7RUE0NmZPUvMICklS0uzZEKeUGqLFVyPYzK4lOwOnUjGw4CsVqEQChu1dSDsagahj/KUvBQ4lScop7353ZidkOFu45/07aGwMHExFae/jy+nMCaBpBdd73hMykSQpl4wfD73nj+MAPYGo4Pb00wmOHQubS8Vn9erM3dQ29nE3NUlSk1tuia7pO5M88uXqQGlUTCz4SgVq8eLsGafDh4fLI0nKPR06wGtek72tc0VFuEwqXkt/mNluicWga9eAgSRJOeeTny6hmnkADGQXw9jC734XOJSKzpN/OZ7aTW0FU5h5RbfAiSRJuaSkBC69NHOspfe6SiepqdVZ8JUK1Pr12QXfkSPD5ZEk5aYpU7ILvs8/HzCQitaInZntlkQCYrGAgSRJOWfyZNstCu8V/WpTu6lVUs7SpYEDSZJyztix2W2W7dsDBlJRsOArFaiKiqaC7zE6s5ypdOkSOJQkKefceWfmNkPzqeK226C+PlwmFZ81a6Dn2qjdcooyFjGLSy8NHEqSlHMmTsxst5RTyX/8R8BAKkonn2yapFbBAt7whoBhJEk56d57YStD2c4gAOZRzY5t8cCpVOgs+EoF6r+/uYuRbAKgljlcdmW7wIkkSbmoTx+Y/oohqU7IfKqIEeePfwwcTEXlC584xERWA7CEGdTRkVe+MnAoSVJOmnJb5mqZXbvg5MmAgVRU6uqyd1MbMSJgIElSTho2DHr0iKVW+fbiIH/69rrAqVToLPhKBepVfatS95WUc/BguCySpNw2dlxTJ6QHhxnPWlauDBxKRaXdkhpKSABNK7fGjg2ZSJKUq/pMHsBGogrbXGoopYHNmwOHUtHYurWp4HuErqxkMkOHBg4lScpJhw5lbus84VDVOb5aungWfKUCdOgQjN6bOeP0wx8OGEiSlNM+8YnsbZ0feyxgIBWVU6dgyNbMdktJCdxyS8BQkqSc9Z73NA2eduE4k1nJvn2BQ6loHFq1neFsAaCGucQp5YYbAoeSJOWk8vLMsZb2Syz4qnVZ8JUK0Fe+krnFUBXzmT07YCBJUk4bMQL63dg067ScSv7+94CBVFR++tPsdssTT0CnTgFDSZJyVq9esLRj5jm+//7vAQOpqDz2lcxJat26QVlZwECSpJx1883R5KCk8Qct+Kp1WfCVCtCSRXHmE/0B2cFAtjCMYcMCh5Ik5bRdw+YSJwaQ+hty/HjIRCoWixYmUgXfA/RkHeMYPjxwKElSTnviZOY5vu3bBwyjojL+QFPBt4IFHDkSMIwkKaeVlcFherCKiQDMZDH1R+sCp1Ihs+ArFZhTp+CFv66hB4eBaMZp+/Yx+vcPHEySlNPe9P4erD7dCZnBEjpwkmPHAodSUdhVvZmB7AKi1b0JSiz4SpLO6fiE2TRQCkQrfJ98MnAgFY3e6zJX+M6YETCMJCmn3XRTdE0eRdGBU3zu5iVOFlKrseArFZhvfztzW8RKyvnhDwMGkiTlhfHjmzoh7alnBkv4618Dh1JRKK3NbLfcc0/AMJKkvPD6d3ZhOVMBmMIKdjx/lHg8cCgVvIa6RqbX1wCwmWHsZBDvfGfgUJKknDVoUHRNP8f36GNVfO5zgQKp4FnwlQpMRUV2wXfw4ICBJEl5oXPnpoIvRH9Ltm8PGEhFIR7PbrfEYgEDSZLyQp8+TYOnpcSZQy1btwYOpYK37ZGVdOMo0PTvb+DAkIkkSbmsW7fo48yxloqKgKFU0Cz4SgXm979vOnsxTowa5nLFFWEzSZJyXyyW2QmZTxUvvBAwkIrCiROZBd8q5vPKVwYMJEnKC699bXa75eDBcHlU+Boa4MHPNY3QJwu+r3pVqESSpFxXWgp33QVLmc5JOgBRm6Wy8kW+UbpAFnylAvK3v0FHTjCdpQCsYhJf+l53OnQIHEySlBemvzWzE/If/xE4kApe9bP1zKEWgPWMZi/9GDUqcChJUs7r1y9ze8RyKvnMZwIGUsH7xjeg/eKmEfoKFtChA3TvHjCUJCnn3XMPfP5L7VnELAAmsJaeHHBHNbUKC75SAXn8cZjNQspoAKIO8LBhYTNJkvJI+6ZOyHjW0Yv9noenVrXzkWV04iTQNHDvwKkk6aVYxSSO0BWIJqrt3x84kAra44837UrSQCkLmc2IEWEzSZJyXywG116buTPJXGp49tmAoVSwLPhKBaSqKvscvGuvDRhIkpRXbrklsxMyj2qOHQsYSAWv/eKq1H2y4OvOJJKkl2LCpFJqmAvAcLawqXJH4EQqZDvWHmEKK4Boa84TdOaDHwwcSpKUF+bOzT7H95lnAgZSwbLgKxWI48fh4YczC779XlVOt24BQ0mS8spll2VujzifKu69N2AgFbxDj2Se3/va1wYMI0nKK1/8YvY5vg8+GDCQClrvF2ooIQFE7eUPfQg+/vGwmSRJ+aG0FE5MzWyz/Ou/wsGDwSKpQFnwlQpETU10TRZ8j9GZDnOmBkwkSco33bplzzp1myG1liNHmtotpyhjEbPo0iVwKElS3ujbN3ui2kMPBQykgrV3b/Zuai9/ecBAkqS8UzJ+LPvpBURtFki4ylctzoKvVCAOHYL+7GIkmwCoZQ6vvbVd4FSSpHzSoQOsZ0xGJ+TppxOBU6lQ7Vh9iImsBmAJM6ijoyt8JUkv2YIF2RPV1q0LGEgF69AhWEBF6nEFC7j88oCBJEl5561vi6XaLQPZxXA2s8PTKNTCLPhKBeL730/ODopUUc5UF/hKks7Tz37W1Anpzx5GsCm1i4TUkr7w6uqMrREBbropZCJJUj7p0AFec8dQtjEYgHlU8+gjceLxwMFUcDasT6RW+B6kB2sZT58+gUNJkvLKa1+bfRTFe98bMJAKkgVfqUDs35+5xdDWwfPP8dWSJJ3dgAHZ2yP+4Q8BA6kgHToEI3Zlbo1YUgLt2wcMJUnKOxMmNA2e9uAwE1jDypWBQ6ng7KzewiB2AtG/twQlxGKBQ0mS8s7xqZljLQAnToRKo0JkwVcqEPX1mQXfRe3Lz/HVkiSd3aWXZm+PuHdvwEAqSAcPZp+F96pXhcsjScpPr3hF9kS1AwcCBlJB6r8xs80iSdKFGHDTvNR9suB7+HCoNCpEFnylArFoYTz1h2IHA3n3vwwLnEiSlI+6doVe12duM/T97wcMpIL0m183bY24n16sYxy/+EXgUJKkvDNuXPZEtYcfDhhIBenQXzMLvtdcEzCMJClvvf9z/XmBkQDMpYZSGti2LWwmFRYLvlIB2LEDJrCGHkRTgiopp1t39xeSJF2YobP6sYFRAMyhllIaSCQCh1JBWfKHTQxgN5AcqI/RpUvYTJKk/LRr6FziRP3f+VSxbFngQCo4Ew5UpO4rKadTp4BhJEl5q1OnpolqXTjOZFZSW2uJTi3Hf01SAdi7N3tbxMsvDxhIkpTXJk9u6oR05gRTWc7Jk4FDqaCM3efWiJKklrFya3dWMQmAGSyhS4mH4anlJE7VM/5oLQDrGc1e+rF9e+BQkqS8FItlH0URjwcMpIJjwVcqACtXNu37D9Efjn79AgaSJOW166/P3B5xPlVs2RIwkApOl5WZ7ZavfjVgGElSXrvnnqZ2SxkNbPjd4rCBVFC+/6FldCKa+ZgcpP/Qh0ImkiTls2OTM4+i+MEPLNGp5fivSSoATz/dtMI3TowNveYGTiRJymfdumUXfB95JGAgFZT16zN3JqlmHkOGBAwkScprvXplrpYpp5J9+wIGUsFIJOD5B7J3JenWLVQiSVK+OzBqNg2UAtFYy/r1gQOpoFjwlQpAl5ITTGcpAKuYxKYD3QMnkiTlsy5dYCGZnRC3dFZL2bW1njlkbo14ySWBQ0mS8tZll2VPVNu9O2AgFYy6Oph+Mrvga7tFknShDtV3ZhnTAJjKcob1PhY4kQqJBV+pADz13YWU0QBEHZA3vSlwIElS3ps4q6kTMoUVPPK7o4ETqVAsuT97a8TRo0MmkiTls7lzYRnTOEFHIFrhW10dOJQKwoYNsIAKAOpozyJm8YMfwIgRgYNJkvLWJz/ZNFGtlDj9ti4KnEiFxIKvlOfq6jK3RayknKFDAwaSJBWEKVMyOyGli2sDJ1Kh2P3HzHbLmDEBw0iSCkL33mUsZDYAY9jAXx/YGziRCsEff3aAiawBYDEzOUUHJ9hLki5K9+6ZO5OUU8muXZ0DJlIhseAr5bl9+7ILvmPHBgwkSSoIW7dmnof3sm5VAdOokMxpzGy3bNgQMIwkqSDs35/ZbplyzHaLLl6fDU1LxT2/V5LUEtIn10N0FMXevR0DJlIhseAr5bH6erj22ugPA8AxOrOcqbzjHYGDSZLy3oc+lNkJGb6zkoaGgIFUEI4dgzF7o4LvKcpYzEy+853AoSRJee/DH85st5x6porDhwMGUkHY9rvMSWqXXhowjCSpIHTpAiuZzFG6ANG4flXVoMCpVCgs+Ep57IknYP+a3YxiIwC1zCFR0o6OTgqSJF2kXr1gFZMyOiHPPhs4lPLen39xkEmsBqKtEevoyMiRYTNJkvLfpEmZK3zLqeR3vwsYSHkvkYA5DZkF30suCRhIklQwxk0opYa5AIxkE7UPdQqcSIXCgq+Ux154IXM75yrmM306xGIBQ0mSCsLUqRCnqRMynC3sXLQjcCrlu1PPZm+NOG1aqDSSpEIxbRpsZCR76AtEE9Ve2JAInEr57PixBAuoAGAvfVjPGHr2DJtJklQYDhzI3Jnkyo7PBUyjQmLBV8pjDz2UfX7v//t/AQNJkgrGwIHRNX21zP0fr6a+PlAg5b1EAlb8uOlMxeS/LVf4SpIu1uWXA8RSf1v6sJ/7v7A+aCblt5/fu4G+7AOSbZYY73pX2EySpMLwjW9kjrVMPLKE558PGEgFw4KvlMd+//vMgm+Pl5czZ064PJKkwvLKV2bOOi2nkkcfDRhIeW3NmuyJau95T8BAkqSCEYvBhz6U2W6ZTxXrrfnqAtTXw2NfzWyzQHTkiSRJF2vKlOw2y1e/WhowkQqFBV8pj3XrEmc+0UqZHQxke+mwwIkkSYVk4sTsTsjatQEDKa+tWZ1IFXz304vnGcuECYFDSZIKxsSJ2ef42m7Rhdi1K3uSWo8e0MkjFiVJLWD0aNjKUHYQba02nyqeXxsPnEqFwIKvlKficRhybA09OAxEHZA77/LwXklSy7n77qgTsp1BAMyjmgf+206ILszyBzcxgN1AciJBzBW+kqQWc9ttUM281OP5VLFsWbg8yl9//3tmwbeK+fz4x9FKckmSLlbPnjBvXiw1wb4XB9n93IawoVQQLPhKeepvfyO1uheigu/o0QEDSZIKzuDB8OY3N3VCenKIw7VrPcdXF2Tp/8tcKXPJJVFHV5KkltCtG4ya3Zu1jANgFou4755TgVMpH33gXXXMYhEAaxjP0Xa9eO1rA4eSJBWUz3wmc2eS+VSxbl3AQCoIFnylPPX889kzTgcNChhIklSQBg/O3tZ569aAgZS3Lm+XWfB14oAkqaXt3dvUbulIHS8fsDRwIuWbRAJmJBbTgWiyQAULKHH0VJLUwsaMyRxrKaeS5csDBlJBsMki5amf/ayp4BsnRjXz6Nw5cChJUsH52MeyC74bN4bLo/x04gTMbsicqHbXXQEDSZIK0vvfn7laZsCmSk6cCBhIeeexx2BeInOS2n33BQwkSSpI06dDDXNTj+dTxR/+EDCQCoIFXykPHTwIiytOMJ1otvIqJvHy13UPG0qSVJCGDYPlHTPPw/voRwMGUl761lfrmc1CAJ5nDPvoS3n5i3yTJEnn6bLLsieq/eu/hsuj/BKPw403Zu6mVkk5b31rwFCSpIIUi8GUS3uyiokAzGQxP/9JnTth6aJY8JXy0LJlMJuFlNEARB2QYcMCh5IkFaxdJ3tkdELax08GTqR8c7xiKZ2I/t0kV1717x8ykSSpEA0fDouZySnKgKjgW1sbOJTyxu7dUFfXVPA9QUeWMp3evQMHkyQVpCFDmiaqdeAU01nKhg2BQymvWfCV8lBNTfaM0w98IGAgSVJBu/XWpk5Ie+ppt3IJiUTgUMorB/6a2W4B6No1VBpJUqEaNQpO0YHFzARgEqt59LcHg2ZS/jhwAPqyh7GsB2Ahs/nUP5bRoUPgYJKkgnT33dnn+DpRTRfDgq+UZxIJuOuuaKZy0qYB5UycGDCUJKmgve99mefhzaeKhx8OGEh5ZdWqzHZLJeV8+9sBA0mSCtq//Vtmu2UuNTz7bMBAyhtf/GJmm6WCBdx7b8BAkqSCNn8+1MQyj9B661txgr0umAVfKc8cPBhdkyt8j9OJA0OmhgskSSp4gwdnzzp9+umAgZRXKiqa2i2nKGMxMxk0KHAoSVLBSt8eEaK/QRZ89VIcOpS9m1osFjCQJKng7Rk8gzraA02Tjg4cCJlI+cyCr5Rn9u2DfuxmFBsBqGUOH/pou7ChJEkFbdIkWMp0ThLtZzefKh56KHAo5Y3/+tZBJrEaSJ6r2IFXvCJwKElSwbruuuydSf72t4CBlDceeiiz4Lt1cPk5vlqSpIv3gY+2YxGzAJjIGnpygMOHA4dS3rLgK+WZO+/MnnH6trcFDCRJKnixGLz7A+1TnZDxrOOFhfvZvj1wMOW83/0OOi6vTj2upJyrr4YePcJlkiQVtq5dYcbrxnKAnkDUf/7LXxKp3bKks/njHyFGPLW6aicDePfnhwdOJUkqdB/9aDxjZ5K51HicgC6YBV8pz6xfn13wLS0NGEiSVBTO3B5xLjVu66wX9eij2e2WUaMCBpIkFYWRo0tS7ZaB7GIYW6isfJFvUlF79FEYz1p6cRCI2iz9+rufsySpdZWWZu9Msn59wEDKaxZ8pTyzalXmwOnukW4xJElqfa9/ffZ5eL/5TcBAygtPPJFd8H3nOwMGkiQVhTe/ObvdsmpVwEDKeUuXZrZZKljANdcEDCRJKhrLOs5K3c+niscfD5dF+c2Cr5RHfvObzC2GdjCQf/z+sMCpJEnFYOJE2DG0aeB0PlX8+tfw1FMBQymnbdsGK1YkUoOn++jNrNeP5aqrAgeTJBW82bNhWafMdsudd0IiETCUclZ9PTz+eGbBd8Cry+nWLVwmSVLxuPZ9JzKOooAEf/5z0EjKUxZ8pTzyxz9GWwz1IDq5vZJy+vZziyFJUtvoUz6W/fQCOD35KMGDD4bNpNz12GMwko30Zw8QrbS68irbLZKkNjIvc4UvwLp1ocIoly1ZEl2T/07ixGh/6dyAiSRJxaRb9/qsoyj+9KfAoZSXLPhKeeTMLYaqmM/MmeHySJKKyxvfFEt1QgawmxFs8jw8NWv//uztnG+8MWAgSVJRecU7B7CREQDMoZZSGti/P3Ao5aSDB6ETx5nOUgBWMpmX/0P3sKEkSUVjypR9Wef4Pv10wEDKWxZ8pTxx8CAsXpw5cDr6TeWUlgaLJEkqMq9/PWwZlLk94uOPw+bN4TIpd33sY5ntlo39yxk9OmAgSVJRuf12UoOnXTjOFFbwsY8FDqWc9K1vwWwWUkYDEP27GTcucChJUtHo1KmBni9v2lminEqWLoU1awKGUl6y4CvliSeeiK7pWwx1vGJewESSpGLU8/rMWaeAZ8uoWcl/IwB1M+af4yslSWp5K7tkTlRbujRgGOWsDRsyJ6mt77sgYBpJUjHqeGXTOH+yH/3HP4ZKo3xlwVfKE3v3QkdOpLYYWsUkrniVWwxJktrWxLdnd0L27QuVRrmsHfXMZiEAzzOGIdP7BE4kSSo2O0c0TVQrp5KTJwOGUc468xiKZZ3Lz/HVkiS1vEtf05cXGAnAXGo8ikIXxIKvlCc+9KHMLYZq25UzYkTgUJKkojPtZf3ZXDISaDoP75/+KWwm5Z6HH4bpLKUT0ch6JeW8972BQ0mSis4HfjCbBqJzkJIT1bZsCZlIuWbXLtizp6nge5Qu3P7NKYFTSZKKzYQJsLp7tDNJF44ziVV8+cuBQynvWPCV8kAiAadOZW6LeGCcM04lSWHsGNbUCZnCCiD6WyUl/dd/Za6UqaScbt0CBpIkFaXeQzuzjGkATGEFXTjK//xP4FDKKQ8+CAPZwQg2A1DDXHr0Lg2cSpJUjI5PaTqKIr0/Lb1UFnzTNDQ0cP/99/OGN7yBUaNG0bVrV7p06cLIkSO5/PLL+exnP8tTTz11QT/7tttuIxaLveSPo0ePtvB/nfJZXV10TX+jPzHdgq8kKYxDE7PP8T11KlQa5aKnnsou+A4aFDCQJKkoDR8OVUSDp6XEmUMtDz/sRDU1eeGF7DbLvHnn+AZJklrJsbSCb3KsxTaLzocF39Oqq6uZPHkyb3/72/n1r3/Nxo0bOXbsGMePH2fTpk0888wzfOUrX+HOO+8MHVVF6POfj67JTshxOvH2r04NmEiSVMxmvT971umKFaHSKNd89auwfXvTv4062nPNx2cSiwUOJkkqOrEY7B+beY7vQw/BZz4TMJRyxuHDcO+9mQXfF/ovcFcSSVIQl344+yiKgwcDBlLeseALPP7441x99dWsW7cudBTprL7zHejHbkaxEYBa5tC9d7uwoSRJRavDJdmdkF/+MmQi5ZJvfQt6coCJrAFgMTOZPKtD4FSSpGIVn5u9WuZ733N3EsFf/hJd0wu+Xa51NzVJUhhd+ndhOdEir2ksozPHeOSRwKGUV4q+YrRnzx7e/OY3c/z48dRzXbt25eMf/zhXXHEFw4cP58CBA2zatIm//e1v7N69u0V+71NPPcXQoUOb/XyXLl1a5Pco/8XjcOIEvOyMLYaucMapJCmQ7gM7s4hpzGJx6jy8I0e6ho6lHNDYCLt3w8upTj1XSTmvWBAwlCSpqI1+1SSO/LIr3TiaKuydOBGt7uzbN3A4BbV9O5TQyLzT7ZYtDGXydYMDp5IkFauBA+GPzGcmSyglzmwWcvDgFaFjKY8UfcH3G9/4Bjt37kw97t27N7W1tYwcOTLj6y655BLe9KY3tdjvHTp0aNbvkM4mufA8fcbpdf/ojFNJUli7hs+HzYtT5+H9x39cxde/Dl2t+xa1M4+hABjz5nLGjw8USJJU9N701lJe+Ke5dNv8OMPYyiC2s4PBPPss3Hxz6HQK6c47YQqr6MZRIJqk9q53BQ4lSSpasRis6l4Oh38IRDuTfPzjV/C+9wUOprxR1Fs6NzY28sMf/jDjua985SuMHDmS+vp6duzYwYEDB1rld99yyy307NmT9u3b079/f66++mq+8pWvsH///lb5fcpfP/pRdE0fOB36DxZ8JUlh1c3I3h7xwQdDpVEuaGiAL34xuk9vt1x6p+0WSVI4sRiMelPT36Jku+X73w+VSLkgOfy2gIrUc6dmllNS1COlkqTQ4nMyx1pOnICjRwMGUl4p6mbMkiVLsgq63bp145WvfCXdunVj8ODB9O7dm/79+/Oe97yH9evXt9jvXrp0KYcOHaK+vp49e/bwxBNP8NnPfpYJEybw8MMPt9jvUf47dAhixFNbDO1gIH1mDgucSpJU7Lq9LLvgu3lzqDTKBYcPJ+8SqX8T++hNzzljgmWSJAkgVp7dbmlsDJVGuWDbtuiaPkktdolnUEiSwuo6fzJHiY77TP6N2rUrZCLlk6Iu+C5dujTrube85S385S9/oa6uLvXcnj17+NGPfsTMmTN56KGHWjXT3r17ueWWW6itrW3V36P8kEjAD34A41lLTw4BsL7PfGIlscDJJEnF7uoPNXVCkgOnn/pU02oJFZ+f/jS6jmQj/dkDQGKu7RZJUg4ob1rhmxw8feSRUGGUC554Irom/z00UMpr750TMJEkSfCPnyullujv0Ug20Z9d3HNP4FDKG0V9hu++ffuynkskEs1+/dGjR7n11ltZunQpY8ac/0qFCRMm8LrXvY4rrriCUaNGceTIEWpqavjiF7/Ijh07Ul938uRJ7rrrLp5Itj7Poq6uLqMoffj0kor6+nrq6+vPO9v5SP781v49gjVrAMoyZpzWzZjn//Y6J1+jUu4qtNfnlv5zmbT7CUawmQHsZBcD+clPGvnIR+KhoymAT3+6HRDLaLf0vGFu3vx7L7TXp1RofI3qovTvz6meg+lycDvzqCZGnAQl7N5dT69eocPlv3x8fX7rW+3owjGmsAKAVe2mMbFbWV79N0gvRT6+PqVicuZrtH17WFQ2n6vqnwRgHtU88MBNfO979XTtGiymWklLvzcXdcE3vWCa7stf/jLvec97aGxs5Hvf+x733Xdf6nPHjx/nq1/9Kj/4wQ/O63fdd999DBkyJOv5efPmcfPNNzNt2rSM7aWffPJJtm/fzuDBg5vN+PnPfz7r+YcffpjOnTufV7YL9YjTYVtdTU1/4JKMgdMX+vfkaCuvNFdh8DUq5a5CeX2W9R/NpN3RBLX5VPFHbuaxxzYyZszywMnU1uJxaGi4GcjcGrG6JMbuPGu3FMrrUypUvkZ1oSYPG824g9vpzhEmsIbVTOLnP3+aUaMOv/g36yXJp9dnPH41c1lEKdFExWcaytmQZ20W6Xzk0+tTKkbpr9H1fabAzui+nEoe5CZ+8YsnGTLEw3wLzfHjx1v05xV1wbd79+5Zz1111VV85jOfST2+9957eeihh1i0aFHquQs5Y/dsxd70z73rXe/iW9/6Vsbzixcvbrbg+9nPfpa77ror9fjw4cMMGzaM66+//qz/XS2pvr6eRx55hJe//OWUlZW16u8qZkeOwGteE/3vmxw4jRPjrf/6Ztr1bt3/j5XffI1KuavQXp91B0/CbT8Gmgq+f/rTGO6/fzhtNP9MOeLgQUgkoq2b0wu+cz/0IejTJ1Cq81Nor0+p0Pga1cWKLV8Oy54Gor9Vq5nEn/50FX/+s4f5Xqx8e33u3AmbNpXxJipSzw1+zTxeeeONAVNJrSPfXp9SsTnba3TEf26GW6LPJ4/Q+slPruHJJxspLQ2VVK0huXNvSynqgu/QoUOznpszJ/u8jrlz52YUfNO3X24po0ePznru4MGDzX59hw4d6NChQ9bzZWVlbfbHuy1/VzG6//7o2pETTCc6b3pjx0mMHpAfg6YKz9eolLsK5fVZdu2lqfv0It9vf1vG7beHSKRQHnwwupZxitksBKBh1FjKBg4MmOrCFMrrUypUvkZ1wS5tarfMp4qfcht/+1sJmzaVMHZswFwFJF9en9/9bnRNb7/2e/WleZFdulD58vqUilX6a3Tmq0ezMzaQgYmdpwu+CaqrS6isLOGqq8LmVMtq6fflkhb9aXlm7ty5Wc81NmbP7GxoaMh43K1btxbPsmHDhqznevfu3eK/R/lj1aroOotFlBH9G9w8uDxgIkmSzjB0KMd7RAW95Hl4AKtXhwylEPbsia7TWUpHomNTShbYbpEk5ZA5c4iTvRuF7ZbiE/1/nkj9OzhID4ZcOyFoJkmSUmIx1vaYD0AvDjKW5wHbLHpxRV3wHTp0aFbR9+mnn854HI/HefbZZzOemzFjRup+48aNxGKxjI/HH3884+v/+te/8o//+I8cOnTorDm2b9/Oj3/844znYrEYs2fPPt//JBWI9ev///buPD6K+v7j+HtzH0ACcskd5BAMRzjCIeKBFoUKoniLcvRn1daj/PxVrSjUqiiiVqWCLYraKlpEKiCiVkARuYUEELlMgHCKXOEmyf7+GLK7k9ncuzt7vJ6PRx7MfGZm9xNx+H5nPjPfrzRlirHseSF64Z3cOAUABBGHQ3F9jIuQVB1Ra22RJFVh9guEuOLusme/JaoX/RYAQBCpVUunWraXVPyA0klJ0uLFdiaFQHM6pblzpSbKUyMZI/itiemuZi0i+hYpACDINBua6Vouvs5++mm7skGoiPjezB/+8AfT+urVq3Xvvfdq1apVWrFihYYPH65NmzaZ9hk2bFilvuPkyZMaP368mjRpov/5n//Rxx9/rA0bNmj16tWaMmWKunfvrkOHDpmOGTBggOrXr1+1Xwoh78EH3cueN04bDsr0sjcAAPaJ6e0u6hXPLZOVZdxMQ+T4z3+MPz37LepBwRcAEFySLjWuqWNVoAwZU3dNmGBnRgi0FUZ31dRnqd2fPgsAILi0uMldByi+15KXJ23ebFdGCAURPYevJN1222368MMPNXv2bFdsypQpmlL8emUJl112me68884qfdexY8c0depUTZ06tcz9zjvvPP31r3+t0ncgPGRluZeLL0IK4hIV06GDTRkBAFCKTPNTp/+S8WDc8eNSjRp2JYVAS0iQTp1y91vORsUp1mNUHAAAgkJmpnRuhLVMrdBS9ZbDYTyo5nDYnBsCIjvb+LOnlrlijEoCAAg63bu7FosLvpJRN2jTxo6EEAoi/g1fSfrwww914403lrvftddeq//85z+Kiqrcf7bk5OQKH9O+fXstWLBArVq1qtR3IHw4ncbTOpJUT/uVplxjpWtXKSbin9EAAAQbj+kxPC9C9u+3IxnY4eBBo9ibqkNqK+Nx4xNtMqT4eJszAwCgBI/RJ4ofUnI6pVJm4EKYKSyUfv97Y9nzDd/2Iyj4AgCCTGqqzrQ05pfP0BrF6bQkafJkO5NCsKPgKykhIUH//ve/9d///ld33HGHWrRoocTERCUmJiotLU233Xab5s+fr9mzZyslJaXSn3/VVVdp586dmjx5sm699VZ16NBBqampio6OVlJSktLS0jR06FC9//77Wrt2rTp27OiH3xKh4ssv3cueFyCeQ2YCABA0UlNV1PZCSVJnrXVdhDz2mJ1JIZAeeMD4s7tWumJRPZmGAgAQhNLT5UxIkGR+UO0vf7ErIQTS229LZ85IMTqrrlotSdqblKaYRkypBgAIPnEXG9fV8TqjjjKGqFi4UNq61c6sEMx4XdBDv3791K9fv0od06JFCzkrMEldo0aNdM899+iee+6panqIECvc15zMgwcACAmOHpnSph8Vp7PqrLVaoR684RtBNm40/vTst8RdQr8FABCEYmPlzOgqx9IlukA/qa5+1gHV07ZtdieGQCi+35Ku9UrSSUlSXqMeamhjTgAAlKpHD+mf/5RkPKi2SsYwzytXSgwQC294wxcIMrm57mXPJ44p+AIAgpXDYx7f4rZr0SJp5kybEkLAHDokff+9sexZ8I3vS78FABCcPEehKB6d4pNPjKGdEd7+/nfjT88+S6Mh9FkAAEHKy70WiTd8UToKvkCQefNN40+Hitz/kDdoIDVtal9SAACUpZSLkBtvlDZssCMhBIp78Bqn6+bpmVrnSRdcYFtOAACUycs8vpJR9EX4+vxz93JPLXMtU/AFAAStjh2luDhJ5j7Lk0/alRCCHQVfIMgkJhp/ttFmpeqIsdKjh+Rw2JcUAABl6dRJRbHGRYhnwdfplL791q6kEAhff238maYc1dMBSdLJDpn0WwAAwauUB9W++caOZBAonn+/xTfNC6NjpYwMmzICAKAc8fFS586SpAu1SSk67NrEyCTwhoIvEEScTumkMY0M8/cCAEJHXJzrZllbbVaqDrk27dtnV1Lwt8JC99+vZ7+l5pX0WwAAQaxFCxXVrSepuOBr3DFdtcrGnOB3X35p/Jmiw2qnHyVJRR06SwkJ9iUFAEB5POoC3eTurBTXEABPFHyBILJokXuZgi8AIJRE9bDOhydJY8fakQ0C4amn3Mue/ZaonvRbAABBzOFw9VvO00FdoG2SpMWLpbNn7UwM/rJ7t7TyXPfUs58a24c+CwAgyHmMTOJ53f2Pf9iRDIIdBV8giHgr+DodDql7d3sSAgCgojweTvIcHrFGDTuSQSDMn+9eNj2o5nFBCgBAUCplHt916+xIBv7mbThnY4WCLwAgyJUyFcXSpXYkg2BHwRcIIrm5xp8JOqmOypYkOdq1k2rVsi8pAAAqopSnTo8dsyMZBMKKc9easTqjDK0xVlq3lurUsS8pAAAqopSbp3v32pEM/G3bNvdyTy1zr1DwBQAEu9atpdRUScX3WoypKLKz7UsJwYuCLxAknE7p3XeN5QytUawKjBUuQAAAoaBVK9dFiOd8eJL5JhvCw0cfuZc7KlsJOm2s0G8BAIQCj1G0PB9Uu/lmO5KBPzmd0pgxrjX333edOkb/FQCAYOZwuB5Ua6h9aqI8SdLGjdLBg3YmhmBEwRcIEjt2uJcZFhEAEHI8LkIaaL+ayd2wff65XUnBX2bNci/TbwEAhJw6dYw3ZlT8wPUZScbIJE5nWQci1Ozc6V5OU47q6YCx0qOH0X8FACDYlTKimueUBYBEwRcIGocOuZeZUwYAEJJKmceXp07DT16ee5l+CwAgJJ1rs+J1Rp2U5QrTbwkvnn+f9FkAACGJqShQQRR8gSDxr3+5l10XIYmJUocO9iQEAEBllfLU6RNP2JEM/MnzSWLX33VcnNSpkz0JAQBQWaXcPL36ajuSgb889ph7mYIvACAkldJnufdeO5JBMKPgCwSJ5eeuO+ppv9KUa6x07SrFxNiWEwAAlVLKRYgkFRQEOhn4y5497uVUHVJbbTZWMjKk+Hh7kgIAoLI8Cn6ehcBVq6QDB+xICP7w3XfuZaahAACEpAYNpObNJUndtEpRKnRtys+3KykEIwq+QBDYs0f69ltjmSdOAQAhq359qUULSVJXrVa03FVebpyGj/373cumwj79FgBAKOnUyRidQtYH1ei3hI+jR40/43RaXfS9sdKmjTGPMwAAoeLcg0o1dFzt9YMrvGCBXQkhGFHwBWyWk2MetZkbpwCAkHbuIiRZJ3SRNrjC/frZlRB87a673Ms8qAYACFnx8VLnzpKkC7VJqTrk2vSb39iUE3xq61b3cidlKV5njBX6LACAUOPRdnnWD667Tpo2zYZ8EJQo+AI2mzFD+uUX9zpDDAEAQlopwzr/8IO0bZsdCcGXTp6UsrLc6xR8AQAhzaPf0k2rXMtLlkhnztiREHzpgw/cy/RZAAAhrYwptCZPDnQyCFYUfAGb7d3rXnaoyPUPdmG9BlKzZjZlBQBAFZXy1KlkHgoYoengQc81p/vmad26UsuWdqQEAEDVlTKPr8SceOFghecAahR8AQChrEsXKcoo55Xss3iOaIHIRsEXsNnLL7uX22izUnVEkhTdq4fkcNiUFQAAVZSRIUVHS7IWfD3bPISmoUPdy2nKUV2dG6YkM5N+CwAg9JTxtsyrrwY6GfjS++9Lc+a41103x+PjpY4d7UkKAICqSk6W0tMlSelaryQdd206dEjaudOuxBBMKPgCNjp82LzOE6cAgJBX4iIkWcdcm2bMsCsp+MKuXdKyZe51+i0AgJDXurWUmiqpuODrdG36619tyQg+8sIL7uXzdECtde71p65dpbg4e5ICAKA6zl13x6hQGVpj2vTee3YkhGBDwRew0b595nVunAIAwsK5t2WiVaQu+t4V5gXQ0LZ7t3nd1G/xeEMKAICQ4XC42rCG2qdm2uHadPq0XUmhupxOae1a97rp7W3utQAAQpXHdXfJYZ1zcwOcC4ISBV/ARv/4h3nddRHicEjduwc+IQAAfKGUeXydTmnNGm8HIBR89ZV5nYIvACAslNJvOX1aysmxIyFUR2GhdN115hgP1wMAwoLHdfevUsxTUbzxBnP5goIvYKsXX3QvJ+ikOinLWGnXTqpVy56kAACorjKeOn3++UAnA1/xfFAtVmfcQ0i1bi3VqWNPUgAAVFcZ/ZZJkwKdDKpr+XJp9mxzjIIvACAsXHSRMY2WSoxecc7f/hbohBBsKPgCNnE6zesZWqNYFRgrvCUDAAhl7duXehFScjoDhA7PZ9E6KUsJOjfWJTdOAQChzOP6u2S/Ze/eQCeD6vrpJ/O6Q0Xuv9f69aXmzQOfFAAAvhAdbcxFL6n2kVzV037T5u3b7UgKwYSCL2CDbdukFi3MMZ44BQCEjehoqVs3SVJz7VADue+WLloknTljU16osoIC81x49FsAAGGjfn3XBXr3qNWKLn4QW9L77xtDBCM0LF8uDRtmjrXWFtXRIWOlZ09jCi0AAEJVGQ+qzZoV6GQQbCj4AjZ4/nlpxw5zjBunAICwUsZFyOefBzoZVNfXX5vX6bcAAMLKuX5LYtEJXaQNpk1LltiREKri8cetsZHt6bMAAMKIx72WPw+wDuvMPL6RjYIvYIMtW6yxXlHnLkISE6UOHQKbEAAAvlZGwZcLkNCzebN53VXwjY+XOnUKfEIAAPiSRyGw5Dy+9FtCh7d7Lb2jKfgCAMKIR1uWdoCCL8wo+AIBduKEMZylp3rar+ZFucZK165STEyg0wIAwLfKKPiOHi0VFQU6IVTVggXSffe512vroNro3B3VjAwpLs6exAAA8JUy+i2jRjGscyhwOq0jqUlSD8e5gq/DIXXvHtikAADwtaZNpQYNJEm1t6yQ5DRt9pyKCZGHgi8QYO+8Y4199H8eF5Q8cQoACAdNm0oNG0qSLo5bKYfMFd7Fi+1ICpXldEr/8z/mWHetdK/QbwEAhIMuXaToaEnSlTWXWzZ/+WWgE0Jlbdhgja1afFJxP2QZK+3aSbVqBTYpAAB8zeFwPajmOHRIg9ubX+l9+mk7kkKwoOALBJi3i5DWBz0uKD2eLAYAIGR5XIQknzms1jKPseetPUTwOX1a+uknc8w01CX9FgBAOEhKck2t1Cx/g2oo37SZfkvw8/Z3dMGR76WCAmOlZ8/AJgQAgL94PHjddK95ZJJmzQKdDIIJBV8gwP72N2us4Q7mlAEAhKEyhkf83e+s88Ii+OzZY41dHEO/BQAQhs61aVFyqqtWmzY9/LB05owdSaGi9u61xlI30WcBAIQhj3std7Y132vZuFFaty7QCSFYUPAFAig31xob+0SRHCvO/cPcoAGP4QAAwofHjbVbL1hh2Xz33YFMBlUxZkzJiFNX1Tp387RuXally0CnBACAf3jcPL0nw9pvmTo1kMmgsl55xbx++eWSllPwBQCEoW7dXIttD1unohg+PIC5IKhQ8AUCaM0aayw9brN05Iix0qOHMQQmAADhwOMiJP2Y9SLEW7uI4HLggHm9pX5S1MFfjJXMTPotAIDw4VEQ7HCCfkuoadfOvL59u9wF36Qk6aKLAp4TAAB+Ubu21KaNJKnmtjWKlXkYkjVrJKfTjsRgNwq+QIA4ndJTT1nj15zHE6cAgDCVmiq1bStJanpwreJ02rT56FEuQoLdF1+Y129oTL8FABCmLrxQqlFDktT2qPc3fE+ftoQRJObNM69f13PvuaqvjIcQY2ICnxQAAP5y7nrcceaMhmdkmzY5ncb9FkQeCr5AgMybJ61da4717Cklr/e4kOTGKQAg3JwbHtFx9qw2Ts+ybF64MNAJoaLy8qyxkRdR8AUAhKnoaKl7d0lSzJ48TRy927LL888HOilURHa2NTaAh+sBAOHMYyqKiTdaRyZ5+ulAJoNgQcEXCJClS62xJk3kHmLI4TANfQkAQFjwuMF2fp71bZnvvw9kMqiMFda/Lp2/w+NC0uMCEwCAsODRtmWctTaE3q7rYb9ly6yxtP0efZaePQOXDAAAgeDRZ0neYO2zbNoUyGQQLCj4AgGSm2uN3f+bk1LWubedLrxQSkkJaE4AAPidx0VIYpb1qdOcnEAmg4o6dEgaOdIci9Np1frp3ASGbdoY8wYBABBOPB5U6xVl7bfMn890FMHo44+tseb7eMMXABDGOnWS4uIkSdGrV1hmLpgzx4acYDsKvkCAvPeeeX3oUKlvzTVSQYER4AIEABCOOnZ0XYRoxQrdfrt58+uvBz4llG/UKOnIEXPs1nZZcpw5Y6zQbwEAhCPPB9XWrfDaT5kxI4D5oFw5OdLnn5tjA68uVPTqlcZK48bGDwAA4SQ+Xurc2Vj+8Uf9feIRyy6zZwc2JdiPgi9gk8aN5R7OWeLGKQAgPMXHSxkZxvLmzapVeMiyS1FRgHNCuRYssMb6xHkME0W/BQAQjjyLgytXqmXzQssuCxcGOCeUafFia6xbjR+l/HxjhT4LACBceTyo1vbISstm+iyRh4IvEADFL8N4+tWvRMEXABAZPC5Cbm9jvQgp+SYp7OV0ev87uaYO8/cCACJAcRuXn69LG1onwPNWYIR9vE2fdUcrj0l9udcCAAhXHtflXQut8/j++9+BTAbBgIIvEAAbNlhjnTvLXfBNTJQ6dAhkSgAABI7HRUjnM9aLkHvuCWQyKM+UKdbYrFlS47xz/Zb4eGO+IAAAwpFHgTAha7lGjzZv3rBB+vnnAOeEUo0da16/4AKp1S8eD6n17BnYhAAACBSPPkt81grLvZXdu3lQLdJQ8AUCwPNF3mIpp/e7H0Xt2lWWmdUBAAgXHgXfhHXWgu833wQyGZSn5Dx4knRph4PSli3GSkaGe15mAADCjecoFitW6IILrLtw8zQ4HD1qjXXqJPdNmOho434LAADhqFUrKTXVWF6+XK1bOS27zJ8f2JRgLwq+gJ8VFUlTp1rjyRs8bngzLCIAIJy1bu26CIletULnNzRfhOzdKz3/vPH0Kex18qT0ySfWeO0tzN8LAIgQ3bpJDoexvHy5Bg607vLoo9LOnYFNC1be+iw3DTgmrV9vrKSnS8nJgU0KAIBAiYqSunc3lvfu1ZDueZZdnn1Wev99Y+omhD8KvoCfPfmktHq1Oda/v5i/FwAQORwO98NN+/Zp9qQdll0efVTq00c6ezbAucHkrrussZdeEv0WAEDkqFlTat/eWM7OVvP6J9WokXmXLVuk3r2NB6Vgj3nzpDvvtMZvaLHaePJeos8CAAh/Hm1d2s8rvD6odvvt0lNPBTAn2IaCL+Bn3iZHb9hQ3DgFAEQWj9Esmuy2DussSTk50sqVgUoIJZ09a8zVW1KjRqLfAgCILMVtXWGhtGaN10G58vKk774LbFpw++gjaywpSYpZtcwdoM8CAAh3Jaai6NXL+27eahQIPxR8AT/6+mv3dHeeBl9bJK04d7O7QQOpWbPAJgYAQKB53HBrsH2FLrrI+24//xygfGCRny8VFFjjl1/mdPdb6taV0tICmxgAAIHmefN0+XINHux9t4kT6bvYZYd1wBjj78nzIbWePQOWDwAAtijRZ7nmGikmxrrbDz9Iy5ZZ4wgvFHwBP5k8WbrsMmt8zBhpyEWbpSNHjECPHu75gQAACFfF88pIcqxYrv/+Vxo71rrbsGEBzAkm2dnW2LffSvXzt0m//GIE6LcAACJBibdlhg+XPvzQutv8+UZN8fjxgGUGGfMQfvWVOda4sfTmm3IXfGvVki68MOC5AQAQUA0aSM2bG8urVqlLp0ItWCB17WrdtVcv6YMPApseAouCL+An06Z5j99xh9xvyUgMMQQAiAyeFyGrV6th3QKNGyd17mzeLT9fOnMm0MlBkv77X2usRw/RbwEARJ70dCkx0Vg+V0C86SbvD3X/9JMxuhcCZ9Mma+zPf5YSf8mTdu82At27S1Hc9gQARIDiB9WOH5c2btQll5RemygtjvDg5eVuhLIXXzRewOjWrXL92qgo46mP1q2lxYulnTuN65v5843Pu+MO6V//Mh6QvPFG6fPPm2v+/Cg9+aR0/vnGZzid0oIF0rvvGhdChw5J+/ZJv/619Kc/Sbt2SS+9JPXu7T2H7Gxp2zbjAqp27Yrn7nRKq1YZOV92mXT0qDRlijGUT69eRnzTJmMEwg8+cMf9zdschM2bG/+N9Srz4AEAIlBmprR9u3TihDGeUMeO6tZNWrvWvNvRo0a7HWhnz0rffGMMzdinj9SkiXvbzp3SkiVS27ZSy5bSokVG/LLLjL7S8uVSixbGPcbPPpMGDpSGDKl+TtnZ0m23SYMGSf/3f+4+ktNpzBu4bZtUp47x1tGuXcZ8dnXqVP57zp6VvvjCGo+JEfP3AgAiT2ys1KWL0fjn5Bidg3r19KtfufsAng4cCHiGEevMGWn6dGv80ktFnwUAEJkyM6UZM4zl5cul9HS1a2eMfrFrl3lXbw9N2WnLFunVV417MNdfb3TBKqqgQHrrLeM+zCOPuJ/V85edO6WXX5auukpq1864J5OcLF1+uVE327XLGMnu8GEpJUXq2NG4h+N0GoO9pqYa+zVrJm3cKBUWSgkJvs2Rgm+Yeeqpqh9bPDqf02nd9tJL7uVx42IldZZkFFa3bzf+J334Yfd+777r3v/hh93LF19sFKVHjzZ//htvSPfcYyw3bWq8SNKwYcXyfuYZ6YknrPHnn5duvVWaO9d4W8gz/uqr0v33V+zzq2LKFGusdWtp3rxzhfjiixCHw6jOAwAQCXr0cF+ErFghdeyoCROkqVPNu732mvGWRqDdfLM0a5axnJRk3NDt3t2Y5+aKK6STJyv+WW++aTz0NmdO1fP54gupf39jecMGafx442G6+vWNvtRf/2o95rzzpD17Kt6PKnbrrdaH1W644dyC581Tj6G5AQAIaz16GAVfyei3DByoP/7RuBH5f/9n3nXmTOnOOwOfYiQaMsS4t1JSq1aS3vCYnJCCLwAgUpSYikKjRikmxpj+oFcv48W8Ytu3G4XLpk0Dn2ZJy5a5X8ybNEnKyJC+/77ix9esKZ06ZSz/+c/S6dNSXJzv85SkrVvPvcgno+jrqU0box7Ws6d/vrsyGNsELk6n92JvecaNM47zLAqX5X//1xp78UX38s6d7nvBFeF5bEnTp5uLvcUeeKDin18Vr75qjf3rX+cuQE6elLKyjOCFFxqPewAAEAk8L0LOFRG9NYP/+EeA8vGwc6e72CsZLyG/+aaxPGVK5Yq9xebOrV5OxcVeT//5j/Fmi7eHy4p5KwSXJS/PuFFdUvPmMq6Y1qwxAm3aVG4YFgAAQlnJm6eSoqONh9qvvNK86/r1Acwrgm3b5r3Y27btuQXe8AUARKKuXd3DvXpMydS2rfdRMSpTe/GnkqOwrlljfSO5NLt3u4u9xYrv4fjDwIGlb9u8OTiKvRJv+MIHpk2Thg6t3DElhwzcssW8PnGiR4e9DEVFxivyVeFt2EJf2bnTGuvQ4dzCmjXGeAMSFyAAgMjSpYtxp7Sw0HUR4m0Kij17jF2io8v/SKfTGJJox47qpbZ5szW2bp3RX/AcuaSyfN3fWLLEqLmWvLDx9PzzxhvJFbVqlff4JZfIeEiteFJl+i0AgEji2e55FhJlveavzFQUTqcxjF9envF2zf79xlvDx49X7SH8YFBQ4NCaNfUUG+swpoPwkx9+8B6/5BIZ91lWrzYCLVpIDRr4LxEAAIJJcrIxP2d2tnEj48QJY9gyeR9cdO/e8j/S6TQeaNuzx8e5luOTT869NFeOklODSdJ990kXXODzlCR5v2cUjCj4hrkuXcrenp9vLbZWRVlPOHjj7Y0VTzt2lL9Pdfn78z1NmuQxhjxPnAIAIlXxRUhWlnHlcPy4lJysf/9buukm8679+0vz56vcm4Z/+IP0yiv+Sfe776rfX/B1f+PddytWgK7u977yijR4sKRJ9FsAABGqeXOpXj1j/t4VK4w7n+fmwvrTn6S77nLv6vEyTbnuuUf6+999nKvtYiT1tuWb773XeNhN69cbN7gl+iwAgMiTmWkUfAsLjXGR+/SRZEz71Lq1uQY0ebI0YULZH3f77d7fDva33/2uescHsuYTjBjSOYw9+qjxcGNZP9V5YwUVZxruiYIvACCSFQ+PWFTkegujXTvrbl99ZXmZxuLwYeOhKvhWkybG9BcOh+i3AAAil8PhbvsOHTImbzsnNdW6e1mjbxTbty8ci732ad1aev11Yw4/+iwAgIjm2faVeBJt0CDzrseOlf1RP/1kT7EX1ccbvmHs+uvL3+eii6T4eGN6NvhH7dpSy5YegeJ/cBMTjbecAACIJJmZ7kl6V6yQ+vZV69ZSrVrS0aPmXb/6SsrIMOZwSUw0CrxxccYIw06nlJNjPLwK3zL9Ny2+eRofL3XsaEs+AADYJjNTmjvXWF6xwqgwSkpLs+568KDRXO7bZ4xQ4u0+y48/+jHXCNS9u8fKsmXuZQq+AIBIU/xwvWQp+HqbMuLHH40ptrz1V4pnSEDooeAbhtq3l3772xId31LUrCl99JH05z8bE11L7j8rqlEj48+CAmPumfKcf75rFCSXwkLjoqjkZ1ZEyWM9Fd8ULqlmzXNPgPpZ06bS+PHGfDySjKGgcnKM5S5dPDYAABAhvDx1Gh8vzZwpXXWVedexY42fyqhMH8Kb4n6Qw2H0WUrGJWOevgMHrMu+zsdb38rz806cMIrg1fnOU6eMG9Sepk71WPniC6Pou2eP0bECACCSlJzH9/bbJUlt2lh3HT1a+vDD6n9l3bqh2OQ6derUKSUkJEhylLt3dUVFGXMSvvyyR7D4IbXYWOOJQQAAIkn79sa8vSdOWIZLu/NO6aWXzLt7G2mtNFFRUsOGPsixhJJ1ndRU19TDFVKyjlXd+0FlcTrN8xnHxBj3bIq/t+T2Yr17GwPcbdtmlIaK909ONqY1rV9f2rnTd3lS8A0zR44Yb8hUxq9/bfxU1NmzZzVv3jwNGDBAsRQsK4chhgAAka59e6Nne/y46anTK6+U+vUz3uqtqjp1jLeBUXFffGGd4+bcy0uGtDTvrzEBABAJPJ+k9+i3xMWZb/RJvin2StLXXxvdpVBy9myB5s37wr77REVF0qWXGn8xiYnGDwAAkSQmRuraVVq8WMrNNZ4er19fUuXrRSW1bSv98EP1U4TV0aNSSorvPo+CLxBIFHwBAJEuOlp68kmjOus55JCkzZur99EdOlTv+EjUubPxNnPxEE81a0rNmtmaEgAAwaN2beN13s2bpTVrjHEP4+PlcJiLvb6SlMRzVlUSFSVNnmwsM98HACBS3XSTMRVTZqaUkOAKN2lSvY/lXkvooOALBBIFXwAApD/+0Wv4wQelhx+u+Mc4HO6fjh2lSZN8lF8EqV9fmjLFmN4jLs4Y5ik+3u6sAAAIIpmZRsE3IcGYounCCyVJNWpIx46Vf3hUlDVWVGSNNWsmTZzIy6nVFh1tdwYAANjj97/3Gq7I4Bve+itRUUY3aMKEauaFgPHy1wjAL4qK3ENANWjA6zMAAJTQvHnl9l+92niJo6BA+v57KT3dP3mFu7vvNobCzsmRhgyxOxsAAILM448b4xgeOuQq9kpS377lH/q73xl9lZI/Tqf1Z/t26cYb/fh7AACAiFVyKidPjz3mvb9y9qy0ZEnl79XAPhR8gUA5elTq00eqW9d4u9fhsDsjAACCisc91HLFxDDkIQAACIALL5TatbO8+rJ/f/mHtm3rp5wAAAAqoaz7LfRXwgcFXyBQUlOluXONq8J//cvubAAACDoXXVSx/ZKTpRdfNJpWAAAAO/z2t2Vv/9WvpLvuCkwuAAAAZXn4YSkjwxofNIgRRsIJc/gCgeZwSDVr2p0FAABBp7TBL/LzpdOnjebz5Eljbru4uMDmBgAA4Kl1a2ts6lTp9tulM2ekWrUCnxMAAIA3TZoYU2EdOmTM6RsVZQzbTJkivPCGLwAAAILG4MHm9SeekGrUkM47zyjypqRQ7AUAAPZr2dIay8yUEhIo9gIAgOBUu7ZxjyUpiWJvOKLgCwAAgKAxZoxUp46x3KZN+cMlAgAA2KFpU+mhh9zrI0ZI6em2pQMAAIAIx5DOAAAACBrdukl790o7dkhpacYwQwAAAMHo5Zelxx6Tioqkhg3tzgYAAACRjIIvAAAAgkpsrHTBBXZnAQAAUL769e3OAAAAAGBIZwAAAAAAAAAAAAAIWRR8AQAAAAAAAAAAACBEUfAFAAAAAAAAAAAAgBBFwRcAAAAAAAAAAAAAQhQFXwAAAAAAAAAAAAAIURR8AQAAAAAAAAAAACBEUfAFAAAAAAAAAAAAgBBFwRcAAAAAAAAAAAAAQhQFXwAAAAAAAAAAAAAIURR8AQAAAAAAAAAAACBEUfAFAAAAAAAAAAAAgBBFwRcAAAAAAAAAAAAAQhQFXwAAAAAAAAAAAAAIURR8AQAAAAAAAAAAACBEUfAFAAAAAAAAAAAAgBAVY3cC8A2n0ylJOnr0qN+/6+zZszpx4oSOHj2q2NhYv38fgMrhHAWCF+cnELw4P4HgxjkKBC/OTyB4cX4CwY1zNLIV1/OK63vVRcE3TOTn50uSmjZtanMmAAAAAAAAAAAAAMqTn5+vlJSUan+Ow+mr0jFsVVRUpN27d6tmzZpyOBx+/a6jR4+qadOm2rlzp2rVquXX7wJQeZyjQPDi/ASCF+cnENw4R4HgxfkJBC/OTyC4cY5GNqfTqfz8fDVq1EhRUdWfgZc3fMNEVFSUmjRpEtDvrFWrFv8IAUGMcxQIXpyfQPDi/ASCG+coELw4P4HgxfkJBDfO0cjlizd7i1W/ZAwAAAAAAAAAAAAAsAUFXwAAAAAAAAAAAAAIURR8UWnx8fEaO3as4uPj7U4FgBeco0Dw4vwEghfnJxDcOEeB4MX5CQQvzk8guHGOwpccTqfTaXcSAAAAAAAAAAAAAIDK4w1fAAAAAAAAAAAAAAhRFHwBAAAAAAAAAAAAIERR8AUAAAAAAAAAAACAEEXBFwAAAAAAAAAAAABCFAXfCFdQUKBFixbphRde0E033aS0tDQ5HA7Tz/Dhw8v8jBYtWliOKe2nW7dugfnFgBB36NAhzZ49Ww8//LD69u2rxo0bKzExUbGxsapXr5769OmjsWPHKi8vr0Kft379et1///1q3769UlJSlJiYqBYtWui2227TvHnz/PzbAOHHV+doRdtPh8OhoUOHBui3A0Lf+vXrNXHiRN1yyy3q1KmTmjRposTERMXHx6tevXrKzMzU/fffr6VLl1bos2hDAd/xxflJ+wkEzr59+1S/fv1K3yui/QT8r7LnJ+0n4D9vv/12pc6xuXPnlvpZtKGoqhi7E4C98vLydPnll9udBoASmjdvrvz8fK/bDhw4oAMHDmjJkiWaOHGiJk2apBEjRpT6WU8++aSeffZZFRYWmuLbt2/X9u3bNX36dF177bWaPn26kpOTffp7AOHKl+coAN+bNGmS3njjDa/bis/RlStXatKkSbr99ts1bdo0xcbGWvalDQV8z1fnJ4DAGDVqlH7++edKHUP7CQRGVc5PAMGNNhTVwRu+ABCEioqKKrTfiRMnNGrUKM2fP9/r9nHjxukvf/mLpZNQ0pw5czRo0CA5nc5K5wpEIl+dowDs99577+mZZ56xxGlDAfuVdn4CCIwpU6bo008/rdQxtJ9AYFTl/AQQ3GhDUV0UfKF69erpmmuu0RNPPKHZs2erUaNGVf6sxo0bKycnp9SfOXPm+DBzIPz169dPkydP1qpVq7Ru3Tq98847SktLM+3jdDo1duxYy7FZWVmWG2SXX365lixZouzsbN13332mbQsWLNCUKVN8/0sAYaw652hJPXr0KLMNnTx5sr9+DSDspKSkaMiQIXr99df1xRdfKDs7W+vXr9cnn3yiq666yrL/O++8Y1qnDQX8p7rnZ0m0n4B/bN68Wf/7v/8ryRgGNi4urtxjaD+BwKjK+VkS7SfgXy+88EKZ51i/fv1M+9OGwhccTh4DiGhOp1MOh8MUa9GihbZv3+5av+uuu/T222+X+hme+zdv3ly5ubn+SBWIKDfeeKOefPJJdejQwbJtx44dSk9Ptwwne/z4cSUlJbnWR44cqWnTprnWa9WqpR07diglJcUVu/jii/Xdd9+51lu1aqXNmzdb/l0AYOaLc1SS6Vy79NJLtWjRIr/kC8CtsLBQLVu21I4dO1yxhIQEnTx50rVOGwrYoyLnp0T7CfhbQUGBLr74Yq1YsUKS9OCDD+o///lPufeKaD8B/6vq+SnRfgL+9Pbbb5um85o2bVq58917og2FL/CGb4Tz9T8G+/fvV3p6upKTk5WQkKAmTZpo8ODB+uc//6mzZ8/69LuAcDZjxgyvhSRJatasmS655BJL3LO4VFRUpJkzZ5q2X3XVVaZOgiTddNNNpvWtW7dqzZo1VU0biBjVPUe9yc7OVps2bZSYmKikpCSlpaXppptu0ieffFLhIaQBVEzJc6ply5ambbShgH3KOj+9of0EfO8vf/mLq5iUnp6u5557rtxjaD+BwKjK+ekN7SfgX88++6waNGig2NhY1a5dWxkZGRo9erQ2b95s2Zc2FL5CwRc+dfLkSW3YsEEnTpzQ6dOntWvXLs2ePVt33nmnunfvrp9++snuFIGwUHJwhqSkJNWvX9+1vnnzZh09etS0z0UXXWT5nPT0dEts5cqVPsoSiFzlnaPeHDp0SFu2bNGpU6d08uRJ5ebmasaMGbruuut01VVX6cCBA/5MGQhLp06dUm5urnJzc5Wdna2PP/5YV199tfLy8kz7/f73v3ct04YCgVGV89Mb2k/At5YtW+YaUjI+Pl7vvfeeEhISyj2O9hPwv6qen97QfgL+tWXLFu3fv18FBQU6fPiw1q5dq5dfflkXXXSRJkyYYNqXNhS+EmN3AogcWVlZ6t+/v1atWmV5OgVAxe3YsUMLFiwwxW6++WbTG/s5OTmW47wVm7zFvB0LoOIqco5W1oIFCzRo0CAtXrxY0dHR1U0RiBjLli3T5ZdfXur25ORkjRkzRvfee68rRhsKBEZVzs/Kov0EKuf48eMaNmyYCgsLJUnPPPOMOnbsWKFjaT8B/6rO+VlZtJ+A/xQUFOiRRx5RjRo1XPPy0obCV3jDF9UWFRWlvn376oUXXtDXX3+tTZs26euvv9af/vQny1NmW7du1UsvvWRTpkDoO378uG655RadPn3aFUtJSdETTzxh2u/IkSOWYxMTEy2xkvOJStLhw4ernygQoSp6jhaLjo7W1Vdfrddee03fffedNm3apP/+97+67777LBfWS5cu1bvvvuvX/IFIkpSUpAkTJujBBx80xWlDAfuVdn4Wo/0E/OOhhx7S1q1bJUn9+vXT6NGjK3ws7SfgX9U5P4vRfgL+Va9ePd1999368MMPlZWVpXXr1mnGjBnq1q2bZd8//elPrvaPNhS+whu+qLbFixercePGplibNm3Ut29fXXzxxRo4cKBp2/Tp0/XnP/85kCkCYeHAgQO69tprtWzZMlcsISFBM2fOVFpaWrnHlxxitrQYgKqpyjm6fft2r21ov379lJ6e7nras9j06dM1YsQI3ycPRKATJ07od7/7nV5//XXNmTOnzLaUNhQIrPLOT9pPwPdmz56tqVOnSpJq166td955p1oj1Ei0n4Cv+Or8pP0E/GfgwIG67bbbFBcXZ4qnp6dryJAhuuSSS7R06VJX/MiRI5o3b55uu+02r59HG4qq4A1fVFvJjoKnAQMGqEuXLqbYli1bdOLECX+nBYSVrVu3qlevXqZCUo0aNTRnzhz169fPsr+3YdNPnjxZoVhqamr1kgUiUGXP0WJltaH33nuv6tSpY4qtXbu22rkCkeSyyy6T0+lUUVGRfv75Zy1ZskQjR4407bNhwwbdcccdrnXaUCAwqnJ+FqP9BHzv/vvvdy1PmTKlzPPMG9pPwH+qe34Wo/0E/KdevXqWYm+x6OhoPfbYY5Z48TlGGwpfoeALv2vZsqUlxlADQMUtXbpUvXr1cg3dI0kNGzbUokWLdOWVV3o9xttbSvv377fE9u3bV6FjAZSuKudoRZVsQ2k/gapxOByqW7euevfurTfffNNSVPruu++UlZUliTYUCLTKnJ8VRfsJVJ7ncJI333yzHA6H6Wf79u2m/YvfMHQ4HFq7di3tJ+BH1T0/K4r2E/CfsmoktKHwFQq+8LuffvrJEqtdu7YNmQCh5+OPP9YVV1yhAwcOuGLt27fXsmXL1LVr11KPa9OmjWrVqmWKbdiwwbLfunXrLLHu3btXI2MgslT1HK2okm1oySeuAVRNRkaGJbZlyxZJtKGA3co6PyuK9hMIPNpPIPTRfgL+461GUnyO0YbCVyj4olomTJigt956SwUFBV63f/bZZ/r+++9Nsfbt23uddByA2V//+lfdeOONOnXqlCt2xRVXaMmSJWrevHmZx0ZFRemGG24wxb788kvL05kzZswwrbdq1crrTTYAVtU5RyXpj3/8o2bNmlXqHCyTJ0/WwYMHTTFfFJGBcJebm6tffvml1O1FRUX69NNPLfGkpCRJtKGAP1X3/JRoP4FgRfsJBDfaT8B/jhw5optuuknbtm3zur2wsFDPPfecJV58jtGGwldi7E4A9svNzTWtlyzeHjt2zLRPQkKCGjZsKEnavXu3HnnkEY0dO1bDhg3TFVdcoaZNm2r//v36/PPP9eKLL1q+b8SIET7/HYBw89BDD+mVV14xxfr166fJkyfr8OHDXofVadiwoRISElzrDz74oN59910VFhZKkvLz8zVkyBA988wzqlmzpiZPnqylS5eaPuMPf/iDHA6H738hIMz44hzdvHmzXnjhBbVt21Z33HGH+vbtqwYNGmjXrl36+OOPNWXKFMtn0IYC5Vu0aJHuvfdeXXPNNerfv786duyounXr6tixY9qyZYv+/ve/66uvvjIdEx8fr169ernWaUMB//DF+Un7CfhHdna2ioqKSt3ep08f7dq1y7V+ww03aOLEiZKkRo0aSaL9BPzFF+cn7SfgP06nUzNmzNDMmTM1cOBAXXfddcrIyFBcXJw2btyoCRMmaOXKlaZjGjRooGuuuca1ThsKn3Ai4kmq1M+ll17qOvbBBx+s1LGZmZnOU6dO2ffLAiGisuelJOfChQstnzN27NgKH3/55Zc7CwsLA//LAiHIF+fo4MGDK3X8ddddZ88vC4SYadOmVfr8HDdunOVzaEMB3/PF+Un7CdijefPmpnPrrrvu8rof7ScQeBU5P2k/Af85dOhQpc6vqKgo58yZMy2fQxuK6mJIZ1RLzZo1K7zvtddeq88++0zx8fF+zAiAp3HjxmnMmDGKjo4uc79f//rXmjNnjqKiaBaAQKlMGzpq1ChNnz7dj9kAkSkxMVHPPvusxo4da9lGGwrYq7Tzk/YTCG60n0Bwov0E/Cc6Oto0BUlZateurQ8++EDXX3+9ZRttKKrL4XSWMnA/IkZlX/u/9NJLtWjRItd6dna25s2bpyVLlujHH3/Unj17dOrUKSUnJ6tp06bq1auXhg0bpr59+/o4cyB8VWU4joULF+qyyy7zum3dunWaMmWKFixYoLy8PBUUFKh+/frq1auX7rzzTg0YMKCaGQORxRfnqNPp1LJly/T5559r6dKl2rx5s/bv36/Tp0+rZs2aSktLU58+fTRixAjmZAEq4fDhw/ryyy/17bffauXKldq7d68OHDigEydOKCkpSQ0aNFC7du10xRVX6JZbbnFNVVIa2lDAd3xxftJ+AvZo0aKFtm/f7lq/66679Pbbb5e6P+0nEDgVOT9pPwH/OnbsmObNm6eFCxfq+++/V05Ojg4fPqyoqCjVqVNHHTp0UP/+/TV8+HDVqVOnzM+iDUVVUfAFAAAAAAAAAAAAgBDFO98AAAAAAAAAAAAAEKIo+AIAAAAAAAAAAABAiKLgCwAAAAAAAAAAAAAhioIvAAAAAAAAAAAAAIQoCr4AAAAAAAAAAAAAEKIo+AIAAAAAAAAAAABAiKLgCwAAAAAAAAAAAAAhioIvAAAAAAAAAAAAAIQoCr4AAAAAAAAAAAAAEKIo+AIAAAAAwsrw4cPlcDgsP4sWLbI7tZD1wAMPWP57fvrpp37/3tOnT6tJkyam7z3//POVn5/v9+8GAAAAgFBBwRcAAAAAEDAtWrTwWoyt7s+4cePs/tXC1oYNGzR58mRTLDMzUwMHDvT7d8fHx+vxxx83xfbu3atnnnnG798NAAAAAKGCgi8AAAAAACjVo48+qoKCAlPskUceCdj3jxw5UvXr1zfFXnnlFe3atStgOQAAAABAMKPgCwAAAAAAvFq5cqXmzp1riqWlpWnw4MEByyE+Pl733nuvKXbq1Ck9++yzAcsBAAAAAIIZBV8AAAAAQFh5/PHHtXjxYstPRkaG3amFnPHjx1tiv/nNbxQdHR3QPH7zm98oKsp8C+Ott97SgQMHApoHAAAAAAQjh9PpdNqdBAAAAAAgMqxatUqnTp0qdfv999+vtWvXWuIjRozQyJEjSz2uWbNmatasmS9SxDm5ublq1aqVCgsLXbGoqCht375dTZo0CXg+v/rVr/Tll1+aYk8//bRljl8AAAAAiDQxdicAAAAAAIgc3bp1K3N7SkqK13izZs3Up08ff6SEUrz99tumYq8k9ejRw5ZiryQNHTrUUvB98803KfgCAAAAiHgM6QwAAAAACCvDhw+Xw+Gw/CxatMiy76JFi7zuO3z4cEnGXLGvvfaaLr74YtWtW1c1a9ZUhw4dNGbMGO3bt8/yeRs3btR9992nCy+8UImJiapTp4569+6tF198USdPnqzU75GTk6Px48drwIABSktLU0pKiuLj49WoUSP17t1bY8aM0YYNG6ryn6hC3nvvPUusonP3nj59Wu+//77uuOMOde7cWeedd57i4+MVGxur1NRUtWvXTtdcc40eeeQRzZgxQ/v37y/3MwcNGmSJ5eTk6LvvvqtQTgAAAAAQrnjDFwAAAAAALzZs2KChQ4fqxx9/NMXXr1+v9evX64033tDs2bPVq1cvSdLLL7+sP/7xjyooKHDte+rUKS1dulRLly7VP/7xD33xxRflDj39yy+/6MEHH9QHH3xgecNWkvbs2aM9e/Zo6dKlevbZZ3XLLbfob3/7m2rXru2D39qwceNGbd261RLv169fucd+8803uuOOO7Rz506v248cOaIjR47oxx9/1Pz5813xr776SldccUWpn9uwYUO1b99eP/zwgyk+e/Zs9e7du9y8AAAAACBc8YYvAAAAAAAl5Obm6sorr7QUez0dOHBA/fv3V15ensaPH6/Ro0ebir0lbdq0Sddff32Z+6xbt04ZGRl67733vBZ7S3I6nZo+fboyMzOVk5NT7v4VVXLoZEmqUaOGMjIyyjxu48aN6t+/f6nF3rKcOXOm3H0uueQSS+yLL76o9HcBAAAAQDih4AsAAAAAQAlff/219u7dW+5++fn5uvbaazVmzJgKfe7q1av1wQcfeN22Z88eDRgwoErF0q1bt2rw4ME6fvx4pY/1ZtmyZZZYenq6oqOjyzzu6aef1qlTp3ySgzedOnWyxNatW1fp4bIBAAAAIJxQ8AUAAAAAoBRXX321Zs6cqVmzZmngwIFe91m7dq2KiooUFRWlBx54QPPnz9fbb7+t5s2be93f29y4kjR69Gjl5eVZ4vXq1dPjjz+ujz76SPPnz9err76qtm3bWvZbt26dnn766Ur8dqVbu3atJdauXbtyj1u4cKEl1qhRI40fP16zZ8/WwoULNWfOHE2ePFn333+/MjIyFBVV8VsT7du3t8QKCgq0fv36Cn8GAAAAAIQb5vAFAAAAAMCLIUOG6OOPP3at//rXv1ZaWprXoqwkvfLKK/r973/vWu/atas6dOhg2W/FihWW2KZNm/Thhx9a4q1bt9Y333yjhg0bumL9+/fX3XffrUsvvVTLly837T9p0iQ9+uijSklJKf8XLENubq4l1qRJk3KPO3DggCU2ffp09e3bt8xjPvroIzVu3Ljczy8th5ycHHXv3r3c4wEAAAAgHPGGLwAAAAAAXkyYMMG0HhMTo969e3vdt0WLFrrvvvtMsfT0dK9v+R48eFD5+fmm2CeffCKn02nZd9y4caZib7H4+HhTcbnYsWPH9NVXX3nNsaKOHDnidYjk+vXrl3tsamqqJbZp06Yyj6lbt67uuecer8XxkurVq+c1vmfPnnKPBQAAAIBwRcEXAAAAAIAS2rZtq1atWlnijRo18rr/1Vdf7XVo4tL2P3LkiGl98eLFXve7/fbb5XA4vP4MGzbM6zHffPON13hFHTt2zGs8MTGx3GP79Oljid19993q3LmzRo0apeeff16zZs3Sxo0bVVhYWOnckpKSvMZ9NXcxAAAAAIQihnQGAAAAAKAEb3PkSqUXHNu0aeM1HhcX5zVeUFBgWvflG6q7d+/22Wd58vYGckmPPvqo5syZY/n9srKylJWVZYrVrFlTffr00a233qqbb7651P9Wlc0BAAAAACINb/gCAAAAAFBCaXPgxsbGeo3XqlWrWt9X8o3f6jh48GC1ji+tqO1tmOeSMjMzNXPmzFKHXvaUn5+vzz77THfeeac6duyobdu2lXtMaTkkJyeXeywAAAAAhCsKvgAAAAAAlOBteOayREdHV+v7vM19W1Ul366trNTUVMXHx1viP//8c4WOHzRokHJycvTWW2/phhtu0Pnnn1/uMZs2bdL111+voqKiMvfbv3+/17i3eY4BAAAAIFIwpDMAAAAAADYrrWD57rvvKi0trVKfVdrbyRXlcDjUokULbdq0yRTPy8ur8GckJydrxIgRGjFihCTjDeatW7cqJydHa9as0T//+U/t3LnTdEx2draWLFmiSy65pNTPLS2Hyv43AgAAAIBwQsEXAAAAAACb9enTR3PnzrXE9+/fr2HDhlX4cwoKChQTU/1L/U6dOlkKvhs3bqzy56WkpKhr167q2rWrhg4dqpEjR6pVq1aW/dasWVNmwfeHH36wxKKjo5Wenl7l3AAAAAAg1DGkMwAAAAAANhs0aJAcDocl/tRTT2n58uXlHp+dna3Ro0crMzPTJ/n06NHDElu/fn25Qy4/99xz+vjjj3X69Oky9yttLt4TJ06UeVxWVpYl1qFDh1LnHQYAAACASMAbvgAAAAAA2Kxdu3a68cYb9e9//9sUP3r0qHr16qUBAwZo4MCBatKkiZKTk3X48GFt375dWVlZWrhwoXbs2CFJat68uU/yueqqqyyxY8eOae3aterSpUupxy1atEiPPfaYkpKS1LdvX3Xt2lVt27ZV3bp1lZSUpKNHjyo7O1uvv/661+MbN25cZl6LFy+2xPr371/ObwMAAAAA4Y2CLwAAAAAAQeCll17SkiVLtGvXLlPc6XTq008/1aeffhqwXDp06KC0tDTl5OSY4gsWLCiz4FvsxIkTmj9/vubPn1/h74yJiSmzeLtnzx6vw0oPGjSowt8BAAAAAOGIIZ0BAAAAAAgCjRs31meffaamTZvanYok6fbbb7fEZs+e7bfvGzt2rOrXr1/qdm/fnZaWpt69e/stJwAAAAAIBRR8AQAAAAAIEh06dFBWVpaGDx+u2NjYSh3bs2dPPfnkkz7LZeTIkYqKMt82WLJkiXbv3l3qMU2aNPE6F3FZatSooYkTJ2rMmDFl7vfRRx9ZYqNGjarUdwEAAABAOGJIZwAAAAAAgkjt2rU1bdo0PfPMM/rwww/17bffKjs7WwcPHtSRI0eUkJCg1NRUtWzZUu3bt9fFF1+sfv36qVGjRj7NIy0tTYMHD9asWbNcsaKiIr377rt69NFHvR4zdepUPfvss1q0aJFWrVql7Oxs5eTkaN++fTp+/LgcDoeSk5PVqFEjtW/fXv369dPQoUNVt27dMnPZuXOnFixYYIolJCTot7/9bfV/UQAAAAAIcQ6n0+m0OwkAAAAAABB8Vq5cqczMTFOsZcuW2rJli+XtX38aO3asnnrqKVPsvvvu09/+9reA5QAAAAAAwYqCLwAAAAAAKNWgQYM0Z84cU2zWrFm67rrrAvL9p06dUrNmzfTzzz+7YvHx8dq2bZsaN24ckBwAAAAAIJgxhy8AAAAAACjV+PHjFRNjnhHqueeeC9j3v/XWW6ZiryQ99NBDFHsBAAAA4Bze8AUAAAAAAGV64IEH9Nprr5lic+fO1cCBA/36vadPn1arVq2Ul5fnijVo0EBbtmxRzZo1/frdAAAAABAqKPgCAAAAAAAAAAAAQIhiSGcAAAAAAAAAAAAACFEUfAEAAAAAAAAAAAAgRFHwBQAAAAAAAAAAAIAQ9f8moTEvrvyoRgAAAABJRU5ErkJggg==;" vertex="1" parent="1">
          <mxGeometry x="350" y="300" width="1916" height="972" as="geometry" />
        </mxCell>
        <mxCell id="M2eptHuo7hKowYvyBb7Z-3" value="" style="shape=flexArrow;endArrow=classic;html=1;rounded=0;strokeWidth=6;" edge="1" parent="1">
          <mxGeometry width="50" height="50" relative="1" as="geometry">
            <mxPoint x="660" y="1030" as="sourcePoint" />
            <mxPoint x="690" y="920" as="targetPoint" />
          </mxGeometry>
        </mxCell>
        <mxCell id="M2eptHuo7hKowYvyBb7Z-4" value="&lt;b&gt;&lt;font style=&quot;font-size: 50px;&quot;&gt;1&lt;/font&gt;&lt;/b&gt;" style="ellipse;whiteSpace=wrap;html=1;aspect=fixed;fillColor=none;strokeColor=none;" vertex="1" parent="1">
          <mxGeometry x="670" y="960" width="80" height="80" as="geometry" />
        </mxCell>
        <mxCell id="M2eptHuo7hKowYvyBb7Z-5" value="" style="shape=flexArrow;endArrow=classic;html=1;rounded=0;strokeWidth=6;" edge="1" parent="1">
          <mxGeometry width="50" height="50" relative="1" as="geometry">
            <mxPoint x="930" y="490" as="sourcePoint" />
            <mxPoint x="960" y="610" as="targetPoint" />
          </mxGeometry>
        </mxCell>
        <mxCell id="M2eptHuo7hKowYvyBb7Z-6" value="&lt;b&gt;&lt;font style=&quot;font-size: 50px;&quot;&gt;2&lt;/font&gt;&lt;/b&gt;" style="ellipse;whiteSpace=wrap;html=1;aspect=fixed;fillColor=none;strokeColor=none;" vertex="1" parent="1">
          <mxGeometry x="940" y="500" width="80" height="80" as="geometry" />
        </mxCell>
        <mxCell id="M2eptHuo7hKowYvyBb7Z-7" value="" style="ellipse;whiteSpace=wrap;html=1;aspect=fixed;fillColor=none;strokeColor=#ff7800;strokeWidth=6;" vertex="1" parent="1">
          <mxGeometry x="1000" y="1145" width="55" height="55" as="geometry" />
        </mxCell>
        <mxCell id="M2eptHuo7hKowYvyBb7Z-8" value="" style="ellipse;whiteSpace=wrap;html=1;aspect=fixed;fillColor=none;strokeWidth=6;strokeColor=#009900;" vertex="1" parent="1">
          <mxGeometry x="540" y="1130" width="60" height="60" as="geometry" />
        </mxCell>
        <mxCell id="M2eptHuo7hKowYvyBb7Z-12" value="" style="ellipse;whiteSpace=wrap;html=1;aspect=fixed;fillColor=none;strokeWidth=6;strokeColor=#009900;" vertex="1" parent="1">
          <mxGeometry x="1650" y="1140" width="60" height="60" as="geometry" />
        </mxCell>
        <mxCell id="M2eptHuo7hKowYvyBb7Z-15" value="" style="ellipse;whiteSpace=wrap;html=1;aspect=fixed;fillColor=none;strokeWidth=6;strokeColor=#009900;dashed=1;dashPattern=1 1;" vertex="1" parent="1">
          <mxGeometry x="810" y="335" width="60" height="60" as="geometry" />
        </mxCell>
        <mxCell id="M2eptHuo7hKowYvyBb7Z-16" value="" style="ellipse;whiteSpace=wrap;html=1;aspect=fixed;fillColor=none;strokeWidth=6;strokeColor=#009900;dashed=1;dashPattern=1 1;" vertex="1" parent="1">
          <mxGeometry x="1370" y="335" width="60" height="60" as="geometry" />
        </mxCell>
        <mxCell id="M2eptHuo7hKowYvyBb7Z-17" value="" style="ellipse;whiteSpace=wrap;html=1;aspect=fixed;fillColor=none;strokeWidth=6;strokeColor=#009900;dashed=1;dashPattern=1 1;" vertex="1" parent="1">
          <mxGeometry x="1090" y="1140" width="60" height="60" as="geometry" />
        </mxCell>
        <mxCell id="M2eptHuo7hKowYvyBb7Z-19" value="" style="ellipse;whiteSpace=wrap;html=1;aspect=fixed;fillColor=none;strokeColor=#ff7800;strokeWidth=6;" vertex="1" parent="1">
          <mxGeometry x="1560" y="1142.5" width="55" height="55" as="geometry" />
        </mxCell>
      </root>
    </mxGraphModel>
  </diagram>
</mxfile>
